M48
; DRILL file KiCad 10.0.2 date 2026-06-01T11:41:40
; FORMAT={-:-/ absolute / metric / decimal}
; #@! TF.CreationDate,2026-06-01T11:41:40-07:00
; #@! TF.GenerationSoftware,Kicad,Pcbnew,10.0.2
; #@! TF.FileFunction,Plated,1,4,PTH
FMAT,2
METRIC
; #@! TA.AperFunction,Plated,PTH,ViaDrill
T1C0.200
; #@! TA.AperFunction,Plated,PTH,ViaDrill
T2C0.300
; #@! TA.AperFunction,Plated,PTH,ComponentDrill
T3C0.600
; #@! TA.AperFunction,Plated,PTH,ComponentDrill
T4C1.000
%
G90
G05
T1
X80.0Y-100.0
X80.0Y-130.0
X80.0Y-140.0
X80.0Y-150.0
X83.95Y-106.0
X83.95Y-114.0
X84.0Y-154.0
X85.0Y-109.0
X85.25Y-141.29
X86.0Y-117.0
X86.0Y-128.0
X86.75Y-141.29
X86.75Y-148.71
X89.0Y-108.0
X89.0Y-112.0
X89.75Y-141.29
X89.75Y-148.71
X91.95Y-135.0
X91.95Y-153.0
X92.25Y-141.29
X92.25Y-148.71
X94.33Y-106.25
X94.33Y-108.25
X94.33Y-111.25
X94.33Y-112.25
X94.33Y-113.25
X95.25Y-141.29
X95.25Y-148.71
X95.95Y-98.0
X95.95Y-122.0
X96.75Y-141.29
X96.75Y-148.71
X100.25Y-115.67
X100.95Y-98.0
X100.95Y-122.0
X102.75Y-104.33
X103.0Y-140.0
X103.0Y-150.0
X105.67Y-106.75
X105.67Y-112.75
X105.95Y-98.0
X105.95Y-122.0
X109.25Y-141.29
X110.75Y-141.29
X110.75Y-148.71
X112.0Y-106.05
X112.0Y-112.05
X113.0Y-133.0
X113.75Y-141.29
X113.75Y-148.71
X115.95Y-135.0
X115.95Y-153.0
X116.25Y-141.29
X116.25Y-148.71
X118.0Y-78.0
X118.0Y-85.0
X118.0Y-92.0
X119.25Y-141.29
X119.25Y-148.71
X120.0Y-72.0
X120.0Y-84.0
X120.0Y-86.0
X120.0Y-98.0
X120.75Y-141.29
X120.75Y-148.71
X121.0Y-85.0
X121.21Y-74.0
X121.21Y-88.0
X121.21Y-96.0
X122.41Y-74.0
X123.21Y-96.0
X123.61Y-74.0
X124.0Y-85.0
X124.01Y-88.0
X127.0Y-85.0
X127.0Y-140.0
X127.0Y-150.0
X127.21Y-74.0
X127.61Y-88.0
X127.61Y-96.0
X129.21Y-74.0
X130.0Y-85.0
X130.01Y-88.0
X132.81Y-74.0
X132.81Y-88.0
X132.81Y-96.0
X133.0Y-85.0
X133.25Y-141.29
X134.0Y-72.0
X134.0Y-84.0
X134.0Y-86.0
X134.0Y-98.0
X134.75Y-141.29
X134.75Y-148.71
X136.0Y-78.0
X136.0Y-85.0
X136.0Y-92.0
X137.75Y-141.29
X137.75Y-148.71
X139.95Y-135.0
X139.95Y-153.0
X140.25Y-141.29
X140.25Y-148.71
X143.25Y-141.29
X143.25Y-148.71
X144.75Y-141.29
X144.75Y-148.71
X151.0Y-140.0
X151.0Y-150.0
X155.0Y-93.0
X155.0Y-112.0
X155.0Y-118.0
X157.0Y-97.0
X157.25Y-141.29
X157.525Y-116.905
X157.91Y-99.0
X158.75Y-141.29
X158.75Y-148.71
X160.0Y-93.0
X160.95Y-108.0
X160.95Y-122.0
X161.75Y-141.29
X161.75Y-148.71
X163.95Y-135.0
X163.95Y-153.0
X164.25Y-141.29
X164.25Y-148.71
X165.0Y-112.0
X165.0Y-118.0
X167.25Y-141.29
X167.25Y-148.71
X168.75Y-141.29
X168.75Y-148.71
X170.0Y-93.0
X171.0Y-154.0
X174.0Y-92.0
X174.0Y-100.0
X174.0Y-130.0
X175.0Y-140.0
X175.0Y-150.0
T2
X84.282Y-117.576
X85.25Y-147.521
X86.25Y-130.043
X86.25Y-156.541
X86.45Y-129.119
X87.75Y-129.288
X87.932Y-155.566
X88.683Y-156.171
X88.767Y-150.628
X89.394Y-149.936
X90.78Y-139.102
X90.791Y-121.874
X90.791Y-153.99
X91.25Y-147.499
X91.318Y-123.952
X92.156Y-149.936
X92.449Y-151.065
X92.665Y-128.53
X92.75Y-138.743
X93.001Y-111.567
X93.147Y-149.92
X93.21Y-120.213
X93.977Y-114.45
X94.192Y-123.258
X94.65Y-74.42
X94.752Y-119.862
X95.076Y-150.622
X95.129Y-120.547
X96.14Y-139.055
X96.194Y-139.807
X96.94Y-113.934
X97.01Y-109.777
X97.191Y-105.882
X97.495Y-110.721
X97.565Y-147.175
X97.618Y-67.421
X97.792Y-149.751
X98.168Y-148.671
X99.402Y-149.53
X99.495Y-138.049
X101.377Y-137.412
X101.46Y-147.056
X102.659Y-156.533
X103.75Y-156.535
X104.085Y-155.203
X104.085Y-117.359
X104.655Y-102.52
X106.25Y-156.445
X107.394Y-110.194
X108.75Y-156.545
X108.822Y-147.638
X109.834Y-128.305
X110.25Y-146.983
X111.14Y-114.81
X111.155Y-146.843
X111.25Y-169.461
X112.257Y-152.179
X112.789Y-151.032
X113.25Y-147.519
X113.301Y-139.804
X113.75Y-169.459
X114.25Y-150.354
X115.943Y-150.762
X116.25Y-154.557
X116.25Y-169.462
X117.187Y-123.863
X117.256Y-156.526
X117.362Y-150.117
X117.366Y-122.68
X117.893Y-120.091
X117.918Y-151.077
X118.257Y-149.902
X118.395Y-119.53
X118.517Y-89.321
X119.139Y-81.96
X119.863Y-91.795
X120.296Y-90.4
X120.325Y-117.166
X120.609Y-154.865
X120.618Y-76.088
X120.649Y-79.54
X120.886Y-130.719
X122.212Y-104.488
X122.409Y-89.231
X122.701Y-91.264
X123.041Y-115.433
X123.143Y-89.652
X123.606Y-92.298
X123.796Y-83.56
X124.078Y-98.093
X124.096Y-81.622
X124.169Y-101.531
X124.184Y-91.624
X124.273Y-94.346
X124.353Y-83.04
X124.356Y-105.306
X124.356Y-113.923
X124.356Y-116.595
X124.358Y-92.522
X124.385Y-149.901
X124.793Y-80.925
X125.038Y-78.17
X125.841Y-81.839
X126.235Y-103.597
X126.51Y-83.957
X126.574Y-100.903
X126.601Y-81.506
X126.644Y-88.884
X126.769Y-89.636
X127.034Y-91.82
X127.034Y-92.602
X127.054Y-78.17
X127.071Y-86.673
X127.402Y-113.915
X127.523Y-97.387
X127.704Y-85.714
X127.778Y-77.404
X128.01Y-70.312
X128.087Y-92.36
X128.234Y-88.584
X128.409Y-81.82
X128.529Y-77.283
X128.713Y-67.04
X128.81Y-119.698
X128.901Y-88.175
X128.964Y-81.078
X129.129Y-91.906
X129.131Y-78.708
X129.209Y-92.727
X129.48Y-94.427
X129.745Y-75.615
X129.848Y-95.778
X129.999Y-91.274
X130.41Y-95.068
X130.414Y-77.789
X130.593Y-81.055
X130.618Y-75.487
X131.047Y-135.553
X131.211Y-77.481
X131.212Y-91.289
X131.356Y-80.766
X131.609Y-78.174
X131.624Y-96.803
X131.672Y-148.9
X132.011Y-74.744
X132.116Y-80.758
X132.177Y-78.71
X134.25Y-149.967
X134.314Y-120.229
X134.697Y-139.661
X135.75Y-147.517
X136.022Y-92.776
X136.25Y-156.225
X136.657Y-139.677
X137.016Y-121.697
X137.25Y-147.51
X137.83Y-150.294
X138.25Y-147.514
X138.872Y-123.142
X138.986Y-150.267
X139.119Y-151.847
X139.75Y-150.267
X140.113Y-124.409
X140.547Y-155.996
X140.649Y-150.267
X140.706Y-119.514
X141.169Y-107.938
X141.25Y-153.04
X141.356Y-128.41
X141.92Y-109.434
X142.207Y-152.299
X142.558Y-125.946
X142.75Y-152.829
X143.155Y-140.092
X143.688Y-110.609
X143.75Y-152.578
X144.255Y-114.459
X144.841Y-149.918
X145.509Y-115.279
X148.616Y-149.437
X151.896Y-149.11
X151.897Y-137.749
X152.545Y-88.621
X154.378Y-88.621
X155.427Y-89.225
X155.879Y-115.635
X155.92Y-112.855
X156.056Y-150.655
X156.411Y-139.645
X156.602Y-149.027
X158.25Y-139.81
X159.018Y-147.202
X159.99Y-150.799
X160.251Y-156.136
X160.787Y-139.65
X160.789Y-150.745
X160.934Y-88.961
X161.047Y-114.679
X161.25Y-156.07
X161.996Y-150.287
X162.234Y-94.471
X162.535Y-139.928
X162.728Y-155.632
X162.75Y-142.485
X162.831Y-127.978
X163.251Y-93.456
X163.752Y-139.182
X164.013Y-156.275
X164.706Y-139.95
X165.003Y-156.599
X165.165Y-115.148
X165.25Y-120.276
X166.25Y-121.989
X166.25Y-156.234
X166.812Y-120.315
X167.685Y-153.944
X168.25Y-139.615
X168.258Y-153.363
X168.785Y-149.905
X169.226Y-119.839
T4
X82.0Y-65.0
X82.0Y-67.54
X82.0Y-70.08
X82.0Y-72.62
X82.0Y-75.16
X82.0Y-81.0
X82.0Y-83.54
X82.0Y-86.08
X82.0Y-88.62
X82.0Y-91.16
X84.54Y-65.0
X84.54Y-67.54
X84.54Y-70.08
X84.54Y-72.62
X84.54Y-75.16
X84.54Y-81.0
X84.54Y-83.54
X84.54Y-86.08
X84.54Y-88.62
X84.54Y-91.16
T3
X158.68Y-86.15G85X158.68Y-86.75
G05
X158.68Y-90.08G85X158.68Y-91.18
G05
X167.32Y-86.15G85X167.32Y-86.75
G05
X167.32Y-90.08G85X167.32Y-91.18
G05
M30
