%TF.GenerationSoftware,KiCad,Pcbnew,10.0.2*%
%TF.CreationDate,2026-06-01T11:41:40-07:00*%
%TF.ProjectId,nes-dev-cart,6e65732d-6465-4762-9d63-6172742e6b69,4.0*%
%TF.SameCoordinates,Original*%
%TF.FileFunction,Drillmap*%
%TF.FilePolarity,Positive*%
%FSLAX45Y45*%
G04 Gerber Fmt 4.5, Leading zero omitted, Abs format (unit mm)*
G04 Created by KiCad (PCBNEW 10.0.2) date 2026-06-01 11:41:40*
%MOMM*%
%LPD*%
G01*
G04 APERTURE LIST*
%ADD10C,0.050000*%
%ADD11C,0.200000*%
%ADD12C,0.100000*%
G04 APERTURE END LIST*
D10*
X7700000Y-6000000D02*
X14500000Y-6000000D01*
X7700000Y-15550000D02*
X7700000Y-6000000D01*
X8025000Y-15550000D02*
X7700000Y-15550000D01*
X8025000Y-17000000D02*
X8025000Y-15550000D01*
X14500000Y-6000000D02*
X14500000Y-8550000D01*
X14500000Y-8550000D02*
X17700000Y-8550000D01*
X17375000Y-15550000D02*
X17375000Y-17000000D01*
X17375000Y-17000000D02*
X8025000Y-17000000D01*
X17700000Y-8550000D02*
X17700000Y-15550000D01*
X17700000Y-15550000D02*
X17375000Y-15550000D01*
D11*
D12*
X15978500Y-8977500D02*
X16043500Y-9042500D01*
X16043500Y-8977500D02*
X15978500Y-9042500D01*
X16556500Y-8977500D02*
X16621500Y-9042500D01*
X16621500Y-8977500D02*
X16556500Y-9042500D01*
D11*
X7958277Y-17313984D02*
X7958277Y-17113984D01*
X7958277Y-17113984D02*
X8005896Y-17113984D01*
X8005896Y-17113984D02*
X8034467Y-17123508D01*
X8034467Y-17123508D02*
X8053515Y-17142555D01*
X8053515Y-17142555D02*
X8063039Y-17161603D01*
X8063039Y-17161603D02*
X8072562Y-17199698D01*
X8072562Y-17199698D02*
X8072562Y-17228270D01*
X8072562Y-17228270D02*
X8063039Y-17266365D01*
X8063039Y-17266365D02*
X8053515Y-17285412D01*
X8053515Y-17285412D02*
X8034467Y-17304460D01*
X8034467Y-17304460D02*
X8005896Y-17313984D01*
X8005896Y-17313984D02*
X7958277Y-17313984D01*
X8158277Y-17313984D02*
X8158277Y-17180650D01*
X8158277Y-17218746D02*
X8167801Y-17199698D01*
X8167801Y-17199698D02*
X8177324Y-17190174D01*
X8177324Y-17190174D02*
X8196372Y-17180650D01*
X8196372Y-17180650D02*
X8215420Y-17180650D01*
X8282086Y-17313984D02*
X8282086Y-17180650D01*
X8282086Y-17113984D02*
X8272562Y-17123508D01*
X8272562Y-17123508D02*
X8282086Y-17133031D01*
X8282086Y-17133031D02*
X8291610Y-17123508D01*
X8291610Y-17123508D02*
X8282086Y-17113984D01*
X8282086Y-17113984D02*
X8282086Y-17133031D01*
X8405896Y-17313984D02*
X8386848Y-17304460D01*
X8386848Y-17304460D02*
X8377324Y-17285412D01*
X8377324Y-17285412D02*
X8377324Y-17113984D01*
X8510658Y-17313984D02*
X8491610Y-17304460D01*
X8491610Y-17304460D02*
X8482086Y-17285412D01*
X8482086Y-17285412D02*
X8482086Y-17113984D01*
X8739229Y-17313984D02*
X8739229Y-17113984D01*
X8739229Y-17113984D02*
X8805896Y-17256841D01*
X8805896Y-17256841D02*
X8872563Y-17113984D01*
X8872563Y-17113984D02*
X8872563Y-17313984D01*
X9053515Y-17313984D02*
X9053515Y-17209222D01*
X9053515Y-17209222D02*
X9043991Y-17190174D01*
X9043991Y-17190174D02*
X9024944Y-17180650D01*
X9024944Y-17180650D02*
X8986848Y-17180650D01*
X8986848Y-17180650D02*
X8967801Y-17190174D01*
X9053515Y-17304460D02*
X9034467Y-17313984D01*
X9034467Y-17313984D02*
X8986848Y-17313984D01*
X8986848Y-17313984D02*
X8967801Y-17304460D01*
X8967801Y-17304460D02*
X8958277Y-17285412D01*
X8958277Y-17285412D02*
X8958277Y-17266365D01*
X8958277Y-17266365D02*
X8967801Y-17247317D01*
X8967801Y-17247317D02*
X8986848Y-17237793D01*
X8986848Y-17237793D02*
X9034467Y-17237793D01*
X9034467Y-17237793D02*
X9053515Y-17228270D01*
X9148753Y-17180650D02*
X9148753Y-17380650D01*
X9148753Y-17190174D02*
X9167801Y-17180650D01*
X9167801Y-17180650D02*
X9205896Y-17180650D01*
X9205896Y-17180650D02*
X9224944Y-17190174D01*
X9224944Y-17190174D02*
X9234467Y-17199698D01*
X9234467Y-17199698D02*
X9243991Y-17218746D01*
X9243991Y-17218746D02*
X9243991Y-17275889D01*
X9243991Y-17275889D02*
X9234467Y-17294936D01*
X9234467Y-17294936D02*
X9224944Y-17304460D01*
X9224944Y-17304460D02*
X9205896Y-17313984D01*
X9205896Y-17313984D02*
X9167801Y-17313984D01*
X9167801Y-17313984D02*
X9148753Y-17304460D01*
X9329705Y-17294936D02*
X9339229Y-17304460D01*
X9339229Y-17304460D02*
X9329705Y-17313984D01*
X9329705Y-17313984D02*
X9320182Y-17304460D01*
X9320182Y-17304460D02*
X9329705Y-17294936D01*
X9329705Y-17294936D02*
X9329705Y-17313984D01*
X9329705Y-17190174D02*
X9339229Y-17199698D01*
X9339229Y-17199698D02*
X9329705Y-17209222D01*
X9329705Y-17209222D02*
X9320182Y-17199698D01*
X9320182Y-17199698D02*
X9329705Y-17190174D01*
X9329705Y-17190174D02*
X9329705Y-17209222D01*
D12*
X7632500Y-17610000D02*
X7697500Y-17675000D01*
X7697500Y-17610000D02*
X7632500Y-17675000D01*
D11*
X7996372Y-17533984D02*
X8015420Y-17533984D01*
X8015420Y-17533984D02*
X8034467Y-17543508D01*
X8034467Y-17543508D02*
X8043991Y-17553031D01*
X8043991Y-17553031D02*
X8053515Y-17572079D01*
X8053515Y-17572079D02*
X8063039Y-17610174D01*
X8063039Y-17610174D02*
X8063039Y-17657793D01*
X8063039Y-17657793D02*
X8053515Y-17695889D01*
X8053515Y-17695889D02*
X8043991Y-17714936D01*
X8043991Y-17714936D02*
X8034467Y-17724460D01*
X8034467Y-17724460D02*
X8015420Y-17733984D01*
X8015420Y-17733984D02*
X7996372Y-17733984D01*
X7996372Y-17733984D02*
X7977324Y-17724460D01*
X7977324Y-17724460D02*
X7967801Y-17714936D01*
X7967801Y-17714936D02*
X7958277Y-17695889D01*
X7958277Y-17695889D02*
X7948753Y-17657793D01*
X7948753Y-17657793D02*
X7948753Y-17610174D01*
X7948753Y-17610174D02*
X7958277Y-17572079D01*
X7958277Y-17572079D02*
X7967801Y-17553031D01*
X7967801Y-17553031D02*
X7977324Y-17543508D01*
X7977324Y-17543508D02*
X7996372Y-17533984D01*
X8148753Y-17714936D02*
X8158277Y-17724460D01*
X8158277Y-17724460D02*
X8148753Y-17733984D01*
X8148753Y-17733984D02*
X8139229Y-17724460D01*
X8139229Y-17724460D02*
X8148753Y-17714936D01*
X8148753Y-17714936D02*
X8148753Y-17733984D01*
X8329705Y-17533984D02*
X8291610Y-17533984D01*
X8291610Y-17533984D02*
X8272562Y-17543508D01*
X8272562Y-17543508D02*
X8263039Y-17553031D01*
X8263039Y-17553031D02*
X8243991Y-17581603D01*
X8243991Y-17581603D02*
X8234467Y-17619698D01*
X8234467Y-17619698D02*
X8234467Y-17695889D01*
X8234467Y-17695889D02*
X8243991Y-17714936D01*
X8243991Y-17714936D02*
X8253515Y-17724460D01*
X8253515Y-17724460D02*
X8272562Y-17733984D01*
X8272562Y-17733984D02*
X8310658Y-17733984D01*
X8310658Y-17733984D02*
X8329705Y-17724460D01*
X8329705Y-17724460D02*
X8339229Y-17714936D01*
X8339229Y-17714936D02*
X8348753Y-17695889D01*
X8348753Y-17695889D02*
X8348753Y-17648270D01*
X8348753Y-17648270D02*
X8339229Y-17629222D01*
X8339229Y-17629222D02*
X8329705Y-17619698D01*
X8329705Y-17619698D02*
X8310658Y-17610174D01*
X8310658Y-17610174D02*
X8272562Y-17610174D01*
X8272562Y-17610174D02*
X8253515Y-17619698D01*
X8253515Y-17619698D02*
X8243991Y-17629222D01*
X8243991Y-17629222D02*
X8234467Y-17648270D01*
X8529705Y-17533984D02*
X8434467Y-17533984D01*
X8434467Y-17533984D02*
X8424944Y-17629222D01*
X8424944Y-17629222D02*
X8434467Y-17619698D01*
X8434467Y-17619698D02*
X8453515Y-17610174D01*
X8453515Y-17610174D02*
X8501134Y-17610174D01*
X8501134Y-17610174D02*
X8520182Y-17619698D01*
X8520182Y-17619698D02*
X8529705Y-17629222D01*
X8529705Y-17629222D02*
X8539229Y-17648270D01*
X8539229Y-17648270D02*
X8539229Y-17695889D01*
X8539229Y-17695889D02*
X8529705Y-17714936D01*
X8529705Y-17714936D02*
X8520182Y-17724460D01*
X8520182Y-17724460D02*
X8501134Y-17733984D01*
X8501134Y-17733984D02*
X8453515Y-17733984D01*
X8453515Y-17733984D02*
X8434467Y-17724460D01*
X8434467Y-17724460D02*
X8424944Y-17714936D01*
X8663039Y-17533984D02*
X8682086Y-17533984D01*
X8682086Y-17533984D02*
X8701134Y-17543508D01*
X8701134Y-17543508D02*
X8710658Y-17553031D01*
X8710658Y-17553031D02*
X8720182Y-17572079D01*
X8720182Y-17572079D02*
X8729705Y-17610174D01*
X8729705Y-17610174D02*
X8729705Y-17657793D01*
X8729705Y-17657793D02*
X8720182Y-17695889D01*
X8720182Y-17695889D02*
X8710658Y-17714936D01*
X8710658Y-17714936D02*
X8701134Y-17724460D01*
X8701134Y-17724460D02*
X8682086Y-17733984D01*
X8682086Y-17733984D02*
X8663039Y-17733984D01*
X8663039Y-17733984D02*
X8643991Y-17724460D01*
X8643991Y-17724460D02*
X8634467Y-17714936D01*
X8634467Y-17714936D02*
X8624944Y-17695889D01*
X8624944Y-17695889D02*
X8615420Y-17657793D01*
X8615420Y-17657793D02*
X8615420Y-17610174D01*
X8615420Y-17610174D02*
X8624944Y-17572079D01*
X8624944Y-17572079D02*
X8634467Y-17553031D01*
X8634467Y-17553031D02*
X8643991Y-17543508D01*
X8643991Y-17543508D02*
X8663039Y-17533984D01*
X8815420Y-17733984D02*
X8815420Y-17600650D01*
X8815420Y-17619698D02*
X8824944Y-17610174D01*
X8824944Y-17610174D02*
X8843991Y-17600650D01*
X8843991Y-17600650D02*
X8872563Y-17600650D01*
X8872563Y-17600650D02*
X8891610Y-17610174D01*
X8891610Y-17610174D02*
X8901134Y-17629222D01*
X8901134Y-17629222D02*
X8901134Y-17733984D01*
X8901134Y-17629222D02*
X8910658Y-17610174D01*
X8910658Y-17610174D02*
X8929705Y-17600650D01*
X8929705Y-17600650D02*
X8958277Y-17600650D01*
X8958277Y-17600650D02*
X8977325Y-17610174D01*
X8977325Y-17610174D02*
X8986848Y-17629222D01*
X8986848Y-17629222D02*
X8986848Y-17733984D01*
X9082086Y-17733984D02*
X9082086Y-17600650D01*
X9082086Y-17619698D02*
X9091610Y-17610174D01*
X9091610Y-17610174D02*
X9110658Y-17600650D01*
X9110658Y-17600650D02*
X9139229Y-17600650D01*
X9139229Y-17600650D02*
X9158277Y-17610174D01*
X9158277Y-17610174D02*
X9167801Y-17629222D01*
X9167801Y-17629222D02*
X9167801Y-17733984D01*
X9167801Y-17629222D02*
X9177325Y-17610174D01*
X9177325Y-17610174D02*
X9196372Y-17600650D01*
X9196372Y-17600650D02*
X9224944Y-17600650D01*
X9224944Y-17600650D02*
X9243991Y-17610174D01*
X9243991Y-17610174D02*
X9253515Y-17629222D01*
X9253515Y-17629222D02*
X9253515Y-17733984D01*
X9643991Y-17524460D02*
X9472563Y-17781603D01*
X9901134Y-17533984D02*
X9920182Y-17533984D01*
X9920182Y-17533984D02*
X9939229Y-17543508D01*
X9939229Y-17543508D02*
X9948753Y-17553031D01*
X9948753Y-17553031D02*
X9958277Y-17572079D01*
X9958277Y-17572079D02*
X9967801Y-17610174D01*
X9967801Y-17610174D02*
X9967801Y-17657793D01*
X9967801Y-17657793D02*
X9958277Y-17695889D01*
X9958277Y-17695889D02*
X9948753Y-17714936D01*
X9948753Y-17714936D02*
X9939229Y-17724460D01*
X9939229Y-17724460D02*
X9920182Y-17733984D01*
X9920182Y-17733984D02*
X9901134Y-17733984D01*
X9901134Y-17733984D02*
X9882087Y-17724460D01*
X9882087Y-17724460D02*
X9872563Y-17714936D01*
X9872563Y-17714936D02*
X9863039Y-17695889D01*
X9863039Y-17695889D02*
X9853515Y-17657793D01*
X9853515Y-17657793D02*
X9853515Y-17610174D01*
X9853515Y-17610174D02*
X9863039Y-17572079D01*
X9863039Y-17572079D02*
X9872563Y-17553031D01*
X9872563Y-17553031D02*
X9882087Y-17543508D01*
X9882087Y-17543508D02*
X9901134Y-17533984D01*
X10053515Y-17714936D02*
X10063039Y-17724460D01*
X10063039Y-17724460D02*
X10053515Y-17733984D01*
X10053515Y-17733984D02*
X10043991Y-17724460D01*
X10043991Y-17724460D02*
X10053515Y-17714936D01*
X10053515Y-17714936D02*
X10053515Y-17733984D01*
X10186848Y-17533984D02*
X10205896Y-17533984D01*
X10205896Y-17533984D02*
X10224944Y-17543508D01*
X10224944Y-17543508D02*
X10234468Y-17553031D01*
X10234468Y-17553031D02*
X10243991Y-17572079D01*
X10243991Y-17572079D02*
X10253515Y-17610174D01*
X10253515Y-17610174D02*
X10253515Y-17657793D01*
X10253515Y-17657793D02*
X10243991Y-17695889D01*
X10243991Y-17695889D02*
X10234468Y-17714936D01*
X10234468Y-17714936D02*
X10224944Y-17724460D01*
X10224944Y-17724460D02*
X10205896Y-17733984D01*
X10205896Y-17733984D02*
X10186848Y-17733984D01*
X10186848Y-17733984D02*
X10167801Y-17724460D01*
X10167801Y-17724460D02*
X10158277Y-17714936D01*
X10158277Y-17714936D02*
X10148753Y-17695889D01*
X10148753Y-17695889D02*
X10139229Y-17657793D01*
X10139229Y-17657793D02*
X10139229Y-17610174D01*
X10139229Y-17610174D02*
X10148753Y-17572079D01*
X10148753Y-17572079D02*
X10158277Y-17553031D01*
X10158277Y-17553031D02*
X10167801Y-17543508D01*
X10167801Y-17543508D02*
X10186848Y-17533984D01*
X10329706Y-17553031D02*
X10339229Y-17543508D01*
X10339229Y-17543508D02*
X10358277Y-17533984D01*
X10358277Y-17533984D02*
X10405896Y-17533984D01*
X10405896Y-17533984D02*
X10424944Y-17543508D01*
X10424944Y-17543508D02*
X10434468Y-17553031D01*
X10434468Y-17553031D02*
X10443991Y-17572079D01*
X10443991Y-17572079D02*
X10443991Y-17591127D01*
X10443991Y-17591127D02*
X10434468Y-17619698D01*
X10434468Y-17619698D02*
X10320182Y-17733984D01*
X10320182Y-17733984D02*
X10443991Y-17733984D01*
X10624944Y-17533984D02*
X10529706Y-17533984D01*
X10529706Y-17533984D02*
X10520182Y-17629222D01*
X10520182Y-17629222D02*
X10529706Y-17619698D01*
X10529706Y-17619698D02*
X10548753Y-17610174D01*
X10548753Y-17610174D02*
X10596372Y-17610174D01*
X10596372Y-17610174D02*
X10615420Y-17619698D01*
X10615420Y-17619698D02*
X10624944Y-17629222D01*
X10624944Y-17629222D02*
X10634468Y-17648270D01*
X10634468Y-17648270D02*
X10634468Y-17695889D01*
X10634468Y-17695889D02*
X10624944Y-17714936D01*
X10624944Y-17714936D02*
X10615420Y-17724460D01*
X10615420Y-17724460D02*
X10596372Y-17733984D01*
X10596372Y-17733984D02*
X10548753Y-17733984D01*
X10548753Y-17733984D02*
X10529706Y-17724460D01*
X10529706Y-17724460D02*
X10520182Y-17714936D01*
X10805896Y-17533984D02*
X10767801Y-17533984D01*
X10767801Y-17533984D02*
X10748753Y-17543508D01*
X10748753Y-17543508D02*
X10739229Y-17553031D01*
X10739229Y-17553031D02*
X10720182Y-17581603D01*
X10720182Y-17581603D02*
X10710658Y-17619698D01*
X10710658Y-17619698D02*
X10710658Y-17695889D01*
X10710658Y-17695889D02*
X10720182Y-17714936D01*
X10720182Y-17714936D02*
X10729706Y-17724460D01*
X10729706Y-17724460D02*
X10748753Y-17733984D01*
X10748753Y-17733984D02*
X10786849Y-17733984D01*
X10786849Y-17733984D02*
X10805896Y-17724460D01*
X10805896Y-17724460D02*
X10815420Y-17714936D01*
X10815420Y-17714936D02*
X10824944Y-17695889D01*
X10824944Y-17695889D02*
X10824944Y-17648270D01*
X10824944Y-17648270D02*
X10815420Y-17629222D01*
X10815420Y-17629222D02*
X10805896Y-17619698D01*
X10805896Y-17619698D02*
X10786849Y-17610174D01*
X10786849Y-17610174D02*
X10748753Y-17610174D01*
X10748753Y-17610174D02*
X10729706Y-17619698D01*
X10729706Y-17619698D02*
X10720182Y-17629222D01*
X10720182Y-17629222D02*
X10710658Y-17648270D01*
X10901134Y-17533984D02*
X10901134Y-17572079D01*
X10977325Y-17533984D02*
X10977325Y-17572079D01*
X11272563Y-17810174D02*
X11263039Y-17800650D01*
X11263039Y-17800650D02*
X11243991Y-17772079D01*
X11243991Y-17772079D02*
X11234468Y-17753031D01*
X11234468Y-17753031D02*
X11224944Y-17724460D01*
X11224944Y-17724460D02*
X11215420Y-17676841D01*
X11215420Y-17676841D02*
X11215420Y-17638746D01*
X11215420Y-17638746D02*
X11224944Y-17591127D01*
X11224944Y-17591127D02*
X11234468Y-17562555D01*
X11234468Y-17562555D02*
X11243991Y-17543508D01*
X11243991Y-17543508D02*
X11263039Y-17514936D01*
X11263039Y-17514936D02*
X11272563Y-17505412D01*
X11339229Y-17553031D02*
X11348753Y-17543508D01*
X11348753Y-17543508D02*
X11367801Y-17533984D01*
X11367801Y-17533984D02*
X11415420Y-17533984D01*
X11415420Y-17533984D02*
X11434468Y-17543508D01*
X11434468Y-17543508D02*
X11443991Y-17553031D01*
X11443991Y-17553031D02*
X11453515Y-17572079D01*
X11453515Y-17572079D02*
X11453515Y-17591127D01*
X11453515Y-17591127D02*
X11443991Y-17619698D01*
X11443991Y-17619698D02*
X11329706Y-17733984D01*
X11329706Y-17733984D02*
X11453515Y-17733984D01*
X11691610Y-17733984D02*
X11691610Y-17533984D01*
X11777325Y-17733984D02*
X11777325Y-17629222D01*
X11777325Y-17629222D02*
X11767801Y-17610174D01*
X11767801Y-17610174D02*
X11748753Y-17600650D01*
X11748753Y-17600650D02*
X11720182Y-17600650D01*
X11720182Y-17600650D02*
X11701134Y-17610174D01*
X11701134Y-17610174D02*
X11691610Y-17619698D01*
X11901134Y-17733984D02*
X11882087Y-17724460D01*
X11882087Y-17724460D02*
X11872563Y-17714936D01*
X11872563Y-17714936D02*
X11863039Y-17695889D01*
X11863039Y-17695889D02*
X11863039Y-17638746D01*
X11863039Y-17638746D02*
X11872563Y-17619698D01*
X11872563Y-17619698D02*
X11882087Y-17610174D01*
X11882087Y-17610174D02*
X11901134Y-17600650D01*
X11901134Y-17600650D02*
X11929706Y-17600650D01*
X11929706Y-17600650D02*
X11948753Y-17610174D01*
X11948753Y-17610174D02*
X11958277Y-17619698D01*
X11958277Y-17619698D02*
X11967801Y-17638746D01*
X11967801Y-17638746D02*
X11967801Y-17695889D01*
X11967801Y-17695889D02*
X11958277Y-17714936D01*
X11958277Y-17714936D02*
X11948753Y-17724460D01*
X11948753Y-17724460D02*
X11929706Y-17733984D01*
X11929706Y-17733984D02*
X11901134Y-17733984D01*
X12082087Y-17733984D02*
X12063039Y-17724460D01*
X12063039Y-17724460D02*
X12053515Y-17705412D01*
X12053515Y-17705412D02*
X12053515Y-17533984D01*
X12234468Y-17724460D02*
X12215420Y-17733984D01*
X12215420Y-17733984D02*
X12177325Y-17733984D01*
X12177325Y-17733984D02*
X12158277Y-17724460D01*
X12158277Y-17724460D02*
X12148753Y-17705412D01*
X12148753Y-17705412D02*
X12148753Y-17629222D01*
X12148753Y-17629222D02*
X12158277Y-17610174D01*
X12158277Y-17610174D02*
X12177325Y-17600650D01*
X12177325Y-17600650D02*
X12215420Y-17600650D01*
X12215420Y-17600650D02*
X12234468Y-17610174D01*
X12234468Y-17610174D02*
X12243991Y-17629222D01*
X12243991Y-17629222D02*
X12243991Y-17648270D01*
X12243991Y-17648270D02*
X12148753Y-17667317D01*
X12320182Y-17724460D02*
X12339230Y-17733984D01*
X12339230Y-17733984D02*
X12377325Y-17733984D01*
X12377325Y-17733984D02*
X12396372Y-17724460D01*
X12396372Y-17724460D02*
X12405896Y-17705412D01*
X12405896Y-17705412D02*
X12405896Y-17695889D01*
X12405896Y-17695889D02*
X12396372Y-17676841D01*
X12396372Y-17676841D02*
X12377325Y-17667317D01*
X12377325Y-17667317D02*
X12348753Y-17667317D01*
X12348753Y-17667317D02*
X12329706Y-17657793D01*
X12329706Y-17657793D02*
X12320182Y-17638746D01*
X12320182Y-17638746D02*
X12320182Y-17629222D01*
X12320182Y-17629222D02*
X12329706Y-17610174D01*
X12329706Y-17610174D02*
X12348753Y-17600650D01*
X12348753Y-17600650D02*
X12377325Y-17600650D01*
X12377325Y-17600650D02*
X12396372Y-17610174D01*
X12472563Y-17810174D02*
X12482087Y-17800650D01*
X12482087Y-17800650D02*
X12501134Y-17772079D01*
X12501134Y-17772079D02*
X12510658Y-17753031D01*
X12510658Y-17753031D02*
X12520182Y-17724460D01*
X12520182Y-17724460D02*
X12529706Y-17676841D01*
X12529706Y-17676841D02*
X12529706Y-17638746D01*
X12529706Y-17638746D02*
X12520182Y-17591127D01*
X12520182Y-17591127D02*
X12510658Y-17562555D01*
X12510658Y-17562555D02*
X12501134Y-17543508D01*
X12501134Y-17543508D02*
X12482087Y-17514936D01*
X12482087Y-17514936D02*
X12472563Y-17505412D01*
X12834468Y-17810174D02*
X12824944Y-17800650D01*
X12824944Y-17800650D02*
X12805896Y-17772079D01*
X12805896Y-17772079D02*
X12796372Y-17753031D01*
X12796372Y-17753031D02*
X12786849Y-17724460D01*
X12786849Y-17724460D02*
X12777325Y-17676841D01*
X12777325Y-17676841D02*
X12777325Y-17638746D01*
X12777325Y-17638746D02*
X12786849Y-17591127D01*
X12786849Y-17591127D02*
X12796372Y-17562555D01*
X12796372Y-17562555D02*
X12805896Y-17543508D01*
X12805896Y-17543508D02*
X12824944Y-17514936D01*
X12824944Y-17514936D02*
X12834468Y-17505412D01*
X12910658Y-17600650D02*
X12910658Y-17733984D01*
X12910658Y-17619698D02*
X12920182Y-17610174D01*
X12920182Y-17610174D02*
X12939230Y-17600650D01*
X12939230Y-17600650D02*
X12967801Y-17600650D01*
X12967801Y-17600650D02*
X12986849Y-17610174D01*
X12986849Y-17610174D02*
X12996372Y-17629222D01*
X12996372Y-17629222D02*
X12996372Y-17733984D01*
X13120182Y-17733984D02*
X13101134Y-17724460D01*
X13101134Y-17724460D02*
X13091611Y-17714936D01*
X13091611Y-17714936D02*
X13082087Y-17695889D01*
X13082087Y-17695889D02*
X13082087Y-17638746D01*
X13082087Y-17638746D02*
X13091611Y-17619698D01*
X13091611Y-17619698D02*
X13101134Y-17610174D01*
X13101134Y-17610174D02*
X13120182Y-17600650D01*
X13120182Y-17600650D02*
X13148753Y-17600650D01*
X13148753Y-17600650D02*
X13167801Y-17610174D01*
X13167801Y-17610174D02*
X13177325Y-17619698D01*
X13177325Y-17619698D02*
X13186849Y-17638746D01*
X13186849Y-17638746D02*
X13186849Y-17695889D01*
X13186849Y-17695889D02*
X13177325Y-17714936D01*
X13177325Y-17714936D02*
X13167801Y-17724460D01*
X13167801Y-17724460D02*
X13148753Y-17733984D01*
X13148753Y-17733984D02*
X13120182Y-17733984D01*
X13243992Y-17600650D02*
X13320182Y-17600650D01*
X13272563Y-17533984D02*
X13272563Y-17705412D01*
X13272563Y-17705412D02*
X13282087Y-17724460D01*
X13282087Y-17724460D02*
X13301134Y-17733984D01*
X13301134Y-17733984D02*
X13320182Y-17733984D01*
X13539230Y-17600650D02*
X13539230Y-17800650D01*
X13539230Y-17610174D02*
X13558277Y-17600650D01*
X13558277Y-17600650D02*
X13596373Y-17600650D01*
X13596373Y-17600650D02*
X13615420Y-17610174D01*
X13615420Y-17610174D02*
X13624944Y-17619698D01*
X13624944Y-17619698D02*
X13634468Y-17638746D01*
X13634468Y-17638746D02*
X13634468Y-17695889D01*
X13634468Y-17695889D02*
X13624944Y-17714936D01*
X13624944Y-17714936D02*
X13615420Y-17724460D01*
X13615420Y-17724460D02*
X13596373Y-17733984D01*
X13596373Y-17733984D02*
X13558277Y-17733984D01*
X13558277Y-17733984D02*
X13539230Y-17724460D01*
X13748753Y-17733984D02*
X13729706Y-17724460D01*
X13729706Y-17724460D02*
X13720182Y-17705412D01*
X13720182Y-17705412D02*
X13720182Y-17533984D01*
X13910658Y-17733984D02*
X13910658Y-17629222D01*
X13910658Y-17629222D02*
X13901134Y-17610174D01*
X13901134Y-17610174D02*
X13882087Y-17600650D01*
X13882087Y-17600650D02*
X13843992Y-17600650D01*
X13843992Y-17600650D02*
X13824944Y-17610174D01*
X13910658Y-17724460D02*
X13891611Y-17733984D01*
X13891611Y-17733984D02*
X13843992Y-17733984D01*
X13843992Y-17733984D02*
X13824944Y-17724460D01*
X13824944Y-17724460D02*
X13815420Y-17705412D01*
X13815420Y-17705412D02*
X13815420Y-17686365D01*
X13815420Y-17686365D02*
X13824944Y-17667317D01*
X13824944Y-17667317D02*
X13843992Y-17657793D01*
X13843992Y-17657793D02*
X13891611Y-17657793D01*
X13891611Y-17657793D02*
X13910658Y-17648270D01*
X13977325Y-17600650D02*
X14053515Y-17600650D01*
X14005896Y-17533984D02*
X14005896Y-17705412D01*
X14005896Y-17705412D02*
X14015420Y-17724460D01*
X14015420Y-17724460D02*
X14034468Y-17733984D01*
X14034468Y-17733984D02*
X14053515Y-17733984D01*
X14196373Y-17724460D02*
X14177325Y-17733984D01*
X14177325Y-17733984D02*
X14139230Y-17733984D01*
X14139230Y-17733984D02*
X14120182Y-17724460D01*
X14120182Y-17724460D02*
X14110658Y-17705412D01*
X14110658Y-17705412D02*
X14110658Y-17629222D01*
X14110658Y-17629222D02*
X14120182Y-17610174D01*
X14120182Y-17610174D02*
X14139230Y-17600650D01*
X14139230Y-17600650D02*
X14177325Y-17600650D01*
X14177325Y-17600650D02*
X14196373Y-17610174D01*
X14196373Y-17610174D02*
X14205896Y-17629222D01*
X14205896Y-17629222D02*
X14205896Y-17648270D01*
X14205896Y-17648270D02*
X14110658Y-17667317D01*
X14377325Y-17733984D02*
X14377325Y-17533984D01*
X14377325Y-17724460D02*
X14358277Y-17733984D01*
X14358277Y-17733984D02*
X14320182Y-17733984D01*
X14320182Y-17733984D02*
X14301134Y-17724460D01*
X14301134Y-17724460D02*
X14291611Y-17714936D01*
X14291611Y-17714936D02*
X14282087Y-17695889D01*
X14282087Y-17695889D02*
X14282087Y-17638746D01*
X14282087Y-17638746D02*
X14291611Y-17619698D01*
X14291611Y-17619698D02*
X14301134Y-17610174D01*
X14301134Y-17610174D02*
X14320182Y-17600650D01*
X14320182Y-17600650D02*
X14358277Y-17600650D01*
X14358277Y-17600650D02*
X14377325Y-17610174D01*
X14453515Y-17810174D02*
X14463039Y-17800650D01*
X14463039Y-17800650D02*
X14482087Y-17772079D01*
X14482087Y-17772079D02*
X14491611Y-17753031D01*
X14491611Y-17753031D02*
X14501134Y-17724460D01*
X14501134Y-17724460D02*
X14510658Y-17676841D01*
X14510658Y-17676841D02*
X14510658Y-17638746D01*
X14510658Y-17638746D02*
X14501134Y-17591127D01*
X14501134Y-17591127D02*
X14491611Y-17562555D01*
X14491611Y-17562555D02*
X14482087Y-17543508D01*
X14482087Y-17543508D02*
X14463039Y-17514936D01*
X14463039Y-17514936D02*
X14453515Y-17505412D01*
M02*
