%TF.GenerationSoftware,KiCad,Pcbnew,10.0.2*%
%TF.CreationDate,2026-06-01T11:41:39-07:00*%
%TF.ProjectId,nes-dev-cart,6e65732d-6465-4762-9d63-6172742e6b69,4.0*%
%TF.SameCoordinates,Original*%
%TF.FileFunction,Soldermask,Top*%
%TF.FilePolarity,Negative*%
%FSLAX46Y46*%
G04 Gerber Fmt 4.6, Leading zero omitted, Abs format (unit mm)*
G04 Created by KiCad (PCBNEW 10.0.2) date 2026-06-01 11:41:39*
%MOMM*%
%LPD*%
G01*
G04 APERTURE LIST*
G04 Aperture macros list*
%AMRoundRect*
0 Rectangle with rounded corners*
0 $1 Rounding radius*
0 $2 $3 $4 $5 $6 $7 $8 $9 X,Y pos of 4 corners*
0 Add a 4 corners polygon primitive as box body*
4,1,4,$2,$3,$4,$5,$6,$7,$8,$9,$2,$3,0*
0 Add four circle primitives for the rounded corners*
1,1,$1+$1,$2,$3*
1,1,$1+$1,$4,$5*
1,1,$1+$1,$6,$7*
1,1,$1+$1,$8,$9*
0 Add four rect primitives between the rounded corners*
20,1,$1+$1,$2,$3,$4,$5,0*
20,1,$1+$1,$4,$5,$6,$7,0*
20,1,$1+$1,$6,$7,$8,$9,0*
20,1,$1+$1,$8,$9,$2,$3,0*%
G04 Aperture macros list end*
%ADD10RoundRect,0.275500X-0.275500X-0.500500X0.275500X-0.500500X0.275500X0.500500X-0.275500X0.500500X0*%
%ADD11RoundRect,0.275500X-0.500500X-0.275500X0.500500X-0.275500X0.500500X0.275500X-0.500500X0.275500X0*%
%ADD12RoundRect,0.244250X-0.406750X-0.244250X0.406750X-0.244250X0.406750X0.244250X-0.406750X0.244250X0*%
%ADD13RoundRect,0.274878X-0.288622X-0.476122X0.288622X-0.476122X0.288622X0.476122X-0.288622X0.476122X0*%
%ADD14RoundRect,0.269615X-0.556385X-0.431385X0.556385X-0.431385X0.556385X0.431385X-0.556385X0.431385X0*%
%ADD15RoundRect,0.271250X-0.479750X-0.379750X0.479750X-0.379750X0.479750X0.379750X-0.479750X0.379750X0*%
%ADD16RoundRect,0.100500X-0.100500X-0.688000X0.100500X-0.688000X0.100500X0.688000X-0.100500X0.688000X0*%
%ADD17RoundRect,0.250500X-0.250500X-0.400500X0.250500X-0.400500X0.250500X0.400500X-0.250500X0.400500X0*%
%ADD18C,0.752000*%
%ADD19RoundRect,0.175500X-0.175500X-0.600500X0.175500X-0.600500X0.175500X0.600500X-0.175500X0.600500X0*%
%ADD20RoundRect,0.100500X-0.100500X-0.675500X0.100500X-0.675500X0.100500X0.675500X-0.100500X0.675500X0*%
%ADD21O,1.102000X2.202000*%
%ADD22O,1.102000X1.702000*%
%ADD23RoundRect,0.100500X-0.725500X-0.100500X0.725500X-0.100500X0.725500X0.100500X-0.725500X0.100500X0*%
%ADD24RoundRect,0.100500X-0.100500X-0.725500X0.100500X-0.725500X0.100500X0.725500X-0.100500X0.725500X0*%
%ADD25RoundRect,0.175500X-0.850500X-0.175500X0.850500X-0.175500X0.850500X0.175500X-0.850500X0.175500X0*%
%ADD26RoundRect,0.269250X-0.269250X-0.481750X0.269250X-0.481750X0.269250X0.481750X-0.269250X0.481750X0*%
%ADD27RoundRect,0.051000X-0.850000X-0.850000X0.850000X-0.850000X0.850000X0.850000X-0.850000X0.850000X0*%
%ADD28C,1.802000*%
G04 APERTURE END LIST*
G36*
X80250000Y-162500000D02*
G01*
X173750000Y-162500000D01*
X173750000Y-170000000D01*
X80250000Y-170000000D01*
X80250000Y-162500000D01*
G37*
D10*
%TO.C,C18*%
X104050000Y-122000000D03*
X105950000Y-122000000D03*
%TD*%
D11*
%TO.C,C14*%
X112000000Y-107950000D03*
X112000000Y-106050000D03*
%TD*%
D12*
%TO.C,FB1*%
X98000000Y-66062500D03*
X98000000Y-63937500D03*
%TD*%
D10*
%TO.C,C5*%
X90050000Y-153000000D03*
X91950000Y-153000000D03*
%TD*%
D13*
%TO.C,R5*%
X171087500Y-97000000D03*
X172912500Y-97000000D03*
%TD*%
D14*
%TO.C,SW1*%
X109020000Y-125750000D03*
X116980000Y-125750000D03*
X109020000Y-130250000D03*
X116980000Y-130250000D03*
%TD*%
D10*
%TO.C,C13*%
X104050000Y-98000000D03*
X105950000Y-98000000D03*
%TD*%
%TO.C,C1*%
X162050000Y-153000000D03*
X163950000Y-153000000D03*
%TD*%
%TO.C,C11*%
X94050000Y-98000000D03*
X95950000Y-98000000D03*
%TD*%
%TO.C,C9*%
X82050000Y-106000000D03*
X83950000Y-106000000D03*
%TD*%
%TO.C,C6*%
X90050000Y-135000000D03*
X91950000Y-135000000D03*
%TD*%
%TO.C,C3*%
X138050000Y-153000000D03*
X139950000Y-153000000D03*
%TD*%
D13*
%TO.C,R2*%
X85087500Y-125000000D03*
X86912500Y-125000000D03*
%TD*%
D10*
%TO.C,C4*%
X138050000Y-135000000D03*
X139950000Y-135000000D03*
%TD*%
%TO.C,C2*%
X162050000Y-135000000D03*
X163950000Y-135000000D03*
%TD*%
D15*
%TO.C,Y1*%
X84900000Y-110850000D03*
X87100000Y-110850000D03*
X87100000Y-109150000D03*
X84900000Y-109150000D03*
%TD*%
D16*
%TO.C,U2*%
X133250000Y-148712500D03*
X133750000Y-148712500D03*
X134250000Y-148712500D03*
X134750000Y-148712500D03*
X135250000Y-148712500D03*
X135750000Y-148712500D03*
X136250000Y-148712500D03*
X136750000Y-148712500D03*
X137250000Y-148712500D03*
X137750000Y-148712500D03*
X138250000Y-148712500D03*
X138750000Y-148712500D03*
X139250000Y-148712500D03*
X139750000Y-148712500D03*
X140250000Y-148712500D03*
X140750000Y-148712500D03*
X141250000Y-148712500D03*
X141750000Y-148712500D03*
X142250000Y-148712500D03*
X142750000Y-148712500D03*
X143250000Y-148712500D03*
X143750000Y-148712500D03*
X144250000Y-148712500D03*
X144750000Y-148712500D03*
X144750000Y-141287500D03*
X144250000Y-141287500D03*
X143750000Y-141287500D03*
X143250000Y-141287500D03*
X142750000Y-141287500D03*
X142250000Y-141287500D03*
X141750000Y-141287500D03*
X141250000Y-141287500D03*
X140750000Y-141287500D03*
X140250000Y-141287500D03*
X139750000Y-141287500D03*
X139250000Y-141287500D03*
X138750000Y-141287500D03*
X138250000Y-141287500D03*
X137750000Y-141287500D03*
X137250000Y-141287500D03*
X136750000Y-141287500D03*
X136250000Y-141287500D03*
X135750000Y-141287500D03*
X135250000Y-141287500D03*
X134750000Y-141287500D03*
X134250000Y-141287500D03*
X133750000Y-141287500D03*
X133250000Y-141287500D03*
%TD*%
D17*
%TO.C,D2*%
X91350000Y-65000000D03*
X94650000Y-65000000D03*
%TD*%
D16*
%TO.C,U1*%
X157250000Y-148712500D03*
X157750000Y-148712500D03*
X158250000Y-148712500D03*
X158750000Y-148712500D03*
X159250000Y-148712500D03*
X159750000Y-148712500D03*
X160250000Y-148712500D03*
X160750000Y-148712500D03*
X161250000Y-148712500D03*
X161750000Y-148712500D03*
X162250000Y-148712500D03*
X162750000Y-148712500D03*
X163250000Y-148712500D03*
X163750000Y-148712500D03*
X164250000Y-148712500D03*
X164750000Y-148712500D03*
X165250000Y-148712500D03*
X165750000Y-148712500D03*
X166250000Y-148712500D03*
X166750000Y-148712500D03*
X167250000Y-148712500D03*
X167750000Y-148712500D03*
X168250000Y-148712500D03*
X168750000Y-148712500D03*
X168750000Y-141287500D03*
X168250000Y-141287500D03*
X167750000Y-141287500D03*
X167250000Y-141287500D03*
X166750000Y-141287500D03*
X166250000Y-141287500D03*
X165750000Y-141287500D03*
X165250000Y-141287500D03*
X164750000Y-141287500D03*
X164250000Y-141287500D03*
X163750000Y-141287500D03*
X163250000Y-141287500D03*
X162750000Y-141287500D03*
X162250000Y-141287500D03*
X161750000Y-141287500D03*
X161250000Y-141287500D03*
X160750000Y-141287500D03*
X160250000Y-141287500D03*
X159750000Y-141287500D03*
X159250000Y-141287500D03*
X158750000Y-141287500D03*
X158250000Y-141287500D03*
X157750000Y-141287500D03*
X157250000Y-141287500D03*
%TD*%
D18*
%TO.C,J4*%
X165890000Y-90100000D03*
X160110000Y-90100000D03*
D19*
X166250000Y-91545000D03*
X165450000Y-91545000D03*
D20*
X164250000Y-91545000D03*
X163250000Y-91545000D03*
X162750000Y-91545000D03*
X161750000Y-91545000D03*
D19*
X160550000Y-91545000D03*
X159750000Y-91545000D03*
X159750000Y-91545000D03*
X160550000Y-91545000D03*
D20*
X161250000Y-91545000D03*
X162250000Y-91545000D03*
X163750000Y-91545000D03*
X164750000Y-91545000D03*
D19*
X165450000Y-91545000D03*
X166250000Y-91545000D03*
D21*
X167320000Y-90630000D03*
D22*
X167320000Y-86450000D03*
D21*
X158680000Y-90630000D03*
D22*
X158680000Y-86450000D03*
%TD*%
D10*
%TO.C,C7*%
X114050000Y-153000000D03*
X115950000Y-153000000D03*
%TD*%
%TO.C,C10*%
X82050000Y-114000000D03*
X83950000Y-114000000D03*
%TD*%
%TO.C,C20*%
X159050000Y-122000000D03*
X160950000Y-122000000D03*
%TD*%
D23*
%TO.C,U5*%
X94325000Y-106250000D03*
X94325000Y-106750000D03*
X94325000Y-107250000D03*
X94325000Y-107750000D03*
X94325000Y-108250000D03*
X94325000Y-108750000D03*
X94325000Y-109250000D03*
X94325000Y-109750000D03*
X94325000Y-110250000D03*
X94325000Y-110750000D03*
X94325000Y-111250000D03*
X94325000Y-111750000D03*
X94325000Y-112250000D03*
X94325000Y-112750000D03*
X94325000Y-113250000D03*
X94325000Y-113750000D03*
D24*
X96250000Y-115675000D03*
X96750000Y-115675000D03*
X97250000Y-115675000D03*
X97750000Y-115675000D03*
X98250000Y-115675000D03*
X98750000Y-115675000D03*
X99250000Y-115675000D03*
X99750000Y-115675000D03*
X100250000Y-115675000D03*
X100750000Y-115675000D03*
X101250000Y-115675000D03*
X101750000Y-115675000D03*
X102250000Y-115675000D03*
X102750000Y-115675000D03*
X103250000Y-115675000D03*
X103750000Y-115675000D03*
D23*
X105675000Y-113750000D03*
X105675000Y-113250000D03*
X105675000Y-112750000D03*
X105675000Y-112250000D03*
X105675000Y-111750000D03*
X105675000Y-111250000D03*
X105675000Y-110750000D03*
X105675000Y-110250000D03*
X105675000Y-109750000D03*
X105675000Y-109250000D03*
X105675000Y-108750000D03*
X105675000Y-108250000D03*
X105675000Y-107750000D03*
X105675000Y-107250000D03*
X105675000Y-106750000D03*
X105675000Y-106250000D03*
D24*
X103750000Y-104325000D03*
X103250000Y-104325000D03*
X102750000Y-104325000D03*
X102250000Y-104325000D03*
X101750000Y-104325000D03*
X101250000Y-104325000D03*
X100750000Y-104325000D03*
X100250000Y-104325000D03*
X99750000Y-104325000D03*
X99250000Y-104325000D03*
X98750000Y-104325000D03*
X98250000Y-104325000D03*
X97750000Y-104325000D03*
X97250000Y-104325000D03*
X96750000Y-104325000D03*
X96250000Y-104325000D03*
%TD*%
D10*
%TO.C,C17*%
X99050000Y-122000000D03*
X100950000Y-122000000D03*
%TD*%
%TO.C,C8*%
X114050000Y-135000000D03*
X115950000Y-135000000D03*
%TD*%
D16*
%TO.C,U3*%
X85250000Y-148712500D03*
X85750000Y-148712500D03*
X86250000Y-148712500D03*
X86750000Y-148712500D03*
X87250000Y-148712500D03*
X87750000Y-148712500D03*
X88250000Y-148712500D03*
X88750000Y-148712500D03*
X89250000Y-148712500D03*
X89750000Y-148712500D03*
X90250000Y-148712500D03*
X90750000Y-148712500D03*
X91250000Y-148712500D03*
X91750000Y-148712500D03*
X92250000Y-148712500D03*
X92750000Y-148712500D03*
X93250000Y-148712500D03*
X93750000Y-148712500D03*
X94250000Y-148712500D03*
X94750000Y-148712500D03*
X95250000Y-148712500D03*
X95750000Y-148712500D03*
X96250000Y-148712500D03*
X96750000Y-148712500D03*
X96750000Y-141287500D03*
X96250000Y-141287500D03*
X95750000Y-141287500D03*
X95250000Y-141287500D03*
X94750000Y-141287500D03*
X94250000Y-141287500D03*
X93750000Y-141287500D03*
X93250000Y-141287500D03*
X92750000Y-141287500D03*
X92250000Y-141287500D03*
X91750000Y-141287500D03*
X91250000Y-141287500D03*
X90750000Y-141287500D03*
X90250000Y-141287500D03*
X89750000Y-141287500D03*
X89250000Y-141287500D03*
X88750000Y-141287500D03*
X88250000Y-141287500D03*
X87750000Y-141287500D03*
X87250000Y-141287500D03*
X86750000Y-141287500D03*
X86250000Y-141287500D03*
X85750000Y-141287500D03*
X85250000Y-141287500D03*
%TD*%
D10*
%TO.C,C19*%
X159050000Y-108000000D03*
X160950000Y-108000000D03*
%TD*%
D25*
%TO.C,U6*%
X157525000Y-113095000D03*
X157525000Y-114365000D03*
X157525000Y-115635000D03*
X157525000Y-116905000D03*
X162475000Y-116905000D03*
X162475000Y-115635000D03*
X162475000Y-114365000D03*
X162475000Y-113095000D03*
%TD*%
D13*
%TO.C,R4*%
X156087500Y-99000000D03*
X157912500Y-99000000D03*
%TD*%
D10*
%TO.C,C12*%
X99050000Y-98000000D03*
X100950000Y-98000000D03*
%TD*%
%TO.C,C16*%
X94050000Y-122000000D03*
X95950000Y-122000000D03*
%TD*%
D26*
%TO.C,D1*%
X171062500Y-92000000D03*
X172937500Y-92000000D03*
%TD*%
D27*
%TO.C,J5*%
X82000000Y-65000000D03*
D28*
X84540000Y-65000000D03*
X82000000Y-67540000D03*
X84540000Y-67540000D03*
X82000000Y-70080000D03*
X84540000Y-70080000D03*
X82000000Y-72620000D03*
X84540000Y-72620000D03*
X82000000Y-75160000D03*
X84540000Y-75160000D03*
%TD*%
D13*
%TO.C,R3*%
X156087500Y-95000000D03*
X157912500Y-95000000D03*
%TD*%
D16*
%TO.C,U4*%
X109250000Y-148712500D03*
X109750000Y-148712500D03*
X110250000Y-148712500D03*
X110750000Y-148712500D03*
X111250000Y-148712500D03*
X111750000Y-148712500D03*
X112250000Y-148712500D03*
X112750000Y-148712500D03*
X113250000Y-148712500D03*
X113750000Y-148712500D03*
X114250000Y-148712500D03*
X114750000Y-148712500D03*
X115250000Y-148712500D03*
X115750000Y-148712500D03*
X116250000Y-148712500D03*
X116750000Y-148712500D03*
X117250000Y-148712500D03*
X117750000Y-148712500D03*
X118250000Y-148712500D03*
X118750000Y-148712500D03*
X119250000Y-148712500D03*
X119750000Y-148712500D03*
X120250000Y-148712500D03*
X120750000Y-148712500D03*
X120750000Y-141287500D03*
X120250000Y-141287500D03*
X119750000Y-141287500D03*
X119250000Y-141287500D03*
X118750000Y-141287500D03*
X118250000Y-141287500D03*
X117750000Y-141287500D03*
X117250000Y-141287500D03*
X116750000Y-141287500D03*
X116250000Y-141287500D03*
X115750000Y-141287500D03*
X115250000Y-141287500D03*
X114750000Y-141287500D03*
X114250000Y-141287500D03*
X113750000Y-141287500D03*
X113250000Y-141287500D03*
X112750000Y-141287500D03*
X112250000Y-141287500D03*
X111750000Y-141287500D03*
X111250000Y-141287500D03*
X110750000Y-141287500D03*
X110250000Y-141287500D03*
X109750000Y-141287500D03*
X109250000Y-141287500D03*
%TD*%
D13*
%TO.C,R1*%
X85087500Y-120000000D03*
X86912500Y-120000000D03*
%TD*%
D27*
%TO.C,J6*%
X82000000Y-81000000D03*
D28*
X84540000Y-81000000D03*
X82000000Y-83540000D03*
X84540000Y-83540000D03*
X82000000Y-86080000D03*
X84540000Y-86080000D03*
X82000000Y-88620000D03*
X84540000Y-88620000D03*
X82000000Y-91160000D03*
X84540000Y-91160000D03*
%TD*%
D11*
%TO.C,C15*%
X112000000Y-113950000D03*
X112000000Y-112050000D03*
%TD*%
M02*
