M48
; DRILL file KiCad 10.0.2 date 2026-05-31T18:57:10
; FORMAT={-:-/ absolute / metric / decimal}
; #@! TF.CreationDate,2026-05-31T18:57:10-07:00
; #@! TF.GenerationSoftware,Kicad,Pcbnew,10.0.2
; #@! TF.FileFunction,Plated,1,4,PTH
FMAT,2
METRIC
; #@! TA.AperFunction,Plated,PTH,ViaDrill
T1C0.200
; #@! TA.AperFunction,Plated,PTH,ComponentDrill
T2C0.600
; #@! TA.AperFunction,Plated,PTH,ComponentDrill
T3C1.000
%
G90
G05
T1
X80.0Y-100.0
X80.0Y-130.0
X80.0Y-140.0
X80.0Y-150.0
X83.75Y-155.368
X83.95Y-106.0
X83.95Y-114.0
X84.0Y-154.0
X85.0Y-109.0
X85.25Y-141.29
X85.25Y-147.606
X85.642Y-126.024
X85.75Y-155.484
X86.0Y-117.0
X86.0Y-128.0
X86.25Y-152.408
X86.456Y-127.507
X86.75Y-141.29
X86.75Y-148.71
X87.181Y-139.893
X87.2Y-152.869
X87.318Y-151.886
X87.75Y-140.176
X88.75Y-138.928
X88.75Y-156.262
X88.851Y-150.765
X89.0Y-108.0
X89.0Y-112.0
X89.25Y-136.491
X89.291Y-151.554
X89.394Y-149.936
X89.671Y-74.657
X89.722Y-156.138
X89.75Y-141.29
X89.75Y-148.71
X90.25Y-136.1
X90.75Y-140.185
X90.883Y-150.561
X91.157Y-121.944
X91.438Y-150.462
X91.75Y-149.803
X91.95Y-135.0
X91.95Y-153.0
X92.25Y-141.29
X92.25Y-148.71
X92.643Y-110.569
X92.69Y-154.661
X92.75Y-138.696
X93.144Y-151.701
X93.174Y-109.687
X93.225Y-156.645
X93.25Y-140.193
X93.298Y-68.81
X93.601Y-143.533
X93.845Y-154.368
X93.924Y-114.257
X94.25Y-140.196
X94.33Y-106.25
X94.33Y-108.25
X94.33Y-111.25
X94.33Y-112.25
X94.33Y-113.25
X94.65Y-75.712
X94.75Y-138.977
X95.25Y-141.29
X95.25Y-148.71
X95.472Y-153.466
X95.474Y-119.541
X95.75Y-149.817
X95.95Y-98.0
X95.95Y-122.0
X96.25Y-140.154
X96.75Y-141.29
X96.75Y-148.71
X97.183Y-105.983
X97.231Y-155.86
X97.528Y-120.975
X97.53Y-69.311
X97.713Y-149.601
X97.91Y-154.592
X98.121Y-120.985
X99.508Y-149.413
X100.25Y-115.67
X100.95Y-98.0
X100.95Y-122.0
X101.25Y-147.813
X102.75Y-104.33
X103.0Y-140.0
X103.0Y-150.0
X103.25Y-113.768
X103.75Y-105.962
X104.249Y-111.326
X104.85Y-148.01
X105.035Y-114.269
X105.67Y-106.75
X105.67Y-112.75
X105.724Y-156.638
X105.95Y-98.0
X105.95Y-122.0
X106.689Y-156.62
X108.192Y-122.994
X108.322Y-149.728
X108.395Y-107.016
X108.747Y-148.445
X108.75Y-154.768
X108.999Y-106.839
X109.25Y-141.29
X109.766Y-139.582
X110.507Y-155.915
X110.75Y-141.29
X110.75Y-148.71
X110.82Y-149.812
X111.182Y-150.486
X111.687Y-156.326
X112.0Y-106.05
X112.0Y-112.05
X112.0Y-115.267
X112.465Y-156.711
X112.686Y-150.958
X113.0Y-133.0
X113.03Y-153.803
X113.04Y-149.964
X113.47Y-151.742
X113.75Y-141.29
X113.75Y-148.71
X114.25Y-149.817
X114.335Y-155.416
X114.441Y-99.203
X114.453Y-139.973
X114.905Y-139.195
X115.164Y-155.609
X115.319Y-151.528
X115.95Y-135.0
X115.95Y-153.0
X116.25Y-141.29
X116.25Y-148.71
X116.25Y-156.266
X116.672Y-140.009
X117.053Y-91.481
X117.178Y-143.533
X117.197Y-155.628
X117.25Y-149.812
X117.363Y-139.671
X117.623Y-123.613
X118.0Y-78.0
X118.0Y-85.0
X118.0Y-92.0
X118.538Y-115.377
X118.75Y-146.861
X118.965Y-91.236
X119.206Y-153.436
X119.25Y-141.29
X119.25Y-148.71
X120.0Y-72.0
X120.0Y-84.0
X120.0Y-86.0
X120.0Y-98.0
X120.222Y-154.73
X120.312Y-114.012
X120.702Y-79.481
X120.75Y-141.29
X120.75Y-148.71
X121.0Y-85.0
X121.172Y-114.808
X121.21Y-74.0
X121.21Y-88.0
X121.21Y-96.0
X121.464Y-108.111
X121.493Y-113.263
X121.505Y-97.799
X121.682Y-89.758
X122.41Y-74.0
X122.843Y-88.45
X122.929Y-151.335
X122.975Y-109.241
X123.208Y-89.748
X123.21Y-96.0
X123.242Y-92.82
X123.608Y-82.422
X123.61Y-74.0
X123.75Y-154.151
X123.962Y-92.197
X124.0Y-85.0
X124.01Y-88.0
X124.014Y-94.247
X124.142Y-95.908
X124.731Y-95.223
X125.072Y-91.573
X125.209Y-89.718
X125.225Y-88.668
X125.231Y-92.556
X125.499Y-87.791
X126.009Y-80.285
X126.093Y-96.921
X126.318Y-91.701
X126.702Y-92.276
X126.703Y-92.827
X126.958Y-95.529
X127.0Y-85.0
X127.0Y-140.0
X127.0Y-150.0
X127.121Y-81.256
X127.21Y-74.0
X127.509Y-104.175
X127.582Y-77.165
X127.592Y-150.111
X127.61Y-88.0
X127.61Y-96.0
X127.758Y-91.575
X128.01Y-71.678
X128.045Y-78.399
X128.141Y-87.022
X128.374Y-89.746
X128.409Y-78.837
X128.448Y-73.319
X128.808Y-91.168
X128.967Y-66.785
X129.21Y-74.0
X129.285Y-91.969
X129.373Y-82.553
X129.38Y-103.431
X129.386Y-80.714
X129.388Y-116.407
X129.393Y-95.95
X129.534Y-94.605
X129.563Y-77.21
X129.83Y-109.074
X129.841Y-86.535
X129.995Y-78.613
X130.0Y-85.0
X130.01Y-88.0
X130.242Y-92.829
X130.257Y-101.002
X130.41Y-94.266
X130.513Y-96.038
X130.526Y-75.579
X130.94Y-117.944
X131.034Y-91.721
X131.096Y-92.523
X131.192Y-85.787
X131.211Y-75.742
X131.296Y-89.012
X131.375Y-86.535
X131.387Y-94.252
X131.484Y-92.131
X131.602Y-80.718
X131.904Y-95.402
X131.942Y-91.808
X132.011Y-75.754
X132.074Y-87.315
X132.127Y-109.517
X132.346Y-94.827
X132.409Y-77.172
X132.451Y-91.536
X132.711Y-155.922
X132.81Y-74.0
X132.81Y-88.0
X132.81Y-96.0
X133.0Y-85.0
X133.25Y-141.29
X133.772Y-107.115
X134.0Y-72.0
X134.0Y-84.0
X134.0Y-86.0
X134.0Y-98.0
X134.061Y-152.815
X134.105Y-156.192
X134.702Y-156.0
X134.75Y-141.29
X134.75Y-148.71
X134.782Y-108.274
X135.355Y-151.728
X135.667Y-154.241
X135.75Y-149.818
X136.0Y-78.0
X136.0Y-85.0
X136.0Y-92.0
X136.618Y-109.35
X136.75Y-153.919
X137.071Y-100.871
X137.09Y-137.366
X137.498Y-104.816
X137.75Y-141.29
X137.75Y-148.71
X138.26Y-150.673
X138.326Y-147.216
X139.094Y-147.499
X139.299Y-150.509
X139.75Y-147.622
X139.95Y-135.0
X139.95Y-153.0
X140.25Y-141.29
X140.25Y-148.71
X140.326Y-139.73
X140.756Y-143.533
X140.797Y-150.075
X140.877Y-147.607
X141.626Y-152.653
X142.161Y-150.846
X142.25Y-112.392
X142.75Y-114.819
X142.98Y-150.846
X143.25Y-141.29
X143.25Y-148.71
X143.627Y-150.846
X143.75Y-87.913
X143.75Y-169.361
X144.25Y-115.7
X144.251Y-152.798
X144.75Y-141.29
X144.75Y-148.71
X145.326Y-149.264
X146.628Y-151.381
X150.319Y-150.232
X151.0Y-140.0
X151.0Y-150.0
X152.291Y-148.406
X154.673Y-149.363
X155.0Y-93.0
X156.735Y-142.03
X156.746Y-148.713
X156.884Y-94.204
X157.0Y-97.0
X157.25Y-141.29
X157.75Y-115.563
X157.91Y-99.0
X158.25Y-120.521
X158.75Y-141.29
X158.75Y-148.71
X159.419Y-117.923
X159.75Y-122.316
X160.0Y-93.0
X160.047Y-156.185
X160.404Y-154.865
X160.929Y-87.913
X161.185Y-147.34
X161.194Y-136.249
X161.75Y-141.29
X161.75Y-148.71
X162.078Y-150.105
X162.154Y-154.083
X162.75Y-89.97
X162.844Y-123.443
X162.977Y-150.106
X163.25Y-89.441
X163.25Y-147.544
X163.668Y-149.879
X163.75Y-156.638
X163.821Y-140.194
X163.95Y-135.0
X163.95Y-153.0
X164.25Y-94.103
X164.25Y-141.29
X164.25Y-148.71
X164.713Y-122.675
X165.2Y-156.016
X165.259Y-123.647
X165.5Y-124.315
X166.25Y-139.733
X166.25Y-156.648
X166.508Y-125.677
X166.939Y-127.792
X167.25Y-141.29
X167.25Y-148.71
X167.368Y-126.753
X167.75Y-130.271
X168.25Y-142.404
X168.263Y-153.373
X168.75Y-141.29
X168.75Y-148.71
X168.75Y-156.647
X169.91Y-92.092
X170.0Y-93.0
X171.0Y-154.0
X172.609Y-157.002
X174.0Y-92.0
X174.0Y-100.0
X174.0Y-130.0
X175.0Y-140.0
X175.0Y-150.0
T3
X82.0Y-65.0
X82.0Y-67.54
X82.0Y-70.08
X82.0Y-72.62
X82.0Y-75.16
X82.0Y-81.0
X82.0Y-83.54
X82.0Y-86.08
X82.0Y-88.62
X82.0Y-91.16
X84.54Y-65.0
X84.54Y-67.54
X84.54Y-70.08
X84.54Y-72.62
X84.54Y-75.16
X84.54Y-81.0
X84.54Y-83.54
X84.54Y-86.08
X84.54Y-88.62
X84.54Y-91.16
T2
X158.68Y-86.15G85X158.68Y-86.75
G05
X158.68Y-90.08G85X158.68Y-91.18
G05
X167.32Y-86.15G85X167.32Y-86.75
G05
X167.32Y-90.08G85X167.32Y-91.18
G05
M30
