%TF.GenerationSoftware,KiCad,Pcbnew,10.0.2*%
%TF.CreationDate,2026-06-01T11:41:40-07:00*%
%TF.ProjectId,nes-dev-cart,6e65732d-6465-4762-9d63-6172742e6b69,4.0*%
%TF.SameCoordinates,Original*%
%TF.FileFunction,Drillmap*%
%TF.FilePolarity,Positive*%
%FSLAX45Y45*%
G04 Gerber Fmt 4.5, Leading zero omitted, Abs format (unit mm)*
G04 Created by KiCad (PCBNEW 10.0.2) date 2026-06-01 11:41:40*
%MOMM*%
%LPD*%
G01*
G04 APERTURE LIST*
%ADD10C,0.050000*%
%ADD11C,0.200000*%
%ADD12C,0.100000*%
G04 APERTURE END LIST*
D10*
X7700000Y-6000000D02*
X14500000Y-6000000D01*
X7700000Y-15550000D02*
X7700000Y-6000000D01*
X8025000Y-15550000D02*
X7700000Y-15550000D01*
X8025000Y-17000000D02*
X8025000Y-15550000D01*
X14500000Y-6000000D02*
X14500000Y-8550000D01*
X14500000Y-8550000D02*
X17700000Y-8550000D01*
X17375000Y-15550000D02*
X17375000Y-17000000D01*
X17375000Y-17000000D02*
X8025000Y-17000000D01*
X17700000Y-8550000D02*
X17700000Y-15550000D01*
X17700000Y-15550000D02*
X17375000Y-15550000D01*
D11*
D12*
X7990000Y-9990000D02*
X8010000Y-10010000D01*
X8010000Y-9990000D02*
X7990000Y-10010000D01*
X7990000Y-12990000D02*
X8010000Y-13010000D01*
X8010000Y-12990000D02*
X7990000Y-13010000D01*
X7990000Y-13990000D02*
X8010000Y-14010000D01*
X8010000Y-13990000D02*
X7990000Y-14010000D01*
X7990000Y-14990000D02*
X8010000Y-15010000D01*
X8010000Y-14990000D02*
X7990000Y-15010000D01*
X8385000Y-10590000D02*
X8405000Y-10610000D01*
X8405000Y-10590000D02*
X8385000Y-10610000D01*
X8385000Y-11390000D02*
X8405000Y-11410000D01*
X8405000Y-11390000D02*
X8385000Y-11410000D01*
X8390000Y-15390000D02*
X8410000Y-15410000D01*
X8410000Y-15390000D02*
X8390000Y-15410000D01*
X8490000Y-10890000D02*
X8510000Y-10910000D01*
X8510000Y-10890000D02*
X8490000Y-10910000D01*
X8515000Y-14119000D02*
X8535000Y-14139000D01*
X8535000Y-14119000D02*
X8515000Y-14139000D01*
X8590000Y-11690000D02*
X8610000Y-11710000D01*
X8610000Y-11690000D02*
X8590000Y-11710000D01*
X8590000Y-12790000D02*
X8610000Y-12810000D01*
X8610000Y-12790000D02*
X8590000Y-12810000D01*
X8665000Y-14119000D02*
X8685000Y-14139000D01*
X8685000Y-14119000D02*
X8665000Y-14139000D01*
X8665000Y-14861000D02*
X8685000Y-14881000D01*
X8685000Y-14861000D02*
X8665000Y-14881000D01*
X8890000Y-10790000D02*
X8910000Y-10810000D01*
X8910000Y-10790000D02*
X8890000Y-10810000D01*
X8890000Y-11190000D02*
X8910000Y-11210000D01*
X8910000Y-11190000D02*
X8890000Y-11210000D01*
X8965000Y-14119000D02*
X8985000Y-14139000D01*
X8985000Y-14119000D02*
X8965000Y-14139000D01*
X8965000Y-14861000D02*
X8985000Y-14881000D01*
X8985000Y-14861000D02*
X8965000Y-14881000D01*
X9185000Y-13490000D02*
X9205000Y-13510000D01*
X9205000Y-13490000D02*
X9185000Y-13510000D01*
X9185000Y-15290000D02*
X9205000Y-15310000D01*
X9205000Y-15290000D02*
X9185000Y-15310000D01*
X9215000Y-14119000D02*
X9235000Y-14139000D01*
X9235000Y-14119000D02*
X9215000Y-14139000D01*
X9215000Y-14861000D02*
X9235000Y-14881000D01*
X9235000Y-14861000D02*
X9215000Y-14881000D01*
X9423000Y-10615000D02*
X9443000Y-10635000D01*
X9443000Y-10615000D02*
X9423000Y-10635000D01*
X9423000Y-10815000D02*
X9443000Y-10835000D01*
X9443000Y-10815000D02*
X9423000Y-10835000D01*
X9423000Y-11115000D02*
X9443000Y-11135000D01*
X9443000Y-11115000D02*
X9423000Y-11135000D01*
X9423000Y-11215000D02*
X9443000Y-11235000D01*
X9443000Y-11215000D02*
X9423000Y-11235000D01*
X9423000Y-11315000D02*
X9443000Y-11335000D01*
X9443000Y-11315000D02*
X9423000Y-11335000D01*
X9515000Y-14119000D02*
X9535000Y-14139000D01*
X9535000Y-14119000D02*
X9515000Y-14139000D01*
X9515000Y-14861000D02*
X9535000Y-14881000D01*
X9535000Y-14861000D02*
X9515000Y-14881000D01*
X9585000Y-9790000D02*
X9605000Y-9810000D01*
X9605000Y-9790000D02*
X9585000Y-9810000D01*
X9585000Y-12190000D02*
X9605000Y-12210000D01*
X9605000Y-12190000D02*
X9585000Y-12210000D01*
X9665000Y-14119000D02*
X9685000Y-14139000D01*
X9685000Y-14119000D02*
X9665000Y-14139000D01*
X9665000Y-14861000D02*
X9685000Y-14881000D01*
X9685000Y-14861000D02*
X9665000Y-14881000D01*
X10015000Y-11557000D02*
X10035000Y-11577000D01*
X10035000Y-11557000D02*
X10015000Y-11577000D01*
X10085000Y-9790000D02*
X10105000Y-9810000D01*
X10105000Y-9790000D02*
X10085000Y-9810000D01*
X10085000Y-12190000D02*
X10105000Y-12210000D01*
X10105000Y-12190000D02*
X10085000Y-12210000D01*
X10265000Y-10423000D02*
X10285000Y-10443000D01*
X10285000Y-10423000D02*
X10265000Y-10443000D01*
X10290000Y-13990000D02*
X10310000Y-14010000D01*
X10310000Y-13990000D02*
X10290000Y-14010000D01*
X10290000Y-14990000D02*
X10310000Y-15010000D01*
X10310000Y-14990000D02*
X10290000Y-15010000D01*
X10557000Y-10665000D02*
X10577000Y-10685000D01*
X10577000Y-10665000D02*
X10557000Y-10685000D01*
X10557000Y-11265000D02*
X10577000Y-11285000D01*
X10577000Y-11265000D02*
X10557000Y-11285000D01*
X10585000Y-9790000D02*
X10605000Y-9810000D01*
X10605000Y-9790000D02*
X10585000Y-9810000D01*
X10585000Y-12190000D02*
X10605000Y-12210000D01*
X10605000Y-12190000D02*
X10585000Y-12210000D01*
X10915000Y-14119000D02*
X10935000Y-14139000D01*
X10935000Y-14119000D02*
X10915000Y-14139000D01*
X11065000Y-14119000D02*
X11085000Y-14139000D01*
X11085000Y-14119000D02*
X11065000Y-14139000D01*
X11065000Y-14861000D02*
X11085000Y-14881000D01*
X11085000Y-14861000D02*
X11065000Y-14881000D01*
X11190000Y-10595000D02*
X11210000Y-10615000D01*
X11210000Y-10595000D02*
X11190000Y-10615000D01*
X11190000Y-11195000D02*
X11210000Y-11215000D01*
X11210000Y-11195000D02*
X11190000Y-11215000D01*
X11290000Y-13290000D02*
X11310000Y-13310000D01*
X11310000Y-13290000D02*
X11290000Y-13310000D01*
X11365000Y-14119000D02*
X11385000Y-14139000D01*
X11385000Y-14119000D02*
X11365000Y-14139000D01*
X11365000Y-14861000D02*
X11385000Y-14881000D01*
X11385000Y-14861000D02*
X11365000Y-14881000D01*
X11585000Y-13490000D02*
X11605000Y-13510000D01*
X11605000Y-13490000D02*
X11585000Y-13510000D01*
X11585000Y-15290000D02*
X11605000Y-15310000D01*
X11605000Y-15290000D02*
X11585000Y-15310000D01*
X11615000Y-14119000D02*
X11635000Y-14139000D01*
X11635000Y-14119000D02*
X11615000Y-14139000D01*
X11615000Y-14861000D02*
X11635000Y-14881000D01*
X11635000Y-14861000D02*
X11615000Y-14881000D01*
X11790000Y-7790000D02*
X11810000Y-7810000D01*
X11810000Y-7790000D02*
X11790000Y-7810000D01*
X11790000Y-8490000D02*
X11810000Y-8510000D01*
X11810000Y-8490000D02*
X11790000Y-8510000D01*
X11790000Y-9190000D02*
X11810000Y-9210000D01*
X11810000Y-9190000D02*
X11790000Y-9210000D01*
X11915000Y-14119000D02*
X11935000Y-14139000D01*
X11935000Y-14119000D02*
X11915000Y-14139000D01*
X11915000Y-14861000D02*
X11935000Y-14881000D01*
X11935000Y-14861000D02*
X11915000Y-14881000D01*
X11990000Y-7190000D02*
X12010000Y-7210000D01*
X12010000Y-7190000D02*
X11990000Y-7210000D01*
X11990000Y-8390000D02*
X12010000Y-8410000D01*
X12010000Y-8390000D02*
X11990000Y-8410000D01*
X11990000Y-8590000D02*
X12010000Y-8610000D01*
X12010000Y-8590000D02*
X11990000Y-8610000D01*
X11990000Y-9790000D02*
X12010000Y-9810000D01*
X12010000Y-9790000D02*
X11990000Y-9810000D01*
X12065000Y-14119000D02*
X12085000Y-14139000D01*
X12085000Y-14119000D02*
X12065000Y-14139000D01*
X12065000Y-14861000D02*
X12085000Y-14881000D01*
X12085000Y-14861000D02*
X12065000Y-14881000D01*
X12090000Y-8490000D02*
X12110000Y-8510000D01*
X12110000Y-8490000D02*
X12090000Y-8510000D01*
X12111000Y-7390000D02*
X12131000Y-7410000D01*
X12131000Y-7390000D02*
X12111000Y-7410000D01*
X12111000Y-8790000D02*
X12131000Y-8810000D01*
X12131000Y-8790000D02*
X12111000Y-8810000D01*
X12111000Y-9590000D02*
X12131000Y-9610000D01*
X12131000Y-9590000D02*
X12111000Y-9610000D01*
X12231000Y-7390000D02*
X12251000Y-7410000D01*
X12251000Y-7390000D02*
X12231000Y-7410000D01*
X12311000Y-9590000D02*
X12331000Y-9610000D01*
X12331000Y-9590000D02*
X12311000Y-9610000D01*
X12351000Y-7390000D02*
X12371000Y-7410000D01*
X12371000Y-7390000D02*
X12351000Y-7410000D01*
X12390000Y-8490000D02*
X12410000Y-8510000D01*
X12410000Y-8490000D02*
X12390000Y-8510000D01*
X12391000Y-8790000D02*
X12411000Y-8810000D01*
X12411000Y-8790000D02*
X12391000Y-8810000D01*
X12690000Y-8490000D02*
X12710000Y-8510000D01*
X12710000Y-8490000D02*
X12690000Y-8510000D01*
X12690000Y-13990000D02*
X12710000Y-14010000D01*
X12710000Y-13990000D02*
X12690000Y-14010000D01*
X12690000Y-14990000D02*
X12710000Y-15010000D01*
X12710000Y-14990000D02*
X12690000Y-15010000D01*
X12711000Y-7390000D02*
X12731000Y-7410000D01*
X12731000Y-7390000D02*
X12711000Y-7410000D01*
X12751000Y-8790000D02*
X12771000Y-8810000D01*
X12771000Y-8790000D02*
X12751000Y-8810000D01*
X12751000Y-9590000D02*
X12771000Y-9610000D01*
X12771000Y-9590000D02*
X12751000Y-9610000D01*
X12911000Y-7390000D02*
X12931000Y-7410000D01*
X12931000Y-7390000D02*
X12911000Y-7410000D01*
X12990000Y-8490000D02*
X13010000Y-8510000D01*
X13010000Y-8490000D02*
X12990000Y-8510000D01*
X12991000Y-8790000D02*
X13011000Y-8810000D01*
X13011000Y-8790000D02*
X12991000Y-8810000D01*
X13271000Y-7390000D02*
X13291000Y-7410000D01*
X13291000Y-7390000D02*
X13271000Y-7410000D01*
X13271000Y-8790000D02*
X13291000Y-8810000D01*
X13291000Y-8790000D02*
X13271000Y-8810000D01*
X13271000Y-9590000D02*
X13291000Y-9610000D01*
X13291000Y-9590000D02*
X13271000Y-9610000D01*
X13290000Y-8490000D02*
X13310000Y-8510000D01*
X13310000Y-8490000D02*
X13290000Y-8510000D01*
X13315000Y-14119000D02*
X13335000Y-14139000D01*
X13335000Y-14119000D02*
X13315000Y-14139000D01*
X13390000Y-7190000D02*
X13410000Y-7210000D01*
X13410000Y-7190000D02*
X13390000Y-7210000D01*
X13390000Y-8390000D02*
X13410000Y-8410000D01*
X13410000Y-8390000D02*
X13390000Y-8410000D01*
X13390000Y-8590000D02*
X13410000Y-8610000D01*
X13410000Y-8590000D02*
X13390000Y-8610000D01*
X13390000Y-9790000D02*
X13410000Y-9810000D01*
X13410000Y-9790000D02*
X13390000Y-9810000D01*
X13465000Y-14119000D02*
X13485000Y-14139000D01*
X13485000Y-14119000D02*
X13465000Y-14139000D01*
X13465000Y-14861000D02*
X13485000Y-14881000D01*
X13485000Y-14861000D02*
X13465000Y-14881000D01*
X13590000Y-7790000D02*
X13610000Y-7810000D01*
X13610000Y-7790000D02*
X13590000Y-7810000D01*
X13590000Y-8490000D02*
X13610000Y-8510000D01*
X13610000Y-8490000D02*
X13590000Y-8510000D01*
X13590000Y-9190000D02*
X13610000Y-9210000D01*
X13610000Y-9190000D02*
X13590000Y-9210000D01*
X13765000Y-14119000D02*
X13785000Y-14139000D01*
X13785000Y-14119000D02*
X13765000Y-14139000D01*
X13765000Y-14861000D02*
X13785000Y-14881000D01*
X13785000Y-14861000D02*
X13765000Y-14881000D01*
X13985000Y-13490000D02*
X14005000Y-13510000D01*
X14005000Y-13490000D02*
X13985000Y-13510000D01*
X13985000Y-15290000D02*
X14005000Y-15310000D01*
X14005000Y-15290000D02*
X13985000Y-15310000D01*
X14015000Y-14119000D02*
X14035000Y-14139000D01*
X14035000Y-14119000D02*
X14015000Y-14139000D01*
X14015000Y-14861000D02*
X14035000Y-14881000D01*
X14035000Y-14861000D02*
X14015000Y-14881000D01*
X14315000Y-14119000D02*
X14335000Y-14139000D01*
X14335000Y-14119000D02*
X14315000Y-14139000D01*
X14315000Y-14861000D02*
X14335000Y-14881000D01*
X14335000Y-14861000D02*
X14315000Y-14881000D01*
X14465000Y-14119000D02*
X14485000Y-14139000D01*
X14485000Y-14119000D02*
X14465000Y-14139000D01*
X14465000Y-14861000D02*
X14485000Y-14881000D01*
X14485000Y-14861000D02*
X14465000Y-14881000D01*
X15090000Y-13990000D02*
X15110000Y-14010000D01*
X15110000Y-13990000D02*
X15090000Y-14010000D01*
X15090000Y-14990000D02*
X15110000Y-15010000D01*
X15110000Y-14990000D02*
X15090000Y-15010000D01*
X15490000Y-9290000D02*
X15510000Y-9310000D01*
X15510000Y-9290000D02*
X15490000Y-9310000D01*
X15490000Y-11190000D02*
X15510000Y-11210000D01*
X15510000Y-11190000D02*
X15490000Y-11210000D01*
X15490000Y-11790000D02*
X15510000Y-11810000D01*
X15510000Y-11790000D02*
X15490000Y-11810000D01*
X15690000Y-9690000D02*
X15710000Y-9710000D01*
X15710000Y-9690000D02*
X15690000Y-9710000D01*
X15715000Y-14119000D02*
X15735000Y-14139000D01*
X15735000Y-14119000D02*
X15715000Y-14139000D01*
X15742500Y-11680500D02*
X15762500Y-11700500D01*
X15762500Y-11680500D02*
X15742500Y-11700500D01*
X15781000Y-9890000D02*
X15801000Y-9910000D01*
X15801000Y-9890000D02*
X15781000Y-9910000D01*
X15865000Y-14119000D02*
X15885000Y-14139000D01*
X15885000Y-14119000D02*
X15865000Y-14139000D01*
X15865000Y-14861000D02*
X15885000Y-14881000D01*
X15885000Y-14861000D02*
X15865000Y-14881000D01*
X15990000Y-9290000D02*
X16010000Y-9310000D01*
X16010000Y-9290000D02*
X15990000Y-9310000D01*
X16085000Y-10790000D02*
X16105000Y-10810000D01*
X16105000Y-10790000D02*
X16085000Y-10810000D01*
X16085000Y-12190000D02*
X16105000Y-12210000D01*
X16105000Y-12190000D02*
X16085000Y-12210000D01*
X16165000Y-14119000D02*
X16185000Y-14139000D01*
X16185000Y-14119000D02*
X16165000Y-14139000D01*
X16165000Y-14861000D02*
X16185000Y-14881000D01*
X16185000Y-14861000D02*
X16165000Y-14881000D01*
X16385000Y-13490000D02*
X16405000Y-13510000D01*
X16405000Y-13490000D02*
X16385000Y-13510000D01*
X16385000Y-15290000D02*
X16405000Y-15310000D01*
X16405000Y-15290000D02*
X16385000Y-15310000D01*
X16415000Y-14119000D02*
X16435000Y-14139000D01*
X16435000Y-14119000D02*
X16415000Y-14139000D01*
X16415000Y-14861000D02*
X16435000Y-14881000D01*
X16435000Y-14861000D02*
X16415000Y-14881000D01*
X16490000Y-11190000D02*
X16510000Y-11210000D01*
X16510000Y-11190000D02*
X16490000Y-11210000D01*
X16490000Y-11790000D02*
X16510000Y-11810000D01*
X16510000Y-11790000D02*
X16490000Y-11810000D01*
X16715000Y-14119000D02*
X16735000Y-14139000D01*
X16735000Y-14119000D02*
X16715000Y-14139000D01*
X16715000Y-14861000D02*
X16735000Y-14881000D01*
X16735000Y-14861000D02*
X16715000Y-14881000D01*
X16865000Y-14119000D02*
X16885000Y-14139000D01*
X16885000Y-14119000D02*
X16865000Y-14139000D01*
X16865000Y-14861000D02*
X16885000Y-14881000D01*
X16885000Y-14861000D02*
X16865000Y-14881000D01*
X16990000Y-9290000D02*
X17010000Y-9310000D01*
X17010000Y-9290000D02*
X16990000Y-9310000D01*
X17090000Y-15390000D02*
X17110000Y-15410000D01*
X17110000Y-15390000D02*
X17090000Y-15410000D01*
X17390000Y-9190000D02*
X17410000Y-9210000D01*
X17410000Y-9190000D02*
X17390000Y-9210000D01*
X17390000Y-9990000D02*
X17410000Y-10010000D01*
X17410000Y-9990000D02*
X17390000Y-10010000D01*
X17390000Y-12990000D02*
X17410000Y-13010000D01*
X17410000Y-12990000D02*
X17390000Y-13010000D01*
X17490000Y-13990000D02*
X17510000Y-14010000D01*
X17510000Y-13990000D02*
X17490000Y-14010000D01*
X17490000Y-14990000D02*
X17510000Y-15010000D01*
X17510000Y-14990000D02*
X17490000Y-15010000D01*
X8443240Y-11757590D02*
G75*
G02*
X8413240Y-11757590I-15000J0D01*
G01*
X8413240Y-11757590D02*
G75*
G02*
X8443240Y-11757590I15000J0D01*
G01*
X8540000Y-14752110D02*
G75*
G02*
X8510000Y-14752110I-15000J0D01*
G01*
X8510000Y-14752110D02*
G75*
G02*
X8540000Y-14752110I15000J0D01*
G01*
X8640000Y-13004330D02*
G75*
G02*
X8610000Y-13004330I-15000J0D01*
G01*
X8610000Y-13004330D02*
G75*
G02*
X8640000Y-13004330I15000J0D01*
G01*
X8640000Y-15654140D02*
G75*
G02*
X8610000Y-15654140I-15000J0D01*
G01*
X8610000Y-15654140D02*
G75*
G02*
X8640000Y-15654140I15000J0D01*
G01*
X8659950Y-12911860D02*
G75*
G02*
X8629950Y-12911860I-15000J0D01*
G01*
X8629950Y-12911860D02*
G75*
G02*
X8659950Y-12911860I15000J0D01*
G01*
X8790000Y-12928810D02*
G75*
G02*
X8760000Y-12928810I-15000J0D01*
G01*
X8760000Y-12928810D02*
G75*
G02*
X8790000Y-12928810I15000J0D01*
G01*
X8808170Y-15556600D02*
G75*
G02*
X8778170Y-15556600I-15000J0D01*
G01*
X8778170Y-15556600D02*
G75*
G02*
X8808170Y-15556600I15000J0D01*
G01*
X8883290Y-15617140D02*
G75*
G02*
X8853290Y-15617140I-15000J0D01*
G01*
X8853290Y-15617140D02*
G75*
G02*
X8883290Y-15617140I15000J0D01*
G01*
X8891690Y-15062800D02*
G75*
G02*
X8861690Y-15062800I-15000J0D01*
G01*
X8861690Y-15062800D02*
G75*
G02*
X8891690Y-15062800I15000J0D01*
G01*
X8954430Y-14993560D02*
G75*
G02*
X8924430Y-14993560I-15000J0D01*
G01*
X8924430Y-14993560D02*
G75*
G02*
X8954430Y-14993560I15000J0D01*
G01*
X9093020Y-13910160D02*
G75*
G02*
X9063020Y-13910160I-15000J0D01*
G01*
X9063020Y-13910160D02*
G75*
G02*
X9093020Y-13910160I15000J0D01*
G01*
X9094130Y-12187450D02*
G75*
G02*
X9064130Y-12187450I-15000J0D01*
G01*
X9064130Y-12187450D02*
G75*
G02*
X9094130Y-12187450I15000J0D01*
G01*
X9094130Y-15398960D02*
G75*
G02*
X9064130Y-15398960I-15000J0D01*
G01*
X9064130Y-15398960D02*
G75*
G02*
X9094130Y-15398960I15000J0D01*
G01*
X9140000Y-14749920D02*
G75*
G02*
X9110000Y-14749920I-15000J0D01*
G01*
X9110000Y-14749920D02*
G75*
G02*
X9140000Y-14749920I15000J0D01*
G01*
X9146810Y-12395170D02*
G75*
G02*
X9116810Y-12395170I-15000J0D01*
G01*
X9116810Y-12395170D02*
G75*
G02*
X9146810Y-12395170I15000J0D01*
G01*
X9230560Y-14993560D02*
G75*
G02*
X9200560Y-14993560I-15000J0D01*
G01*
X9200560Y-14993560D02*
G75*
G02*
X9230560Y-14993560I15000J0D01*
G01*
X9259940Y-15106530D02*
G75*
G02*
X9229940Y-15106530I-15000J0D01*
G01*
X9229940Y-15106530D02*
G75*
G02*
X9259940Y-15106530I15000J0D01*
G01*
X9281530Y-12852980D02*
G75*
G02*
X9251530Y-12852980I-15000J0D01*
G01*
X9251530Y-12852980D02*
G75*
G02*
X9281530Y-12852980I15000J0D01*
G01*
X9290000Y-13874290D02*
G75*
G02*
X9260000Y-13874290I-15000J0D01*
G01*
X9260000Y-13874290D02*
G75*
G02*
X9290000Y-13874290I15000J0D01*
G01*
X9315130Y-11156710D02*
G75*
G02*
X9285130Y-11156710I-15000J0D01*
G01*
X9285130Y-11156710D02*
G75*
G02*
X9315130Y-11156710I15000J0D01*
G01*
X9329720Y-14991960D02*
G75*
G02*
X9299720Y-14991960I-15000J0D01*
G01*
X9299720Y-14991960D02*
G75*
G02*
X9329720Y-14991960I15000J0D01*
G01*
X9336020Y-12021340D02*
G75*
G02*
X9306020Y-12021340I-15000J0D01*
G01*
X9306020Y-12021340D02*
G75*
G02*
X9336020Y-12021340I15000J0D01*
G01*
X9412710Y-11444950D02*
G75*
G02*
X9382710Y-11444950I-15000J0D01*
G01*
X9382710Y-11444950D02*
G75*
G02*
X9412710Y-11444950I15000J0D01*
G01*
X9434250Y-12325840D02*
G75*
G02*
X9404250Y-12325840I-15000J0D01*
G01*
X9404250Y-12325840D02*
G75*
G02*
X9434250Y-12325840I15000J0D01*
G01*
X9480000Y-7442010D02*
G75*
G02*
X9450000Y-7442010I-15000J0D01*
G01*
X9450000Y-7442010D02*
G75*
G02*
X9480000Y-7442010I15000J0D01*
G01*
X9490160Y-11986220D02*
G75*
G02*
X9460160Y-11986220I-15000J0D01*
G01*
X9460160Y-11986220D02*
G75*
G02*
X9490160Y-11986220I15000J0D01*
G01*
X9522610Y-15062210D02*
G75*
G02*
X9492610Y-15062210I-15000J0D01*
G01*
X9492610Y-15062210D02*
G75*
G02*
X9522610Y-15062210I15000J0D01*
G01*
X9527950Y-12054750D02*
G75*
G02*
X9497950Y-12054750I-15000J0D01*
G01*
X9497950Y-12054750D02*
G75*
G02*
X9527950Y-12054750I15000J0D01*
G01*
X9628990Y-13905550D02*
G75*
G02*
X9598990Y-13905550I-15000J0D01*
G01*
X9598990Y-13905550D02*
G75*
G02*
X9628990Y-13905550I15000J0D01*
G01*
X9634360Y-13980730D02*
G75*
G02*
X9604360Y-13980730I-15000J0D01*
G01*
X9604360Y-13980730D02*
G75*
G02*
X9634360Y-13980730I15000J0D01*
G01*
X9708970Y-11393380D02*
G75*
G02*
X9678970Y-11393380I-15000J0D01*
G01*
X9678970Y-11393380D02*
G75*
G02*
X9708970Y-11393380I15000J0D01*
G01*
X9716020Y-10977740D02*
G75*
G02*
X9686020Y-10977740I-15000J0D01*
G01*
X9686020Y-10977740D02*
G75*
G02*
X9716020Y-10977740I15000J0D01*
G01*
X9734050Y-10588210D02*
G75*
G02*
X9704050Y-10588210I-15000J0D01*
G01*
X9704050Y-10588210D02*
G75*
G02*
X9734050Y-10588210I15000J0D01*
G01*
X9764550Y-11072120D02*
G75*
G02*
X9734550Y-11072120I-15000J0D01*
G01*
X9734550Y-11072120D02*
G75*
G02*
X9764550Y-11072120I15000J0D01*
G01*
X9771470Y-14717460D02*
G75*
G02*
X9741470Y-14717460I-15000J0D01*
G01*
X9741470Y-14717460D02*
G75*
G02*
X9771470Y-14717460I15000J0D01*
G01*
X9776760Y-6742110D02*
G75*
G02*
X9746760Y-6742110I-15000J0D01*
G01*
X9746760Y-6742110D02*
G75*
G02*
X9776760Y-6742110I15000J0D01*
G01*
X9794160Y-14975150D02*
G75*
G02*
X9764160Y-14975150I-15000J0D01*
G01*
X9764160Y-14975150D02*
G75*
G02*
X9794160Y-14975150I15000J0D01*
G01*
X9831780Y-14867150D02*
G75*
G02*
X9801780Y-14867150I-15000J0D01*
G01*
X9801780Y-14867150D02*
G75*
G02*
X9831780Y-14867150I15000J0D01*
G01*
X9955210Y-14953010D02*
G75*
G02*
X9925210Y-14953010I-15000J0D01*
G01*
X9925210Y-14953010D02*
G75*
G02*
X9955210Y-14953010I15000J0D01*
G01*
X9964520Y-13804940D02*
G75*
G02*
X9934520Y-13804940I-15000J0D01*
G01*
X9934520Y-13804940D02*
G75*
G02*
X9964520Y-13804940I15000J0D01*
G01*
X10152670Y-13741190D02*
G75*
G02*
X10122670Y-13741190I-15000J0D01*
G01*
X10122670Y-13741190D02*
G75*
G02*
X10152670Y-13741190I15000J0D01*
G01*
X10161000Y-14705570D02*
G75*
G02*
X10131000Y-14705570I-15000J0D01*
G01*
X10131000Y-14705570D02*
G75*
G02*
X10161000Y-14705570I15000J0D01*
G01*
X10280920Y-15653280D02*
G75*
G02*
X10250920Y-15653280I-15000J0D01*
G01*
X10250920Y-15653280D02*
G75*
G02*
X10280920Y-15653280I15000J0D01*
G01*
X10390000Y-15653540D02*
G75*
G02*
X10360000Y-15653540I-15000J0D01*
G01*
X10360000Y-15653540D02*
G75*
G02*
X10390000Y-15653540I15000J0D01*
G01*
X10423510Y-15520310D02*
G75*
G02*
X10393510Y-15520310I-15000J0D01*
G01*
X10393510Y-15520310D02*
G75*
G02*
X10423510Y-15520310I15000J0D01*
G01*
X10423530Y-11735920D02*
G75*
G02*
X10393530Y-11735920I-15000J0D01*
G01*
X10393530Y-11735920D02*
G75*
G02*
X10423530Y-11735920I15000J0D01*
G01*
X10480470Y-10252040D02*
G75*
G02*
X10450470Y-10252040I-15000J0D01*
G01*
X10450470Y-10252040D02*
G75*
G02*
X10480470Y-10252040I15000J0D01*
G01*
X10640000Y-15644510D02*
G75*
G02*
X10610000Y-15644510I-15000J0D01*
G01*
X10610000Y-15644510D02*
G75*
G02*
X10640000Y-15644510I15000J0D01*
G01*
X10754360Y-11019400D02*
G75*
G02*
X10724360Y-11019400I-15000J0D01*
G01*
X10724360Y-11019400D02*
G75*
G02*
X10754360Y-11019400I15000J0D01*
G01*
X10890000Y-15654490D02*
G75*
G02*
X10860000Y-15654490I-15000J0D01*
G01*
X10860000Y-15654490D02*
G75*
G02*
X10890000Y-15654490I15000J0D01*
G01*
X10897180Y-14763800D02*
G75*
G02*
X10867180Y-14763800I-15000J0D01*
G01*
X10867180Y-14763800D02*
G75*
G02*
X10897180Y-14763800I15000J0D01*
G01*
X10998430Y-12830510D02*
G75*
G02*
X10968430Y-12830510I-15000J0D01*
G01*
X10968430Y-12830510D02*
G75*
G02*
X10998430Y-12830510I15000J0D01*
G01*
X11040000Y-14698290D02*
G75*
G02*
X11010000Y-14698290I-15000J0D01*
G01*
X11010000Y-14698290D02*
G75*
G02*
X11040000Y-14698290I15000J0D01*
G01*
X11128960Y-11481040D02*
G75*
G02*
X11098960Y-11481040I-15000J0D01*
G01*
X11098960Y-11481040D02*
G75*
G02*
X11128960Y-11481040I15000J0D01*
G01*
X11130490Y-14684250D02*
G75*
G02*
X11100490Y-14684250I-15000J0D01*
G01*
X11100490Y-14684250D02*
G75*
G02*
X11130490Y-14684250I15000J0D01*
G01*
X11140000Y-16946100D02*
G75*
G02*
X11110000Y-16946100I-15000J0D01*
G01*
X11110000Y-16946100D02*
G75*
G02*
X11140000Y-16946100I15000J0D01*
G01*
X11240700Y-15217880D02*
G75*
G02*
X11210700Y-15217880I-15000J0D01*
G01*
X11210700Y-15217880D02*
G75*
G02*
X11240700Y-15217880I15000J0D01*
G01*
X11293870Y-15103240D02*
G75*
G02*
X11263870Y-15103240I-15000J0D01*
G01*
X11263870Y-15103240D02*
G75*
G02*
X11293870Y-15103240I15000J0D01*
G01*
X11340000Y-14751950D02*
G75*
G02*
X11310000Y-14751950I-15000J0D01*
G01*
X11310000Y-14751950D02*
G75*
G02*
X11340000Y-14751950I15000J0D01*
G01*
X11345150Y-13980410D02*
G75*
G02*
X11315150Y-13980410I-15000J0D01*
G01*
X11315150Y-13980410D02*
G75*
G02*
X11345150Y-13980410I15000J0D01*
G01*
X11390000Y-16945880D02*
G75*
G02*
X11360000Y-16945880I-15000J0D01*
G01*
X11360000Y-16945880D02*
G75*
G02*
X11390000Y-16945880I15000J0D01*
G01*
X11440000Y-15035390D02*
G75*
G02*
X11410000Y-15035390I-15000J0D01*
G01*
X11410000Y-15035390D02*
G75*
G02*
X11440000Y-15035390I15000J0D01*
G01*
X11609340Y-15076210D02*
G75*
G02*
X11579340Y-15076210I-15000J0D01*
G01*
X11579340Y-15076210D02*
G75*
G02*
X11609340Y-15076210I15000J0D01*
G01*
X11640000Y-15455680D02*
G75*
G02*
X11610000Y-15455680I-15000J0D01*
G01*
X11610000Y-15455680D02*
G75*
G02*
X11640000Y-15455680I15000J0D01*
G01*
X11640000Y-16946150D02*
G75*
G02*
X11610000Y-16946150I-15000J0D01*
G01*
X11610000Y-16946150D02*
G75*
G02*
X11640000Y-16946150I15000J0D01*
G01*
X11733720Y-12386310D02*
G75*
G02*
X11703720Y-12386310I-15000J0D01*
G01*
X11703720Y-12386310D02*
G75*
G02*
X11733720Y-12386310I15000J0D01*
G01*
X11740630Y-15652570D02*
G75*
G02*
X11710630Y-15652570I-15000J0D01*
G01*
X11710630Y-15652570D02*
G75*
G02*
X11740630Y-15652570I15000J0D01*
G01*
X11751250Y-15011660D02*
G75*
G02*
X11721250Y-15011660I-15000J0D01*
G01*
X11721250Y-15011660D02*
G75*
G02*
X11751250Y-15011660I15000J0D01*
G01*
X11751600Y-12267970D02*
G75*
G02*
X11721600Y-12267970I-15000J0D01*
G01*
X11721600Y-12267970D02*
G75*
G02*
X11751600Y-12267970I15000J0D01*
G01*
X11804350Y-12009130D02*
G75*
G02*
X11774350Y-12009130I-15000J0D01*
G01*
X11774350Y-12009130D02*
G75*
G02*
X11804350Y-12009130I15000J0D01*
G01*
X11806820Y-15107690D02*
G75*
G02*
X11776820Y-15107690I-15000J0D01*
G01*
X11776820Y-15107690D02*
G75*
G02*
X11806820Y-15107690I15000J0D01*
G01*
X11840690Y-14990230D02*
G75*
G02*
X11810690Y-14990230I-15000J0D01*
G01*
X11810690Y-14990230D02*
G75*
G02*
X11840690Y-14990230I15000J0D01*
G01*
X11854520Y-11952980D02*
G75*
G02*
X11824520Y-11952980I-15000J0D01*
G01*
X11824520Y-11952980D02*
G75*
G02*
X11854520Y-11952980I15000J0D01*
G01*
X11866750Y-8932080D02*
G75*
G02*
X11836750Y-8932080I-15000J0D01*
G01*
X11836750Y-8932080D02*
G75*
G02*
X11866750Y-8932080I15000J0D01*
G01*
X11928930Y-8195970D02*
G75*
G02*
X11898930Y-8195970I-15000J0D01*
G01*
X11898930Y-8195970D02*
G75*
G02*
X11928930Y-8195970I15000J0D01*
G01*
X12001300Y-9179460D02*
G75*
G02*
X11971300Y-9179460I-15000J0D01*
G01*
X11971300Y-9179460D02*
G75*
G02*
X12001300Y-9179460I15000J0D01*
G01*
X12044560Y-9040000D02*
G75*
G02*
X12014560Y-9040000I-15000J0D01*
G01*
X12014560Y-9040000D02*
G75*
G02*
X12044560Y-9040000I15000J0D01*
G01*
X12047470Y-11716580D02*
G75*
G02*
X12017470Y-11716580I-15000J0D01*
G01*
X12017470Y-11716580D02*
G75*
G02*
X12047470Y-11716580I15000J0D01*
G01*
X12075880Y-15486540D02*
G75*
G02*
X12045880Y-15486540I-15000J0D01*
G01*
X12045880Y-15486540D02*
G75*
G02*
X12075880Y-15486540I15000J0D01*
G01*
X12076790Y-7608790D02*
G75*
G02*
X12046790Y-7608790I-15000J0D01*
G01*
X12046790Y-7608790D02*
G75*
G02*
X12076790Y-7608790I15000J0D01*
G01*
X12079940Y-7954000D02*
G75*
G02*
X12049940Y-7954000I-15000J0D01*
G01*
X12049940Y-7954000D02*
G75*
G02*
X12079940Y-7954000I15000J0D01*
G01*
X12103590Y-13071890D02*
G75*
G02*
X12073590Y-13071890I-15000J0D01*
G01*
X12073590Y-13071890D02*
G75*
G02*
X12103590Y-13071890I15000J0D01*
G01*
X12236250Y-10448820D02*
G75*
G02*
X12206250Y-10448820I-15000J0D01*
G01*
X12206250Y-10448820D02*
G75*
G02*
X12236250Y-10448820I15000J0D01*
G01*
X12255950Y-8923060D02*
G75*
G02*
X12225950Y-8923060I-15000J0D01*
G01*
X12225950Y-8923060D02*
G75*
G02*
X12255950Y-8923060I15000J0D01*
G01*
X12285110Y-9126400D02*
G75*
G02*
X12255110Y-9126400I-15000J0D01*
G01*
X12255110Y-9126400D02*
G75*
G02*
X12285110Y-9126400I15000J0D01*
G01*
X12319090Y-11543340D02*
G75*
G02*
X12289090Y-11543340I-15000J0D01*
G01*
X12289090Y-11543340D02*
G75*
G02*
X12319090Y-11543340I15000J0D01*
G01*
X12329270Y-8965210D02*
G75*
G02*
X12299270Y-8965210I-15000J0D01*
G01*
X12299270Y-8965210D02*
G75*
G02*
X12329270Y-8965210I15000J0D01*
G01*
X12375620Y-9229820D02*
G75*
G02*
X12345620Y-9229820I-15000J0D01*
G01*
X12345620Y-9229820D02*
G75*
G02*
X12375620Y-9229820I15000J0D01*
G01*
X12394610Y-8356050D02*
G75*
G02*
X12364610Y-8356050I-15000J0D01*
G01*
X12364610Y-8356050D02*
G75*
G02*
X12394610Y-8356050I15000J0D01*
G01*
X12422780Y-9809320D02*
G75*
G02*
X12392780Y-9809320I-15000J0D01*
G01*
X12392780Y-9809320D02*
G75*
G02*
X12422780Y-9809320I15000J0D01*
G01*
X12424600Y-8162220D02*
G75*
G02*
X12394600Y-8162220I-15000J0D01*
G01*
X12394600Y-8162220D02*
G75*
G02*
X12424600Y-8162220I15000J0D01*
G01*
X12431910Y-10153080D02*
G75*
G02*
X12401910Y-10153080I-15000J0D01*
G01*
X12401910Y-10153080D02*
G75*
G02*
X12431910Y-10153080I15000J0D01*
G01*
X12433430Y-9162370D02*
G75*
G02*
X12403430Y-9162370I-15000J0D01*
G01*
X12403430Y-9162370D02*
G75*
G02*
X12433430Y-9162370I15000J0D01*
G01*
X12442300Y-9434590D02*
G75*
G02*
X12412300Y-9434590I-15000J0D01*
G01*
X12412300Y-9434590D02*
G75*
G02*
X12442300Y-9434590I15000J0D01*
G01*
X12450330Y-8304020D02*
G75*
G02*
X12420330Y-8304020I-15000J0D01*
G01*
X12420330Y-8304020D02*
G75*
G02*
X12450330Y-8304020I15000J0D01*
G01*
X12450650Y-10530600D02*
G75*
G02*
X12420650Y-10530600I-15000J0D01*
G01*
X12420650Y-10530600D02*
G75*
G02*
X12450650Y-10530600I15000J0D01*
G01*
X12450650Y-11392350D02*
G75*
G02*
X12420650Y-11392350I-15000J0D01*
G01*
X12420650Y-11392350D02*
G75*
G02*
X12450650Y-11392350I15000J0D01*
G01*
X12450650Y-11659520D02*
G75*
G02*
X12420650Y-11659520I-15000J0D01*
G01*
X12420650Y-11659520D02*
G75*
G02*
X12450650Y-11659520I15000J0D01*
G01*
X12450800Y-9252170D02*
G75*
G02*
X12420800Y-9252170I-15000J0D01*
G01*
X12420800Y-9252170D02*
G75*
G02*
X12450800Y-9252170I15000J0D01*
G01*
X12453510Y-14990120D02*
G75*
G02*
X12423510Y-14990120I-15000J0D01*
G01*
X12423510Y-14990120D02*
G75*
G02*
X12453510Y-14990120I15000J0D01*
G01*
X12494280Y-8092550D02*
G75*
G02*
X12464280Y-8092550I-15000J0D01*
G01*
X12464280Y-8092550D02*
G75*
G02*
X12494280Y-8092550I15000J0D01*
G01*
X12518760Y-7817030D02*
G75*
G02*
X12488760Y-7817030I-15000J0D01*
G01*
X12488760Y-7817030D02*
G75*
G02*
X12518760Y-7817030I15000J0D01*
G01*
X12599070Y-8183900D02*
G75*
G02*
X12569070Y-8183900I-15000J0D01*
G01*
X12569070Y-8183900D02*
G75*
G02*
X12599070Y-8183900I15000J0D01*
G01*
X12638550Y-10359720D02*
G75*
G02*
X12608550Y-10359720I-15000J0D01*
G01*
X12608550Y-10359720D02*
G75*
G02*
X12638550Y-10359720I15000J0D01*
G01*
X12666030Y-8395730D02*
G75*
G02*
X12636030Y-8395730I-15000J0D01*
G01*
X12636030Y-8395730D02*
G75*
G02*
X12666030Y-8395730I15000J0D01*
G01*
X12672380Y-10090260D02*
G75*
G02*
X12642380Y-10090260I-15000J0D01*
G01*
X12642380Y-10090260D02*
G75*
G02*
X12672380Y-10090260I15000J0D01*
G01*
X12675060Y-8150570D02*
G75*
G02*
X12645060Y-8150570I-15000J0D01*
G01*
X12645060Y-8150570D02*
G75*
G02*
X12675060Y-8150570I15000J0D01*
G01*
X12679420Y-8888380D02*
G75*
G02*
X12649420Y-8888380I-15000J0D01*
G01*
X12649420Y-8888380D02*
G75*
G02*
X12679420Y-8888380I15000J0D01*
G01*
X12691920Y-8963560D02*
G75*
G02*
X12661920Y-8963560I-15000J0D01*
G01*
X12661920Y-8963560D02*
G75*
G02*
X12691920Y-8963560I15000J0D01*
G01*
X12718370Y-9181970D02*
G75*
G02*
X12688370Y-9181970I-15000J0D01*
G01*
X12688370Y-9181970D02*
G75*
G02*
X12718370Y-9181970I15000J0D01*
G01*
X12718370Y-9260150D02*
G75*
G02*
X12688370Y-9260150I-15000J0D01*
G01*
X12688370Y-9260150D02*
G75*
G02*
X12718370Y-9260150I15000J0D01*
G01*
X12720370Y-7817030D02*
G75*
G02*
X12690370Y-7817030I-15000J0D01*
G01*
X12690370Y-7817030D02*
G75*
G02*
X12720370Y-7817030I15000J0D01*
G01*
X12722090Y-8667290D02*
G75*
G02*
X12692090Y-8667290I-15000J0D01*
G01*
X12692090Y-8667290D02*
G75*
G02*
X12722090Y-8667290I15000J0D01*
G01*
X12755220Y-11391510D02*
G75*
G02*
X12725220Y-11391510I-15000J0D01*
G01*
X12725220Y-11391510D02*
G75*
G02*
X12755220Y-11391510I15000J0D01*
G01*
X12767350Y-9738690D02*
G75*
G02*
X12737350Y-9738690I-15000J0D01*
G01*
X12737350Y-9738690D02*
G75*
G02*
X12767350Y-9738690I15000J0D01*
G01*
X12785380Y-8571380D02*
G75*
G02*
X12755380Y-8571380I-15000J0D01*
G01*
X12755380Y-8571380D02*
G75*
G02*
X12785380Y-8571380I15000J0D01*
G01*
X12792760Y-7740420D02*
G75*
G02*
X12762760Y-7740420I-15000J0D01*
G01*
X12762760Y-7740420D02*
G75*
G02*
X12792760Y-7740420I15000J0D01*
G01*
X12816020Y-7031250D02*
G75*
G02*
X12786020Y-7031250I-15000J0D01*
G01*
X12786020Y-7031250D02*
G75*
G02*
X12816020Y-7031250I15000J0D01*
G01*
X12823720Y-9235980D02*
G75*
G02*
X12793720Y-9235980I-15000J0D01*
G01*
X12793720Y-9235980D02*
G75*
G02*
X12823720Y-9235980I15000J0D01*
G01*
X12838380Y-8858400D02*
G75*
G02*
X12808380Y-8858400I-15000J0D01*
G01*
X12808380Y-8858400D02*
G75*
G02*
X12838380Y-8858400I15000J0D01*
G01*
X12855900Y-8181980D02*
G75*
G02*
X12825900Y-8181980I-15000J0D01*
G01*
X12825900Y-8181980D02*
G75*
G02*
X12855900Y-8181980I15000J0D01*
G01*
X12867940Y-7728310D02*
G75*
G02*
X12837940Y-7728310I-15000J0D01*
G01*
X12837940Y-7728310D02*
G75*
G02*
X12867940Y-7728310I15000J0D01*
G01*
X12886290Y-6703950D02*
G75*
G02*
X12856290Y-6703950I-15000J0D01*
G01*
X12856290Y-6703950D02*
G75*
G02*
X12886290Y-6703950I15000J0D01*
G01*
X12896030Y-11969810D02*
G75*
G02*
X12866030Y-11969810I-15000J0D01*
G01*
X12866030Y-11969810D02*
G75*
G02*
X12896030Y-11969810I15000J0D01*
G01*
X12905060Y-8817530D02*
G75*
G02*
X12875060Y-8817530I-15000J0D01*
G01*
X12875060Y-8817530D02*
G75*
G02*
X12905060Y-8817530I15000J0D01*
G01*
X12911360Y-8107800D02*
G75*
G02*
X12881360Y-8107800I-15000J0D01*
G01*
X12881360Y-8107800D02*
G75*
G02*
X12911360Y-8107800I15000J0D01*
G01*
X12927880Y-9190640D02*
G75*
G02*
X12897880Y-9190640I-15000J0D01*
G01*
X12897880Y-9190640D02*
G75*
G02*
X12927880Y-9190640I15000J0D01*
G01*
X12928150Y-7870820D02*
G75*
G02*
X12898150Y-7870820I-15000J0D01*
G01*
X12898150Y-7870820D02*
G75*
G02*
X12928150Y-7870820I15000J0D01*
G01*
X12935910Y-9272670D02*
G75*
G02*
X12905910Y-9272670I-15000J0D01*
G01*
X12905910Y-9272670D02*
G75*
G02*
X12935910Y-9272670I15000J0D01*
G01*
X12963040Y-9442680D02*
G75*
G02*
X12933040Y-9442680I-15000J0D01*
G01*
X12933040Y-9442680D02*
G75*
G02*
X12963040Y-9442680I15000J0D01*
G01*
X12989490Y-7561510D02*
G75*
G02*
X12959490Y-7561510I-15000J0D01*
G01*
X12959490Y-7561510D02*
G75*
G02*
X12989490Y-7561510I15000J0D01*
G01*
X12999830Y-9577800D02*
G75*
G02*
X12969830Y-9577800I-15000J0D01*
G01*
X12969830Y-9577800D02*
G75*
G02*
X12999830Y-9577800I15000J0D01*
G01*
X13014940Y-9127410D02*
G75*
G02*
X12984940Y-9127410I-15000J0D01*
G01*
X12984940Y-9127410D02*
G75*
G02*
X13014940Y-9127410I15000J0D01*
G01*
X13056050Y-9506830D02*
G75*
G02*
X13026050Y-9506830I-15000J0D01*
G01*
X13026050Y-9506830D02*
G75*
G02*
X13056050Y-9506830I15000J0D01*
G01*
X13056430Y-7778940D02*
G75*
G02*
X13026430Y-7778940I-15000J0D01*
G01*
X13026430Y-7778940D02*
G75*
G02*
X13056430Y-7778940I15000J0D01*
G01*
X13074260Y-8105480D02*
G75*
G02*
X13044260Y-8105480I-15000J0D01*
G01*
X13044260Y-8105480D02*
G75*
G02*
X13074260Y-8105480I15000J0D01*
G01*
X13076810Y-7548750D02*
G75*
G02*
X13046810Y-7548750I-15000J0D01*
G01*
X13046810Y-7548750D02*
G75*
G02*
X13076810Y-7548750I15000J0D01*
G01*
X13119720Y-13555290D02*
G75*
G02*
X13089720Y-13555290I-15000J0D01*
G01*
X13089720Y-13555290D02*
G75*
G02*
X13119720Y-13555290I15000J0D01*
G01*
X13136060Y-7748060D02*
G75*
G02*
X13106060Y-7748060I-15000J0D01*
G01*
X13106060Y-7748060D02*
G75*
G02*
X13136060Y-7748060I15000J0D01*
G01*
X13136210Y-9128880D02*
G75*
G02*
X13106210Y-9128880I-15000J0D01*
G01*
X13106210Y-9128880D02*
G75*
G02*
X13136210Y-9128880I15000J0D01*
G01*
X13150630Y-8076560D02*
G75*
G02*
X13120630Y-8076560I-15000J0D01*
G01*
X13120630Y-8076560D02*
G75*
G02*
X13150630Y-8076560I15000J0D01*
G01*
X13175940Y-7817400D02*
G75*
G02*
X13145940Y-7817400I-15000J0D01*
G01*
X13145940Y-7817400D02*
G75*
G02*
X13175940Y-7817400I15000J0D01*
G01*
X13177400Y-9680270D02*
G75*
G02*
X13147400Y-9680270I-15000J0D01*
G01*
X13147400Y-9680270D02*
G75*
G02*
X13177400Y-9680270I15000J0D01*
G01*
X13182220Y-14890010D02*
G75*
G02*
X13152220Y-14890010I-15000J0D01*
G01*
X13152220Y-14890010D02*
G75*
G02*
X13182220Y-14890010I15000J0D01*
G01*
X13216070Y-7474360D02*
G75*
G02*
X13186070Y-7474360I-15000J0D01*
G01*
X13186070Y-7474360D02*
G75*
G02*
X13216070Y-7474360I15000J0D01*
G01*
X13226610Y-8075790D02*
G75*
G02*
X13196610Y-8075790I-15000J0D01*
G01*
X13196610Y-8075790D02*
G75*
G02*
X13226610Y-8075790I15000J0D01*
G01*
X13232700Y-7871050D02*
G75*
G02*
X13202700Y-7871050I-15000J0D01*
G01*
X13202700Y-7871050D02*
G75*
G02*
X13232700Y-7871050I15000J0D01*
G01*
X13440000Y-14996720D02*
G75*
G02*
X13410000Y-14996720I-15000J0D01*
G01*
X13410000Y-14996720D02*
G75*
G02*
X13440000Y-14996720I15000J0D01*
G01*
X13446410Y-12022900D02*
G75*
G02*
X13416410Y-12022900I-15000J0D01*
G01*
X13416410Y-12022900D02*
G75*
G02*
X13446410Y-12022900I15000J0D01*
G01*
X13484730Y-13966140D02*
G75*
G02*
X13454730Y-13966140I-15000J0D01*
G01*
X13454730Y-13966140D02*
G75*
G02*
X13484730Y-13966140I15000J0D01*
G01*
X13590000Y-14751690D02*
G75*
G02*
X13560000Y-14751690I-15000J0D01*
G01*
X13560000Y-14751690D02*
G75*
G02*
X13590000Y-14751690I15000J0D01*
G01*
X13617200Y-9277590D02*
G75*
G02*
X13587200Y-9277590I-15000J0D01*
G01*
X13587200Y-9277590D02*
G75*
G02*
X13617200Y-9277590I15000J0D01*
G01*
X13640000Y-15622540D02*
G75*
G02*
X13610000Y-15622540I-15000J0D01*
G01*
X13610000Y-15622540D02*
G75*
G02*
X13640000Y-15622540I15000J0D01*
G01*
X13680660Y-13967670D02*
G75*
G02*
X13650660Y-13967670I-15000J0D01*
G01*
X13650660Y-13967670D02*
G75*
G02*
X13680660Y-13967670I15000J0D01*
G01*
X13716620Y-12169660D02*
G75*
G02*
X13686620Y-12169660I-15000J0D01*
G01*
X13686620Y-12169660D02*
G75*
G02*
X13716620Y-12169660I15000J0D01*
G01*
X13740000Y-14751020D02*
G75*
G02*
X13710000Y-14751020I-15000J0D01*
G01*
X13710000Y-14751020D02*
G75*
G02*
X13740000Y-14751020I15000J0D01*
G01*
X13797980Y-15029420D02*
G75*
G02*
X13767980Y-15029420I-15000J0D01*
G01*
X13767980Y-15029420D02*
G75*
G02*
X13797980Y-15029420I15000J0D01*
G01*
X13840000Y-14751410D02*
G75*
G02*
X13810000Y-14751410I-15000J0D01*
G01*
X13810000Y-14751410D02*
G75*
G02*
X13840000Y-14751410I15000J0D01*
G01*
X13902160Y-12314240D02*
G75*
G02*
X13872160Y-12314240I-15000J0D01*
G01*
X13872160Y-12314240D02*
G75*
G02*
X13902160Y-12314240I15000J0D01*
G01*
X13913570Y-15026690D02*
G75*
G02*
X13883570Y-15026690I-15000J0D01*
G01*
X13883570Y-15026690D02*
G75*
G02*
X13913570Y-15026690I15000J0D01*
G01*
X13926930Y-15184660D02*
G75*
G02*
X13896930Y-15184660I-15000J0D01*
G01*
X13896930Y-15184660D02*
G75*
G02*
X13926930Y-15184660I15000J0D01*
G01*
X13990000Y-15026690D02*
G75*
G02*
X13960000Y-15026690I-15000J0D01*
G01*
X13960000Y-15026690D02*
G75*
G02*
X13990000Y-15026690I15000J0D01*
G01*
X14026330Y-12440940D02*
G75*
G02*
X13996330Y-12440940I-15000J0D01*
G01*
X13996330Y-12440940D02*
G75*
G02*
X14026330Y-12440940I15000J0D01*
G01*
X14069730Y-15599620D02*
G75*
G02*
X14039730Y-15599620I-15000J0D01*
G01*
X14039730Y-15599620D02*
G75*
G02*
X14069730Y-15599620I15000J0D01*
G01*
X14079890Y-15026690D02*
G75*
G02*
X14049890Y-15026690I-15000J0D01*
G01*
X14049890Y-15026690D02*
G75*
G02*
X14079890Y-15026690I15000J0D01*
G01*
X14085610Y-11951420D02*
G75*
G02*
X14055610Y-11951420I-15000J0D01*
G01*
X14055610Y-11951420D02*
G75*
G02*
X14085610Y-11951420I15000J0D01*
G01*
X14131880Y-10793780D02*
G75*
G02*
X14101880Y-10793780I-15000J0D01*
G01*
X14101880Y-10793780D02*
G75*
G02*
X14131880Y-10793780I15000J0D01*
G01*
X14140000Y-15304030D02*
G75*
G02*
X14110000Y-15304030I-15000J0D01*
G01*
X14110000Y-15304030D02*
G75*
G02*
X14140000Y-15304030I15000J0D01*
G01*
X14150630Y-12840990D02*
G75*
G02*
X14120630Y-12840990I-15000J0D01*
G01*
X14120630Y-12840990D02*
G75*
G02*
X14150630Y-12840990I15000J0D01*
G01*
X14206970Y-10943360D02*
G75*
G02*
X14176970Y-10943360I-15000J0D01*
G01*
X14176970Y-10943360D02*
G75*
G02*
X14206970Y-10943360I15000J0D01*
G01*
X14235670Y-15229910D02*
G75*
G02*
X14205670Y-15229910I-15000J0D01*
G01*
X14205670Y-15229910D02*
G75*
G02*
X14235670Y-15229910I15000J0D01*
G01*
X14270750Y-12594560D02*
G75*
G02*
X14240750Y-12594560I-15000J0D01*
G01*
X14240750Y-12594560D02*
G75*
G02*
X14270750Y-12594560I15000J0D01*
G01*
X14290000Y-15282900D02*
G75*
G02*
X14260000Y-15282900I-15000J0D01*
G01*
X14260000Y-15282900D02*
G75*
G02*
X14290000Y-15282900I15000J0D01*
G01*
X14330550Y-14009240D02*
G75*
G02*
X14300550Y-14009240I-15000J0D01*
G01*
X14300550Y-14009240D02*
G75*
G02*
X14330550Y-14009240I15000J0D01*
G01*
X14383770Y-11060900D02*
G75*
G02*
X14353770Y-11060900I-15000J0D01*
G01*
X14353770Y-11060900D02*
G75*
G02*
X14383770Y-11060900I15000J0D01*
G01*
X14390000Y-15257780D02*
G75*
G02*
X14360000Y-15257780I-15000J0D01*
G01*
X14360000Y-15257780D02*
G75*
G02*
X14390000Y-15257780I15000J0D01*
G01*
X14440520Y-11445920D02*
G75*
G02*
X14410520Y-11445920I-15000J0D01*
G01*
X14410520Y-11445920D02*
G75*
G02*
X14440520Y-11445920I15000J0D01*
G01*
X14499100Y-14991800D02*
G75*
G02*
X14469100Y-14991800I-15000J0D01*
G01*
X14469100Y-14991800D02*
G75*
G02*
X14499100Y-14991800I15000J0D01*
G01*
X14565940Y-11527940D02*
G75*
G02*
X14535940Y-11527940I-15000J0D01*
G01*
X14535940Y-11527940D02*
G75*
G02*
X14565940Y-11527940I15000J0D01*
G01*
X14876640Y-14943740D02*
G75*
G02*
X14846640Y-14943740I-15000J0D01*
G01*
X14846640Y-14943740D02*
G75*
G02*
X14876640Y-14943740I15000J0D01*
G01*
X15204610Y-14911040D02*
G75*
G02*
X15174610Y-14911040I-15000J0D01*
G01*
X15174610Y-14911040D02*
G75*
G02*
X15204610Y-14911040I15000J0D01*
G01*
X15204680Y-13774890D02*
G75*
G02*
X15174680Y-13774890I-15000J0D01*
G01*
X15174680Y-13774890D02*
G75*
G02*
X15204680Y-13774890I15000J0D01*
G01*
X15269480Y-8862090D02*
G75*
G02*
X15239480Y-8862090I-15000J0D01*
G01*
X15239480Y-8862090D02*
G75*
G02*
X15269480Y-8862090I15000J0D01*
G01*
X15452810Y-8862090D02*
G75*
G02*
X15422810Y-8862090I-15000J0D01*
G01*
X15422810Y-8862090D02*
G75*
G02*
X15452810Y-8862090I15000J0D01*
G01*
X15557670Y-8922530D02*
G75*
G02*
X15527670Y-8922530I-15000J0D01*
G01*
X15527670Y-8922530D02*
G75*
G02*
X15557670Y-8922530I15000J0D01*
G01*
X15602880Y-11563500D02*
G75*
G02*
X15572880Y-11563500I-15000J0D01*
G01*
X15572880Y-11563500D02*
G75*
G02*
X15602880Y-11563500I15000J0D01*
G01*
X15607000Y-11285540D02*
G75*
G02*
X15577000Y-11285540I-15000J0D01*
G01*
X15577000Y-11285540D02*
G75*
G02*
X15607000Y-11285540I15000J0D01*
G01*
X15620560Y-15065470D02*
G75*
G02*
X15590560Y-15065470I-15000J0D01*
G01*
X15590560Y-15065470D02*
G75*
G02*
X15620560Y-15065470I15000J0D01*
G01*
X15656070Y-13964530D02*
G75*
G02*
X15626070Y-13964530I-15000J0D01*
G01*
X15626070Y-13964530D02*
G75*
G02*
X15656070Y-13964530I15000J0D01*
G01*
X15675230Y-14902670D02*
G75*
G02*
X15645230Y-14902670I-15000J0D01*
G01*
X15645230Y-14902670D02*
G75*
G02*
X15675230Y-14902670I15000J0D01*
G01*
X15840000Y-13981010D02*
G75*
G02*
X15810000Y-13981010I-15000J0D01*
G01*
X15810000Y-13981010D02*
G75*
G02*
X15840000Y-13981010I15000J0D01*
G01*
X15916760Y-14720250D02*
G75*
G02*
X15886760Y-14720250I-15000J0D01*
G01*
X15886760Y-14720250D02*
G75*
G02*
X15916760Y-14720250I15000J0D01*
G01*
X16014030Y-15079900D02*
G75*
G02*
X15984030Y-15079900I-15000J0D01*
G01*
X15984030Y-15079900D02*
G75*
G02*
X16014030Y-15079900I15000J0D01*
G01*
X16040130Y-15613580D02*
G75*
G02*
X16010130Y-15613580I-15000J0D01*
G01*
X16010130Y-15613580D02*
G75*
G02*
X16040130Y-15613580I15000J0D01*
G01*
X16093730Y-13965000D02*
G75*
G02*
X16063730Y-13965000I-15000J0D01*
G01*
X16063730Y-13965000D02*
G75*
G02*
X16093730Y-13965000I15000J0D01*
G01*
X16093920Y-15074520D02*
G75*
G02*
X16063920Y-15074520I-15000J0D01*
G01*
X16063920Y-15074520D02*
G75*
G02*
X16093920Y-15074520I15000J0D01*
G01*
X16108430Y-8896080D02*
G75*
G02*
X16078430Y-8896080I-15000J0D01*
G01*
X16078430Y-8896080D02*
G75*
G02*
X16108430Y-8896080I15000J0D01*
G01*
X16119700Y-11467950D02*
G75*
G02*
X16089700Y-11467950I-15000J0D01*
G01*
X16089700Y-11467950D02*
G75*
G02*
X16119700Y-11467950I15000J0D01*
G01*
X16140000Y-15606960D02*
G75*
G02*
X16110000Y-15606960I-15000J0D01*
G01*
X16110000Y-15606960D02*
G75*
G02*
X16140000Y-15606960I15000J0D01*
G01*
X16214590Y-15028720D02*
G75*
G02*
X16184590Y-15028720I-15000J0D01*
G01*
X16184590Y-15028720D02*
G75*
G02*
X16214590Y-15028720I15000J0D01*
G01*
X16238410Y-9447130D02*
G75*
G02*
X16208410Y-9447130I-15000J0D01*
G01*
X16208410Y-9447130D02*
G75*
G02*
X16238410Y-9447130I15000J0D01*
G01*
X16268500Y-13992830D02*
G75*
G02*
X16238500Y-13992830I-15000J0D01*
G01*
X16238500Y-13992830D02*
G75*
G02*
X16268500Y-13992830I15000J0D01*
G01*
X16287780Y-15563240D02*
G75*
G02*
X16257780Y-15563240I-15000J0D01*
G01*
X16257780Y-15563240D02*
G75*
G02*
X16287780Y-15563240I15000J0D01*
G01*
X16290000Y-14248460D02*
G75*
G02*
X16260000Y-14248460I-15000J0D01*
G01*
X16260000Y-14248460D02*
G75*
G02*
X16290000Y-14248460I15000J0D01*
G01*
X16298050Y-12797830D02*
G75*
G02*
X16268050Y-12797830I-15000J0D01*
G01*
X16268050Y-12797830D02*
G75*
G02*
X16298050Y-12797830I15000J0D01*
G01*
X16340120Y-9345580D02*
G75*
G02*
X16310120Y-9345580I-15000J0D01*
G01*
X16310120Y-9345580D02*
G75*
G02*
X16340120Y-9345580I15000J0D01*
G01*
X16390160Y-13918230D02*
G75*
G02*
X16360160Y-13918230I-15000J0D01*
G01*
X16360160Y-13918230D02*
G75*
G02*
X16390160Y-13918230I15000J0D01*
G01*
X16416320Y-15627550D02*
G75*
G02*
X16386320Y-15627550I-15000J0D01*
G01*
X16386320Y-15627550D02*
G75*
G02*
X16416320Y-15627550I15000J0D01*
G01*
X16485610Y-13994970D02*
G75*
G02*
X16455610Y-13994970I-15000J0D01*
G01*
X16455610Y-13994970D02*
G75*
G02*
X16485610Y-13994970I15000J0D01*
G01*
X16515290Y-15659850D02*
G75*
G02*
X16485290Y-15659850I-15000J0D01*
G01*
X16485290Y-15659850D02*
G75*
G02*
X16515290Y-15659850I15000J0D01*
G01*
X16531540Y-11514790D02*
G75*
G02*
X16501540Y-11514790I-15000J0D01*
G01*
X16501540Y-11514790D02*
G75*
G02*
X16531540Y-11514790I15000J0D01*
G01*
X16540000Y-12027630D02*
G75*
G02*
X16510000Y-12027630I-15000J0D01*
G01*
X16510000Y-12027630D02*
G75*
G02*
X16540000Y-12027630I15000J0D01*
G01*
X16640000Y-12198900D02*
G75*
G02*
X16610000Y-12198900I-15000J0D01*
G01*
X16610000Y-12198900D02*
G75*
G02*
X16640000Y-12198900I15000J0D01*
G01*
X16640000Y-15623440D02*
G75*
G02*
X16610000Y-15623440I-15000J0D01*
G01*
X16610000Y-15623440D02*
G75*
G02*
X16640000Y-15623440I15000J0D01*
G01*
X16696220Y-12031530D02*
G75*
G02*
X16666220Y-12031530I-15000J0D01*
G01*
X16666220Y-12031530D02*
G75*
G02*
X16696220Y-12031530I15000J0D01*
G01*
X16783540Y-15394410D02*
G75*
G02*
X16753540Y-15394410I-15000J0D01*
G01*
X16753540Y-15394410D02*
G75*
G02*
X16783540Y-15394410I15000J0D01*
G01*
X16840000Y-13961540D02*
G75*
G02*
X16810000Y-13961540I-15000J0D01*
G01*
X16810000Y-13961540D02*
G75*
G02*
X16840000Y-13961540I15000J0D01*
G01*
X16840820Y-15336320D02*
G75*
G02*
X16810820Y-15336320I-15000J0D01*
G01*
X16810820Y-15336320D02*
G75*
G02*
X16840820Y-15336320I15000J0D01*
G01*
X16893530Y-14990510D02*
G75*
G02*
X16863530Y-14990510I-15000J0D01*
G01*
X16863530Y-14990510D02*
G75*
G02*
X16893530Y-14990510I15000J0D01*
G01*
X16937650Y-11983910D02*
G75*
G02*
X16907650Y-11983910I-15000J0D01*
G01*
X16907650Y-11983910D02*
G75*
G02*
X16937650Y-11983910I15000J0D01*
G01*
X15868000Y-8615000D02*
X15868000Y-8675000D01*
X15838000Y-8645000D02*
X15898000Y-8645000D01*
X15838000Y-8615000D02*
X15838000Y-8675000D01*
X15898000Y-8675000D02*
G75*
G02*
X15838000Y-8675000I-30000J0D01*
G01*
X15898000Y-8675000D02*
X15898000Y-8615000D01*
X15898000Y-8615000D02*
G75*
G03*
X15838000Y-8615000I-30000J0D01*
G01*
X15868000Y-9033000D02*
X15868000Y-9093000D01*
X15838000Y-9063000D02*
X15898000Y-9063000D01*
X15838000Y-9008000D02*
X15838000Y-9118000D01*
X15898000Y-9118000D02*
G75*
G02*
X15838000Y-9118000I-30000J0D01*
G01*
X15898000Y-9118000D02*
X15898000Y-9008000D01*
X15898000Y-9008000D02*
G75*
G03*
X15838000Y-9008000I-30000J0D01*
G01*
X16732000Y-8615000D02*
X16732000Y-8675000D01*
X16702000Y-8645000D02*
X16762000Y-8645000D01*
X16702000Y-8615000D02*
X16702000Y-8675000D01*
X16762000Y-8675000D02*
G75*
G02*
X16702000Y-8675000I-30000J0D01*
G01*
X16762000Y-8675000D02*
X16762000Y-8615000D01*
X16762000Y-8615000D02*
G75*
G03*
X16702000Y-8615000I-30000J0D01*
G01*
X16732000Y-9033000D02*
X16732000Y-9093000D01*
X16702000Y-9063000D02*
X16762000Y-9063000D01*
X16702000Y-9008000D02*
X16702000Y-9118000D01*
X16762000Y-9118000D02*
G75*
G02*
X16702000Y-9118000I-30000J0D01*
G01*
X16762000Y-9118000D02*
X16762000Y-9008000D01*
X16762000Y-9008000D02*
G75*
G03*
X16702000Y-9008000I-30000J0D01*
G01*
X8235356Y-6535356D02*
X8235356Y-6464644D01*
X8164644Y-6464644D01*
X8164644Y-6535356D01*
X8235356Y-6535356D01*
X8235356Y-6789356D02*
X8235356Y-6718644D01*
X8164644Y-6718644D01*
X8164644Y-6789356D01*
X8235356Y-6789356D01*
X8235356Y-7043356D02*
X8235356Y-6972644D01*
X8164644Y-6972644D01*
X8164644Y-7043356D01*
X8235356Y-7043356D01*
X8235356Y-7297356D02*
X8235356Y-7226644D01*
X8164644Y-7226644D01*
X8164644Y-7297356D01*
X8235356Y-7297356D01*
X8235356Y-7551356D02*
X8235356Y-7480644D01*
X8164644Y-7480644D01*
X8164644Y-7551356D01*
X8235356Y-7551356D01*
X8235356Y-8135356D02*
X8235356Y-8064644D01*
X8164644Y-8064644D01*
X8164644Y-8135356D01*
X8235356Y-8135356D01*
X8235356Y-8389356D02*
X8235356Y-8318644D01*
X8164644Y-8318644D01*
X8164644Y-8389356D01*
X8235356Y-8389356D01*
X8235356Y-8643356D02*
X8235356Y-8572644D01*
X8164644Y-8572644D01*
X8164644Y-8643356D01*
X8235356Y-8643356D01*
X8235356Y-8897356D02*
X8235356Y-8826644D01*
X8164644Y-8826644D01*
X8164644Y-8897356D01*
X8235356Y-8897356D01*
X8235356Y-9151356D02*
X8235356Y-9080644D01*
X8164644Y-9080644D01*
X8164644Y-9151356D01*
X8235356Y-9151356D01*
X8489356Y-6535356D02*
X8489356Y-6464644D01*
X8418644Y-6464644D01*
X8418644Y-6535356D01*
X8489356Y-6535356D01*
X8489356Y-6789356D02*
X8489356Y-6718644D01*
X8418644Y-6718644D01*
X8418644Y-6789356D01*
X8489356Y-6789356D01*
X8489356Y-7043356D02*
X8489356Y-6972644D01*
X8418644Y-6972644D01*
X8418644Y-7043356D01*
X8489356Y-7043356D01*
X8489356Y-7297356D02*
X8489356Y-7226644D01*
X8418644Y-7226644D01*
X8418644Y-7297356D01*
X8489356Y-7297356D01*
X8489356Y-7551356D02*
X8489356Y-7480644D01*
X8418644Y-7480644D01*
X8418644Y-7551356D01*
X8489356Y-7551356D01*
X8489356Y-8135356D02*
X8489356Y-8064644D01*
X8418644Y-8064644D01*
X8418644Y-8135356D01*
X8489356Y-8135356D01*
X8489356Y-8389356D02*
X8489356Y-8318644D01*
X8418644Y-8318644D01*
X8418644Y-8389356D01*
X8489356Y-8389356D01*
X8489356Y-8643356D02*
X8489356Y-8572644D01*
X8418644Y-8572644D01*
X8418644Y-8643356D01*
X8489356Y-8643356D01*
X8489356Y-8897356D02*
X8489356Y-8826644D01*
X8418644Y-8826644D01*
X8418644Y-8897356D01*
X8489356Y-8897356D01*
X8489356Y-9151356D02*
X8489356Y-9080644D01*
X8418644Y-9080644D01*
X8418644Y-9151356D01*
X8489356Y-9151356D01*
D11*
X7958277Y-17313984D02*
X7958277Y-17113984D01*
X7958277Y-17113984D02*
X8005896Y-17113984D01*
X8005896Y-17113984D02*
X8034467Y-17123508D01*
X8034467Y-17123508D02*
X8053515Y-17142555D01*
X8053515Y-17142555D02*
X8063039Y-17161603D01*
X8063039Y-17161603D02*
X8072562Y-17199698D01*
X8072562Y-17199698D02*
X8072562Y-17228270D01*
X8072562Y-17228270D02*
X8063039Y-17266365D01*
X8063039Y-17266365D02*
X8053515Y-17285412D01*
X8053515Y-17285412D02*
X8034467Y-17304460D01*
X8034467Y-17304460D02*
X8005896Y-17313984D01*
X8005896Y-17313984D02*
X7958277Y-17313984D01*
X8158277Y-17313984D02*
X8158277Y-17180650D01*
X8158277Y-17218746D02*
X8167801Y-17199698D01*
X8167801Y-17199698D02*
X8177324Y-17190174D01*
X8177324Y-17190174D02*
X8196372Y-17180650D01*
X8196372Y-17180650D02*
X8215420Y-17180650D01*
X8282086Y-17313984D02*
X8282086Y-17180650D01*
X8282086Y-17113984D02*
X8272562Y-17123508D01*
X8272562Y-17123508D02*
X8282086Y-17133031D01*
X8282086Y-17133031D02*
X8291610Y-17123508D01*
X8291610Y-17123508D02*
X8282086Y-17113984D01*
X8282086Y-17113984D02*
X8282086Y-17133031D01*
X8405896Y-17313984D02*
X8386848Y-17304460D01*
X8386848Y-17304460D02*
X8377324Y-17285412D01*
X8377324Y-17285412D02*
X8377324Y-17113984D01*
X8510658Y-17313984D02*
X8491610Y-17304460D01*
X8491610Y-17304460D02*
X8482086Y-17285412D01*
X8482086Y-17285412D02*
X8482086Y-17113984D01*
X8739229Y-17313984D02*
X8739229Y-17113984D01*
X8739229Y-17113984D02*
X8805896Y-17256841D01*
X8805896Y-17256841D02*
X8872563Y-17113984D01*
X8872563Y-17113984D02*
X8872563Y-17313984D01*
X9053515Y-17313984D02*
X9053515Y-17209222D01*
X9053515Y-17209222D02*
X9043991Y-17190174D01*
X9043991Y-17190174D02*
X9024944Y-17180650D01*
X9024944Y-17180650D02*
X8986848Y-17180650D01*
X8986848Y-17180650D02*
X8967801Y-17190174D01*
X9053515Y-17304460D02*
X9034467Y-17313984D01*
X9034467Y-17313984D02*
X8986848Y-17313984D01*
X8986848Y-17313984D02*
X8967801Y-17304460D01*
X8967801Y-17304460D02*
X8958277Y-17285412D01*
X8958277Y-17285412D02*
X8958277Y-17266365D01*
X8958277Y-17266365D02*
X8967801Y-17247317D01*
X8967801Y-17247317D02*
X8986848Y-17237793D01*
X8986848Y-17237793D02*
X9034467Y-17237793D01*
X9034467Y-17237793D02*
X9053515Y-17228270D01*
X9148753Y-17180650D02*
X9148753Y-17380650D01*
X9148753Y-17190174D02*
X9167801Y-17180650D01*
X9167801Y-17180650D02*
X9205896Y-17180650D01*
X9205896Y-17180650D02*
X9224944Y-17190174D01*
X9224944Y-17190174D02*
X9234467Y-17199698D01*
X9234467Y-17199698D02*
X9243991Y-17218746D01*
X9243991Y-17218746D02*
X9243991Y-17275889D01*
X9243991Y-17275889D02*
X9234467Y-17294936D01*
X9234467Y-17294936D02*
X9224944Y-17304460D01*
X9224944Y-17304460D02*
X9205896Y-17313984D01*
X9205896Y-17313984D02*
X9167801Y-17313984D01*
X9167801Y-17313984D02*
X9148753Y-17304460D01*
X9329705Y-17294936D02*
X9339229Y-17304460D01*
X9339229Y-17304460D02*
X9329705Y-17313984D01*
X9329705Y-17313984D02*
X9320182Y-17304460D01*
X9320182Y-17304460D02*
X9329705Y-17294936D01*
X9329705Y-17294936D02*
X9329705Y-17313984D01*
X9329705Y-17190174D02*
X9339229Y-17199698D01*
X9339229Y-17199698D02*
X9329705Y-17209222D01*
X9329705Y-17209222D02*
X9320182Y-17199698D01*
X9320182Y-17199698D02*
X9329705Y-17190174D01*
X9329705Y-17190174D02*
X9329705Y-17209222D01*
D12*
X7677500Y-17632500D02*
X7697500Y-17652500D01*
X7697500Y-17632500D02*
X7677500Y-17652500D01*
D11*
X7996372Y-17533984D02*
X8015420Y-17533984D01*
X8015420Y-17533984D02*
X8034467Y-17543508D01*
X8034467Y-17543508D02*
X8043991Y-17553031D01*
X8043991Y-17553031D02*
X8053515Y-17572079D01*
X8053515Y-17572079D02*
X8063039Y-17610174D01*
X8063039Y-17610174D02*
X8063039Y-17657793D01*
X8063039Y-17657793D02*
X8053515Y-17695889D01*
X8053515Y-17695889D02*
X8043991Y-17714936D01*
X8043991Y-17714936D02*
X8034467Y-17724460D01*
X8034467Y-17724460D02*
X8015420Y-17733984D01*
X8015420Y-17733984D02*
X7996372Y-17733984D01*
X7996372Y-17733984D02*
X7977324Y-17724460D01*
X7977324Y-17724460D02*
X7967801Y-17714936D01*
X7967801Y-17714936D02*
X7958277Y-17695889D01*
X7958277Y-17695889D02*
X7948753Y-17657793D01*
X7948753Y-17657793D02*
X7948753Y-17610174D01*
X7948753Y-17610174D02*
X7958277Y-17572079D01*
X7958277Y-17572079D02*
X7967801Y-17553031D01*
X7967801Y-17553031D02*
X7977324Y-17543508D01*
X7977324Y-17543508D02*
X7996372Y-17533984D01*
X8148753Y-17714936D02*
X8158277Y-17724460D01*
X8158277Y-17724460D02*
X8148753Y-17733984D01*
X8148753Y-17733984D02*
X8139229Y-17724460D01*
X8139229Y-17724460D02*
X8148753Y-17714936D01*
X8148753Y-17714936D02*
X8148753Y-17733984D01*
X8234467Y-17553031D02*
X8243991Y-17543508D01*
X8243991Y-17543508D02*
X8263039Y-17533984D01*
X8263039Y-17533984D02*
X8310658Y-17533984D01*
X8310658Y-17533984D02*
X8329705Y-17543508D01*
X8329705Y-17543508D02*
X8339229Y-17553031D01*
X8339229Y-17553031D02*
X8348753Y-17572079D01*
X8348753Y-17572079D02*
X8348753Y-17591127D01*
X8348753Y-17591127D02*
X8339229Y-17619698D01*
X8339229Y-17619698D02*
X8224943Y-17733984D01*
X8224943Y-17733984D02*
X8348753Y-17733984D01*
X8472563Y-17533984D02*
X8491610Y-17533984D01*
X8491610Y-17533984D02*
X8510658Y-17543508D01*
X8510658Y-17543508D02*
X8520182Y-17553031D01*
X8520182Y-17553031D02*
X8529705Y-17572079D01*
X8529705Y-17572079D02*
X8539229Y-17610174D01*
X8539229Y-17610174D02*
X8539229Y-17657793D01*
X8539229Y-17657793D02*
X8529705Y-17695889D01*
X8529705Y-17695889D02*
X8520182Y-17714936D01*
X8520182Y-17714936D02*
X8510658Y-17724460D01*
X8510658Y-17724460D02*
X8491610Y-17733984D01*
X8491610Y-17733984D02*
X8472563Y-17733984D01*
X8472563Y-17733984D02*
X8453515Y-17724460D01*
X8453515Y-17724460D02*
X8443991Y-17714936D01*
X8443991Y-17714936D02*
X8434467Y-17695889D01*
X8434467Y-17695889D02*
X8424944Y-17657793D01*
X8424944Y-17657793D02*
X8424944Y-17610174D01*
X8424944Y-17610174D02*
X8434467Y-17572079D01*
X8434467Y-17572079D02*
X8443991Y-17553031D01*
X8443991Y-17553031D02*
X8453515Y-17543508D01*
X8453515Y-17543508D02*
X8472563Y-17533984D01*
X8663039Y-17533984D02*
X8682086Y-17533984D01*
X8682086Y-17533984D02*
X8701134Y-17543508D01*
X8701134Y-17543508D02*
X8710658Y-17553031D01*
X8710658Y-17553031D02*
X8720182Y-17572079D01*
X8720182Y-17572079D02*
X8729705Y-17610174D01*
X8729705Y-17610174D02*
X8729705Y-17657793D01*
X8729705Y-17657793D02*
X8720182Y-17695889D01*
X8720182Y-17695889D02*
X8710658Y-17714936D01*
X8710658Y-17714936D02*
X8701134Y-17724460D01*
X8701134Y-17724460D02*
X8682086Y-17733984D01*
X8682086Y-17733984D02*
X8663039Y-17733984D01*
X8663039Y-17733984D02*
X8643991Y-17724460D01*
X8643991Y-17724460D02*
X8634467Y-17714936D01*
X8634467Y-17714936D02*
X8624944Y-17695889D01*
X8624944Y-17695889D02*
X8615420Y-17657793D01*
X8615420Y-17657793D02*
X8615420Y-17610174D01*
X8615420Y-17610174D02*
X8624944Y-17572079D01*
X8624944Y-17572079D02*
X8634467Y-17553031D01*
X8634467Y-17553031D02*
X8643991Y-17543508D01*
X8643991Y-17543508D02*
X8663039Y-17533984D01*
X8815420Y-17733984D02*
X8815420Y-17600650D01*
X8815420Y-17619698D02*
X8824944Y-17610174D01*
X8824944Y-17610174D02*
X8843991Y-17600650D01*
X8843991Y-17600650D02*
X8872563Y-17600650D01*
X8872563Y-17600650D02*
X8891610Y-17610174D01*
X8891610Y-17610174D02*
X8901134Y-17629222D01*
X8901134Y-17629222D02*
X8901134Y-17733984D01*
X8901134Y-17629222D02*
X8910658Y-17610174D01*
X8910658Y-17610174D02*
X8929705Y-17600650D01*
X8929705Y-17600650D02*
X8958277Y-17600650D01*
X8958277Y-17600650D02*
X8977325Y-17610174D01*
X8977325Y-17610174D02*
X8986848Y-17629222D01*
X8986848Y-17629222D02*
X8986848Y-17733984D01*
X9082086Y-17733984D02*
X9082086Y-17600650D01*
X9082086Y-17619698D02*
X9091610Y-17610174D01*
X9091610Y-17610174D02*
X9110658Y-17600650D01*
X9110658Y-17600650D02*
X9139229Y-17600650D01*
X9139229Y-17600650D02*
X9158277Y-17610174D01*
X9158277Y-17610174D02*
X9167801Y-17629222D01*
X9167801Y-17629222D02*
X9167801Y-17733984D01*
X9167801Y-17629222D02*
X9177325Y-17610174D01*
X9177325Y-17610174D02*
X9196372Y-17600650D01*
X9196372Y-17600650D02*
X9224944Y-17600650D01*
X9224944Y-17600650D02*
X9243991Y-17610174D01*
X9243991Y-17610174D02*
X9253515Y-17629222D01*
X9253515Y-17629222D02*
X9253515Y-17733984D01*
X9643991Y-17524460D02*
X9472563Y-17781603D01*
X9901134Y-17533984D02*
X9920182Y-17533984D01*
X9920182Y-17533984D02*
X9939229Y-17543508D01*
X9939229Y-17543508D02*
X9948753Y-17553031D01*
X9948753Y-17553031D02*
X9958277Y-17572079D01*
X9958277Y-17572079D02*
X9967801Y-17610174D01*
X9967801Y-17610174D02*
X9967801Y-17657793D01*
X9967801Y-17657793D02*
X9958277Y-17695889D01*
X9958277Y-17695889D02*
X9948753Y-17714936D01*
X9948753Y-17714936D02*
X9939229Y-17724460D01*
X9939229Y-17724460D02*
X9920182Y-17733984D01*
X9920182Y-17733984D02*
X9901134Y-17733984D01*
X9901134Y-17733984D02*
X9882087Y-17724460D01*
X9882087Y-17724460D02*
X9872563Y-17714936D01*
X9872563Y-17714936D02*
X9863039Y-17695889D01*
X9863039Y-17695889D02*
X9853515Y-17657793D01*
X9853515Y-17657793D02*
X9853515Y-17610174D01*
X9853515Y-17610174D02*
X9863039Y-17572079D01*
X9863039Y-17572079D02*
X9872563Y-17553031D01*
X9872563Y-17553031D02*
X9882087Y-17543508D01*
X9882087Y-17543508D02*
X9901134Y-17533984D01*
X10053515Y-17714936D02*
X10063039Y-17724460D01*
X10063039Y-17724460D02*
X10053515Y-17733984D01*
X10053515Y-17733984D02*
X10043991Y-17724460D01*
X10043991Y-17724460D02*
X10053515Y-17714936D01*
X10053515Y-17714936D02*
X10053515Y-17733984D01*
X10186848Y-17533984D02*
X10205896Y-17533984D01*
X10205896Y-17533984D02*
X10224944Y-17543508D01*
X10224944Y-17543508D02*
X10234468Y-17553031D01*
X10234468Y-17553031D02*
X10243991Y-17572079D01*
X10243991Y-17572079D02*
X10253515Y-17610174D01*
X10253515Y-17610174D02*
X10253515Y-17657793D01*
X10253515Y-17657793D02*
X10243991Y-17695889D01*
X10243991Y-17695889D02*
X10234468Y-17714936D01*
X10234468Y-17714936D02*
X10224944Y-17724460D01*
X10224944Y-17724460D02*
X10205896Y-17733984D01*
X10205896Y-17733984D02*
X10186848Y-17733984D01*
X10186848Y-17733984D02*
X10167801Y-17724460D01*
X10167801Y-17724460D02*
X10158277Y-17714936D01*
X10158277Y-17714936D02*
X10148753Y-17695889D01*
X10148753Y-17695889D02*
X10139229Y-17657793D01*
X10139229Y-17657793D02*
X10139229Y-17610174D01*
X10139229Y-17610174D02*
X10148753Y-17572079D01*
X10148753Y-17572079D02*
X10158277Y-17553031D01*
X10158277Y-17553031D02*
X10167801Y-17543508D01*
X10167801Y-17543508D02*
X10186848Y-17533984D01*
X10377325Y-17533984D02*
X10396372Y-17533984D01*
X10396372Y-17533984D02*
X10415420Y-17543508D01*
X10415420Y-17543508D02*
X10424944Y-17553031D01*
X10424944Y-17553031D02*
X10434468Y-17572079D01*
X10434468Y-17572079D02*
X10443991Y-17610174D01*
X10443991Y-17610174D02*
X10443991Y-17657793D01*
X10443991Y-17657793D02*
X10434468Y-17695889D01*
X10434468Y-17695889D02*
X10424944Y-17714936D01*
X10424944Y-17714936D02*
X10415420Y-17724460D01*
X10415420Y-17724460D02*
X10396372Y-17733984D01*
X10396372Y-17733984D02*
X10377325Y-17733984D01*
X10377325Y-17733984D02*
X10358277Y-17724460D01*
X10358277Y-17724460D02*
X10348753Y-17714936D01*
X10348753Y-17714936D02*
X10339229Y-17695889D01*
X10339229Y-17695889D02*
X10329706Y-17657793D01*
X10329706Y-17657793D02*
X10329706Y-17610174D01*
X10329706Y-17610174D02*
X10339229Y-17572079D01*
X10339229Y-17572079D02*
X10348753Y-17553031D01*
X10348753Y-17553031D02*
X10358277Y-17543508D01*
X10358277Y-17543508D02*
X10377325Y-17533984D01*
X10510658Y-17533984D02*
X10643991Y-17533984D01*
X10643991Y-17533984D02*
X10558277Y-17733984D01*
X10729706Y-17733984D02*
X10767801Y-17733984D01*
X10767801Y-17733984D02*
X10786849Y-17724460D01*
X10786849Y-17724460D02*
X10796372Y-17714936D01*
X10796372Y-17714936D02*
X10815420Y-17686365D01*
X10815420Y-17686365D02*
X10824944Y-17648270D01*
X10824944Y-17648270D02*
X10824944Y-17572079D01*
X10824944Y-17572079D02*
X10815420Y-17553031D01*
X10815420Y-17553031D02*
X10805896Y-17543508D01*
X10805896Y-17543508D02*
X10786849Y-17533984D01*
X10786849Y-17533984D02*
X10748753Y-17533984D01*
X10748753Y-17533984D02*
X10729706Y-17543508D01*
X10729706Y-17543508D02*
X10720182Y-17553031D01*
X10720182Y-17553031D02*
X10710658Y-17572079D01*
X10710658Y-17572079D02*
X10710658Y-17619698D01*
X10710658Y-17619698D02*
X10720182Y-17638746D01*
X10720182Y-17638746D02*
X10729706Y-17648270D01*
X10729706Y-17648270D02*
X10748753Y-17657793D01*
X10748753Y-17657793D02*
X10786849Y-17657793D01*
X10786849Y-17657793D02*
X10805896Y-17648270D01*
X10805896Y-17648270D02*
X10815420Y-17638746D01*
X10815420Y-17638746D02*
X10824944Y-17619698D01*
X10901134Y-17533984D02*
X10901134Y-17572079D01*
X10977325Y-17533984D02*
X10977325Y-17572079D01*
X11272563Y-17810174D02*
X11263039Y-17800650D01*
X11263039Y-17800650D02*
X11243991Y-17772079D01*
X11243991Y-17772079D02*
X11234468Y-17753031D01*
X11234468Y-17753031D02*
X11224944Y-17724460D01*
X11224944Y-17724460D02*
X11215420Y-17676841D01*
X11215420Y-17676841D02*
X11215420Y-17638746D01*
X11215420Y-17638746D02*
X11224944Y-17591127D01*
X11224944Y-17591127D02*
X11234468Y-17562555D01*
X11234468Y-17562555D02*
X11243991Y-17543508D01*
X11243991Y-17543508D02*
X11263039Y-17514936D01*
X11263039Y-17514936D02*
X11272563Y-17505412D01*
X11453515Y-17733984D02*
X11339229Y-17733984D01*
X11396372Y-17733984D02*
X11396372Y-17533984D01*
X11396372Y-17533984D02*
X11377325Y-17562555D01*
X11377325Y-17562555D02*
X11358277Y-17581603D01*
X11358277Y-17581603D02*
X11339229Y-17591127D01*
X11624944Y-17600650D02*
X11624944Y-17733984D01*
X11577325Y-17524460D02*
X11529706Y-17667317D01*
X11529706Y-17667317D02*
X11653515Y-17667317D01*
X11767801Y-17533984D02*
X11786849Y-17533984D01*
X11786849Y-17533984D02*
X11805896Y-17543508D01*
X11805896Y-17543508D02*
X11815420Y-17553031D01*
X11815420Y-17553031D02*
X11824944Y-17572079D01*
X11824944Y-17572079D02*
X11834468Y-17610174D01*
X11834468Y-17610174D02*
X11834468Y-17657793D01*
X11834468Y-17657793D02*
X11824944Y-17695889D01*
X11824944Y-17695889D02*
X11815420Y-17714936D01*
X11815420Y-17714936D02*
X11805896Y-17724460D01*
X11805896Y-17724460D02*
X11786849Y-17733984D01*
X11786849Y-17733984D02*
X11767801Y-17733984D01*
X11767801Y-17733984D02*
X11748753Y-17724460D01*
X11748753Y-17724460D02*
X11739229Y-17714936D01*
X11739229Y-17714936D02*
X11729706Y-17695889D01*
X11729706Y-17695889D02*
X11720182Y-17657793D01*
X11720182Y-17657793D02*
X11720182Y-17610174D01*
X11720182Y-17610174D02*
X11729706Y-17572079D01*
X11729706Y-17572079D02*
X11739229Y-17553031D01*
X11739229Y-17553031D02*
X11748753Y-17543508D01*
X11748753Y-17543508D02*
X11767801Y-17533984D01*
X12072563Y-17733984D02*
X12072563Y-17533984D01*
X12158277Y-17733984D02*
X12158277Y-17629222D01*
X12158277Y-17629222D02*
X12148753Y-17610174D01*
X12148753Y-17610174D02*
X12129706Y-17600650D01*
X12129706Y-17600650D02*
X12101134Y-17600650D01*
X12101134Y-17600650D02*
X12082087Y-17610174D01*
X12082087Y-17610174D02*
X12072563Y-17619698D01*
X12282087Y-17733984D02*
X12263039Y-17724460D01*
X12263039Y-17724460D02*
X12253515Y-17714936D01*
X12253515Y-17714936D02*
X12243991Y-17695889D01*
X12243991Y-17695889D02*
X12243991Y-17638746D01*
X12243991Y-17638746D02*
X12253515Y-17619698D01*
X12253515Y-17619698D02*
X12263039Y-17610174D01*
X12263039Y-17610174D02*
X12282087Y-17600650D01*
X12282087Y-17600650D02*
X12310658Y-17600650D01*
X12310658Y-17600650D02*
X12329706Y-17610174D01*
X12329706Y-17610174D02*
X12339230Y-17619698D01*
X12339230Y-17619698D02*
X12348753Y-17638746D01*
X12348753Y-17638746D02*
X12348753Y-17695889D01*
X12348753Y-17695889D02*
X12339230Y-17714936D01*
X12339230Y-17714936D02*
X12329706Y-17724460D01*
X12329706Y-17724460D02*
X12310658Y-17733984D01*
X12310658Y-17733984D02*
X12282087Y-17733984D01*
X12463039Y-17733984D02*
X12443991Y-17724460D01*
X12443991Y-17724460D02*
X12434468Y-17705412D01*
X12434468Y-17705412D02*
X12434468Y-17533984D01*
X12615420Y-17724460D02*
X12596372Y-17733984D01*
X12596372Y-17733984D02*
X12558277Y-17733984D01*
X12558277Y-17733984D02*
X12539230Y-17724460D01*
X12539230Y-17724460D02*
X12529706Y-17705412D01*
X12529706Y-17705412D02*
X12529706Y-17629222D01*
X12529706Y-17629222D02*
X12539230Y-17610174D01*
X12539230Y-17610174D02*
X12558277Y-17600650D01*
X12558277Y-17600650D02*
X12596372Y-17600650D01*
X12596372Y-17600650D02*
X12615420Y-17610174D01*
X12615420Y-17610174D02*
X12624944Y-17629222D01*
X12624944Y-17629222D02*
X12624944Y-17648270D01*
X12624944Y-17648270D02*
X12529706Y-17667317D01*
X12701134Y-17724460D02*
X12720182Y-17733984D01*
X12720182Y-17733984D02*
X12758277Y-17733984D01*
X12758277Y-17733984D02*
X12777325Y-17724460D01*
X12777325Y-17724460D02*
X12786849Y-17705412D01*
X12786849Y-17705412D02*
X12786849Y-17695889D01*
X12786849Y-17695889D02*
X12777325Y-17676841D01*
X12777325Y-17676841D02*
X12758277Y-17667317D01*
X12758277Y-17667317D02*
X12729706Y-17667317D01*
X12729706Y-17667317D02*
X12710658Y-17657793D01*
X12710658Y-17657793D02*
X12701134Y-17638746D01*
X12701134Y-17638746D02*
X12701134Y-17629222D01*
X12701134Y-17629222D02*
X12710658Y-17610174D01*
X12710658Y-17610174D02*
X12729706Y-17600650D01*
X12729706Y-17600650D02*
X12758277Y-17600650D01*
X12758277Y-17600650D02*
X12777325Y-17610174D01*
X12853515Y-17810174D02*
X12863039Y-17800650D01*
X12863039Y-17800650D02*
X12882087Y-17772079D01*
X12882087Y-17772079D02*
X12891611Y-17753031D01*
X12891611Y-17753031D02*
X12901134Y-17724460D01*
X12901134Y-17724460D02*
X12910658Y-17676841D01*
X12910658Y-17676841D02*
X12910658Y-17638746D01*
X12910658Y-17638746D02*
X12901134Y-17591127D01*
X12901134Y-17591127D02*
X12891611Y-17562555D01*
X12891611Y-17562555D02*
X12882087Y-17543508D01*
X12882087Y-17543508D02*
X12863039Y-17514936D01*
X12863039Y-17514936D02*
X12853515Y-17505412D01*
D12*
X7697500Y-17906500D02*
G75*
G02*
X7667500Y-17906500I-15000J0D01*
G01*
X7667500Y-17906500D02*
G75*
G02*
X7697500Y-17906500I15000J0D01*
G01*
D11*
X7996372Y-17797984D02*
X8015420Y-17797984D01*
X8015420Y-17797984D02*
X8034467Y-17807508D01*
X8034467Y-17807508D02*
X8043991Y-17817031D01*
X8043991Y-17817031D02*
X8053515Y-17836079D01*
X8053515Y-17836079D02*
X8063039Y-17874174D01*
X8063039Y-17874174D02*
X8063039Y-17921793D01*
X8063039Y-17921793D02*
X8053515Y-17959889D01*
X8053515Y-17959889D02*
X8043991Y-17978936D01*
X8043991Y-17978936D02*
X8034467Y-17988460D01*
X8034467Y-17988460D02*
X8015420Y-17997984D01*
X8015420Y-17997984D02*
X7996372Y-17997984D01*
X7996372Y-17997984D02*
X7977324Y-17988460D01*
X7977324Y-17988460D02*
X7967801Y-17978936D01*
X7967801Y-17978936D02*
X7958277Y-17959889D01*
X7958277Y-17959889D02*
X7948753Y-17921793D01*
X7948753Y-17921793D02*
X7948753Y-17874174D01*
X7948753Y-17874174D02*
X7958277Y-17836079D01*
X7958277Y-17836079D02*
X7967801Y-17817031D01*
X7967801Y-17817031D02*
X7977324Y-17807508D01*
X7977324Y-17807508D02*
X7996372Y-17797984D01*
X8148753Y-17978936D02*
X8158277Y-17988460D01*
X8158277Y-17988460D02*
X8148753Y-17997984D01*
X8148753Y-17997984D02*
X8139229Y-17988460D01*
X8139229Y-17988460D02*
X8148753Y-17978936D01*
X8148753Y-17978936D02*
X8148753Y-17997984D01*
X8224943Y-17797984D02*
X8348753Y-17797984D01*
X8348753Y-17797984D02*
X8282086Y-17874174D01*
X8282086Y-17874174D02*
X8310658Y-17874174D01*
X8310658Y-17874174D02*
X8329705Y-17883698D01*
X8329705Y-17883698D02*
X8339229Y-17893222D01*
X8339229Y-17893222D02*
X8348753Y-17912270D01*
X8348753Y-17912270D02*
X8348753Y-17959889D01*
X8348753Y-17959889D02*
X8339229Y-17978936D01*
X8339229Y-17978936D02*
X8329705Y-17988460D01*
X8329705Y-17988460D02*
X8310658Y-17997984D01*
X8310658Y-17997984D02*
X8253515Y-17997984D01*
X8253515Y-17997984D02*
X8234467Y-17988460D01*
X8234467Y-17988460D02*
X8224943Y-17978936D01*
X8472563Y-17797984D02*
X8491610Y-17797984D01*
X8491610Y-17797984D02*
X8510658Y-17807508D01*
X8510658Y-17807508D02*
X8520182Y-17817031D01*
X8520182Y-17817031D02*
X8529705Y-17836079D01*
X8529705Y-17836079D02*
X8539229Y-17874174D01*
X8539229Y-17874174D02*
X8539229Y-17921793D01*
X8539229Y-17921793D02*
X8529705Y-17959889D01*
X8529705Y-17959889D02*
X8520182Y-17978936D01*
X8520182Y-17978936D02*
X8510658Y-17988460D01*
X8510658Y-17988460D02*
X8491610Y-17997984D01*
X8491610Y-17997984D02*
X8472563Y-17997984D01*
X8472563Y-17997984D02*
X8453515Y-17988460D01*
X8453515Y-17988460D02*
X8443991Y-17978936D01*
X8443991Y-17978936D02*
X8434467Y-17959889D01*
X8434467Y-17959889D02*
X8424944Y-17921793D01*
X8424944Y-17921793D02*
X8424944Y-17874174D01*
X8424944Y-17874174D02*
X8434467Y-17836079D01*
X8434467Y-17836079D02*
X8443991Y-17817031D01*
X8443991Y-17817031D02*
X8453515Y-17807508D01*
X8453515Y-17807508D02*
X8472563Y-17797984D01*
X8663039Y-17797984D02*
X8682086Y-17797984D01*
X8682086Y-17797984D02*
X8701134Y-17807508D01*
X8701134Y-17807508D02*
X8710658Y-17817031D01*
X8710658Y-17817031D02*
X8720182Y-17836079D01*
X8720182Y-17836079D02*
X8729705Y-17874174D01*
X8729705Y-17874174D02*
X8729705Y-17921793D01*
X8729705Y-17921793D02*
X8720182Y-17959889D01*
X8720182Y-17959889D02*
X8710658Y-17978936D01*
X8710658Y-17978936D02*
X8701134Y-17988460D01*
X8701134Y-17988460D02*
X8682086Y-17997984D01*
X8682086Y-17997984D02*
X8663039Y-17997984D01*
X8663039Y-17997984D02*
X8643991Y-17988460D01*
X8643991Y-17988460D02*
X8634467Y-17978936D01*
X8634467Y-17978936D02*
X8624944Y-17959889D01*
X8624944Y-17959889D02*
X8615420Y-17921793D01*
X8615420Y-17921793D02*
X8615420Y-17874174D01*
X8615420Y-17874174D02*
X8624944Y-17836079D01*
X8624944Y-17836079D02*
X8634467Y-17817031D01*
X8634467Y-17817031D02*
X8643991Y-17807508D01*
X8643991Y-17807508D02*
X8663039Y-17797984D01*
X8815420Y-17997984D02*
X8815420Y-17864650D01*
X8815420Y-17883698D02*
X8824944Y-17874174D01*
X8824944Y-17874174D02*
X8843991Y-17864650D01*
X8843991Y-17864650D02*
X8872563Y-17864650D01*
X8872563Y-17864650D02*
X8891610Y-17874174D01*
X8891610Y-17874174D02*
X8901134Y-17893222D01*
X8901134Y-17893222D02*
X8901134Y-17997984D01*
X8901134Y-17893222D02*
X8910658Y-17874174D01*
X8910658Y-17874174D02*
X8929705Y-17864650D01*
X8929705Y-17864650D02*
X8958277Y-17864650D01*
X8958277Y-17864650D02*
X8977325Y-17874174D01*
X8977325Y-17874174D02*
X8986848Y-17893222D01*
X8986848Y-17893222D02*
X8986848Y-17997984D01*
X9082086Y-17997984D02*
X9082086Y-17864650D01*
X9082086Y-17883698D02*
X9091610Y-17874174D01*
X9091610Y-17874174D02*
X9110658Y-17864650D01*
X9110658Y-17864650D02*
X9139229Y-17864650D01*
X9139229Y-17864650D02*
X9158277Y-17874174D01*
X9158277Y-17874174D02*
X9167801Y-17893222D01*
X9167801Y-17893222D02*
X9167801Y-17997984D01*
X9167801Y-17893222D02*
X9177325Y-17874174D01*
X9177325Y-17874174D02*
X9196372Y-17864650D01*
X9196372Y-17864650D02*
X9224944Y-17864650D01*
X9224944Y-17864650D02*
X9243991Y-17874174D01*
X9243991Y-17874174D02*
X9253515Y-17893222D01*
X9253515Y-17893222D02*
X9253515Y-17997984D01*
X9643991Y-17788460D02*
X9472563Y-18045603D01*
X9901134Y-17797984D02*
X9920182Y-17797984D01*
X9920182Y-17797984D02*
X9939229Y-17807508D01*
X9939229Y-17807508D02*
X9948753Y-17817031D01*
X9948753Y-17817031D02*
X9958277Y-17836079D01*
X9958277Y-17836079D02*
X9967801Y-17874174D01*
X9967801Y-17874174D02*
X9967801Y-17921793D01*
X9967801Y-17921793D02*
X9958277Y-17959889D01*
X9958277Y-17959889D02*
X9948753Y-17978936D01*
X9948753Y-17978936D02*
X9939229Y-17988460D01*
X9939229Y-17988460D02*
X9920182Y-17997984D01*
X9920182Y-17997984D02*
X9901134Y-17997984D01*
X9901134Y-17997984D02*
X9882087Y-17988460D01*
X9882087Y-17988460D02*
X9872563Y-17978936D01*
X9872563Y-17978936D02*
X9863039Y-17959889D01*
X9863039Y-17959889D02*
X9853515Y-17921793D01*
X9853515Y-17921793D02*
X9853515Y-17874174D01*
X9853515Y-17874174D02*
X9863039Y-17836079D01*
X9863039Y-17836079D02*
X9872563Y-17817031D01*
X9872563Y-17817031D02*
X9882087Y-17807508D01*
X9882087Y-17807508D02*
X9901134Y-17797984D01*
X10053515Y-17978936D02*
X10063039Y-17988460D01*
X10063039Y-17988460D02*
X10053515Y-17997984D01*
X10053515Y-17997984D02*
X10043991Y-17988460D01*
X10043991Y-17988460D02*
X10053515Y-17978936D01*
X10053515Y-17978936D02*
X10053515Y-17997984D01*
X10186848Y-17797984D02*
X10205896Y-17797984D01*
X10205896Y-17797984D02*
X10224944Y-17807508D01*
X10224944Y-17807508D02*
X10234468Y-17817031D01*
X10234468Y-17817031D02*
X10243991Y-17836079D01*
X10243991Y-17836079D02*
X10253515Y-17874174D01*
X10253515Y-17874174D02*
X10253515Y-17921793D01*
X10253515Y-17921793D02*
X10243991Y-17959889D01*
X10243991Y-17959889D02*
X10234468Y-17978936D01*
X10234468Y-17978936D02*
X10224944Y-17988460D01*
X10224944Y-17988460D02*
X10205896Y-17997984D01*
X10205896Y-17997984D02*
X10186848Y-17997984D01*
X10186848Y-17997984D02*
X10167801Y-17988460D01*
X10167801Y-17988460D02*
X10158277Y-17978936D01*
X10158277Y-17978936D02*
X10148753Y-17959889D01*
X10148753Y-17959889D02*
X10139229Y-17921793D01*
X10139229Y-17921793D02*
X10139229Y-17874174D01*
X10139229Y-17874174D02*
X10148753Y-17836079D01*
X10148753Y-17836079D02*
X10158277Y-17817031D01*
X10158277Y-17817031D02*
X10167801Y-17807508D01*
X10167801Y-17807508D02*
X10186848Y-17797984D01*
X10443991Y-17997984D02*
X10329706Y-17997984D01*
X10386848Y-17997984D02*
X10386848Y-17797984D01*
X10386848Y-17797984D02*
X10367801Y-17826555D01*
X10367801Y-17826555D02*
X10348753Y-17845603D01*
X10348753Y-17845603D02*
X10329706Y-17855127D01*
X10634468Y-17997984D02*
X10520182Y-17997984D01*
X10577325Y-17997984D02*
X10577325Y-17797984D01*
X10577325Y-17797984D02*
X10558277Y-17826555D01*
X10558277Y-17826555D02*
X10539229Y-17845603D01*
X10539229Y-17845603D02*
X10520182Y-17855127D01*
X10748753Y-17883698D02*
X10729706Y-17874174D01*
X10729706Y-17874174D02*
X10720182Y-17864650D01*
X10720182Y-17864650D02*
X10710658Y-17845603D01*
X10710658Y-17845603D02*
X10710658Y-17836079D01*
X10710658Y-17836079D02*
X10720182Y-17817031D01*
X10720182Y-17817031D02*
X10729706Y-17807508D01*
X10729706Y-17807508D02*
X10748753Y-17797984D01*
X10748753Y-17797984D02*
X10786849Y-17797984D01*
X10786849Y-17797984D02*
X10805896Y-17807508D01*
X10805896Y-17807508D02*
X10815420Y-17817031D01*
X10815420Y-17817031D02*
X10824944Y-17836079D01*
X10824944Y-17836079D02*
X10824944Y-17845603D01*
X10824944Y-17845603D02*
X10815420Y-17864650D01*
X10815420Y-17864650D02*
X10805896Y-17874174D01*
X10805896Y-17874174D02*
X10786849Y-17883698D01*
X10786849Y-17883698D02*
X10748753Y-17883698D01*
X10748753Y-17883698D02*
X10729706Y-17893222D01*
X10729706Y-17893222D02*
X10720182Y-17902746D01*
X10720182Y-17902746D02*
X10710658Y-17921793D01*
X10710658Y-17921793D02*
X10710658Y-17959889D01*
X10710658Y-17959889D02*
X10720182Y-17978936D01*
X10720182Y-17978936D02*
X10729706Y-17988460D01*
X10729706Y-17988460D02*
X10748753Y-17997984D01*
X10748753Y-17997984D02*
X10786849Y-17997984D01*
X10786849Y-17997984D02*
X10805896Y-17988460D01*
X10805896Y-17988460D02*
X10815420Y-17978936D01*
X10815420Y-17978936D02*
X10824944Y-17959889D01*
X10824944Y-17959889D02*
X10824944Y-17921793D01*
X10824944Y-17921793D02*
X10815420Y-17902746D01*
X10815420Y-17902746D02*
X10805896Y-17893222D01*
X10805896Y-17893222D02*
X10786849Y-17883698D01*
X10901134Y-17797984D02*
X10901134Y-17836079D01*
X10977325Y-17797984D02*
X10977325Y-17836079D01*
X11272563Y-18074174D02*
X11263039Y-18064650D01*
X11263039Y-18064650D02*
X11243991Y-18036079D01*
X11243991Y-18036079D02*
X11234468Y-18017031D01*
X11234468Y-18017031D02*
X11224944Y-17988460D01*
X11224944Y-17988460D02*
X11215420Y-17940841D01*
X11215420Y-17940841D02*
X11215420Y-17902746D01*
X11215420Y-17902746D02*
X11224944Y-17855127D01*
X11224944Y-17855127D02*
X11234468Y-17826555D01*
X11234468Y-17826555D02*
X11243991Y-17807508D01*
X11243991Y-17807508D02*
X11263039Y-17778936D01*
X11263039Y-17778936D02*
X11272563Y-17769412D01*
X11339229Y-17817031D02*
X11348753Y-17807508D01*
X11348753Y-17807508D02*
X11367801Y-17797984D01*
X11367801Y-17797984D02*
X11415420Y-17797984D01*
X11415420Y-17797984D02*
X11434468Y-17807508D01*
X11434468Y-17807508D02*
X11443991Y-17817031D01*
X11443991Y-17817031D02*
X11453515Y-17836079D01*
X11453515Y-17836079D02*
X11453515Y-17855127D01*
X11453515Y-17855127D02*
X11443991Y-17883698D01*
X11443991Y-17883698D02*
X11329706Y-17997984D01*
X11329706Y-17997984D02*
X11453515Y-17997984D01*
X11529706Y-17817031D02*
X11539229Y-17807508D01*
X11539229Y-17807508D02*
X11558277Y-17797984D01*
X11558277Y-17797984D02*
X11605896Y-17797984D01*
X11605896Y-17797984D02*
X11624944Y-17807508D01*
X11624944Y-17807508D02*
X11634468Y-17817031D01*
X11634468Y-17817031D02*
X11643991Y-17836079D01*
X11643991Y-17836079D02*
X11643991Y-17855127D01*
X11643991Y-17855127D02*
X11634468Y-17883698D01*
X11634468Y-17883698D02*
X11520182Y-17997984D01*
X11520182Y-17997984D02*
X11643991Y-17997984D01*
X11767801Y-17797984D02*
X11786849Y-17797984D01*
X11786849Y-17797984D02*
X11805896Y-17807508D01*
X11805896Y-17807508D02*
X11815420Y-17817031D01*
X11815420Y-17817031D02*
X11824944Y-17836079D01*
X11824944Y-17836079D02*
X11834468Y-17874174D01*
X11834468Y-17874174D02*
X11834468Y-17921793D01*
X11834468Y-17921793D02*
X11824944Y-17959889D01*
X11824944Y-17959889D02*
X11815420Y-17978936D01*
X11815420Y-17978936D02*
X11805896Y-17988460D01*
X11805896Y-17988460D02*
X11786849Y-17997984D01*
X11786849Y-17997984D02*
X11767801Y-17997984D01*
X11767801Y-17997984D02*
X11748753Y-17988460D01*
X11748753Y-17988460D02*
X11739229Y-17978936D01*
X11739229Y-17978936D02*
X11729706Y-17959889D01*
X11729706Y-17959889D02*
X11720182Y-17921793D01*
X11720182Y-17921793D02*
X11720182Y-17874174D01*
X11720182Y-17874174D02*
X11729706Y-17836079D01*
X11729706Y-17836079D02*
X11739229Y-17817031D01*
X11739229Y-17817031D02*
X11748753Y-17807508D01*
X11748753Y-17807508D02*
X11767801Y-17797984D01*
X12072563Y-17997984D02*
X12072563Y-17797984D01*
X12158277Y-17997984D02*
X12158277Y-17893222D01*
X12158277Y-17893222D02*
X12148753Y-17874174D01*
X12148753Y-17874174D02*
X12129706Y-17864650D01*
X12129706Y-17864650D02*
X12101134Y-17864650D01*
X12101134Y-17864650D02*
X12082087Y-17874174D01*
X12082087Y-17874174D02*
X12072563Y-17883698D01*
X12282087Y-17997984D02*
X12263039Y-17988460D01*
X12263039Y-17988460D02*
X12253515Y-17978936D01*
X12253515Y-17978936D02*
X12243991Y-17959889D01*
X12243991Y-17959889D02*
X12243991Y-17902746D01*
X12243991Y-17902746D02*
X12253515Y-17883698D01*
X12253515Y-17883698D02*
X12263039Y-17874174D01*
X12263039Y-17874174D02*
X12282087Y-17864650D01*
X12282087Y-17864650D02*
X12310658Y-17864650D01*
X12310658Y-17864650D02*
X12329706Y-17874174D01*
X12329706Y-17874174D02*
X12339230Y-17883698D01*
X12339230Y-17883698D02*
X12348753Y-17902746D01*
X12348753Y-17902746D02*
X12348753Y-17959889D01*
X12348753Y-17959889D02*
X12339230Y-17978936D01*
X12339230Y-17978936D02*
X12329706Y-17988460D01*
X12329706Y-17988460D02*
X12310658Y-17997984D01*
X12310658Y-17997984D02*
X12282087Y-17997984D01*
X12463039Y-17997984D02*
X12443991Y-17988460D01*
X12443991Y-17988460D02*
X12434468Y-17969412D01*
X12434468Y-17969412D02*
X12434468Y-17797984D01*
X12615420Y-17988460D02*
X12596372Y-17997984D01*
X12596372Y-17997984D02*
X12558277Y-17997984D01*
X12558277Y-17997984D02*
X12539230Y-17988460D01*
X12539230Y-17988460D02*
X12529706Y-17969412D01*
X12529706Y-17969412D02*
X12529706Y-17893222D01*
X12529706Y-17893222D02*
X12539230Y-17874174D01*
X12539230Y-17874174D02*
X12558277Y-17864650D01*
X12558277Y-17864650D02*
X12596372Y-17864650D01*
X12596372Y-17864650D02*
X12615420Y-17874174D01*
X12615420Y-17874174D02*
X12624944Y-17893222D01*
X12624944Y-17893222D02*
X12624944Y-17912270D01*
X12624944Y-17912270D02*
X12529706Y-17931317D01*
X12701134Y-17988460D02*
X12720182Y-17997984D01*
X12720182Y-17997984D02*
X12758277Y-17997984D01*
X12758277Y-17997984D02*
X12777325Y-17988460D01*
X12777325Y-17988460D02*
X12786849Y-17969412D01*
X12786849Y-17969412D02*
X12786849Y-17959889D01*
X12786849Y-17959889D02*
X12777325Y-17940841D01*
X12777325Y-17940841D02*
X12758277Y-17931317D01*
X12758277Y-17931317D02*
X12729706Y-17931317D01*
X12729706Y-17931317D02*
X12710658Y-17921793D01*
X12710658Y-17921793D02*
X12701134Y-17902746D01*
X12701134Y-17902746D02*
X12701134Y-17893222D01*
X12701134Y-17893222D02*
X12710658Y-17874174D01*
X12710658Y-17874174D02*
X12729706Y-17864650D01*
X12729706Y-17864650D02*
X12758277Y-17864650D01*
X12758277Y-17864650D02*
X12777325Y-17874174D01*
X12853515Y-18074174D02*
X12863039Y-18064650D01*
X12863039Y-18064650D02*
X12882087Y-18036079D01*
X12882087Y-18036079D02*
X12891611Y-18017031D01*
X12891611Y-18017031D02*
X12901134Y-17988460D01*
X12901134Y-17988460D02*
X12910658Y-17940841D01*
X12910658Y-17940841D02*
X12910658Y-17902746D01*
X12910658Y-17902746D02*
X12901134Y-17855127D01*
X12901134Y-17855127D02*
X12891611Y-17826555D01*
X12891611Y-17826555D02*
X12882087Y-17807508D01*
X12882087Y-17807508D02*
X12863039Y-17778936D01*
X12863039Y-17778936D02*
X12853515Y-17769412D01*
D12*
X7667500Y-18140500D02*
X7667500Y-18200500D01*
X7637500Y-18170500D02*
X7697500Y-18170500D01*
D11*
X7996372Y-18061984D02*
X8015420Y-18061984D01*
X8015420Y-18061984D02*
X8034467Y-18071508D01*
X8034467Y-18071508D02*
X8043991Y-18081031D01*
X8043991Y-18081031D02*
X8053515Y-18100079D01*
X8053515Y-18100079D02*
X8063039Y-18138174D01*
X8063039Y-18138174D02*
X8063039Y-18185793D01*
X8063039Y-18185793D02*
X8053515Y-18223889D01*
X8053515Y-18223889D02*
X8043991Y-18242936D01*
X8043991Y-18242936D02*
X8034467Y-18252460D01*
X8034467Y-18252460D02*
X8015420Y-18261984D01*
X8015420Y-18261984D02*
X7996372Y-18261984D01*
X7996372Y-18261984D02*
X7977324Y-18252460D01*
X7977324Y-18252460D02*
X7967801Y-18242936D01*
X7967801Y-18242936D02*
X7958277Y-18223889D01*
X7958277Y-18223889D02*
X7948753Y-18185793D01*
X7948753Y-18185793D02*
X7948753Y-18138174D01*
X7948753Y-18138174D02*
X7958277Y-18100079D01*
X7958277Y-18100079D02*
X7967801Y-18081031D01*
X7967801Y-18081031D02*
X7977324Y-18071508D01*
X7977324Y-18071508D02*
X7996372Y-18061984D01*
X8148753Y-18242936D02*
X8158277Y-18252460D01*
X8158277Y-18252460D02*
X8148753Y-18261984D01*
X8148753Y-18261984D02*
X8139229Y-18252460D01*
X8139229Y-18252460D02*
X8148753Y-18242936D01*
X8148753Y-18242936D02*
X8148753Y-18261984D01*
X8329705Y-18061984D02*
X8291610Y-18061984D01*
X8291610Y-18061984D02*
X8272562Y-18071508D01*
X8272562Y-18071508D02*
X8263039Y-18081031D01*
X8263039Y-18081031D02*
X8243991Y-18109603D01*
X8243991Y-18109603D02*
X8234467Y-18147698D01*
X8234467Y-18147698D02*
X8234467Y-18223889D01*
X8234467Y-18223889D02*
X8243991Y-18242936D01*
X8243991Y-18242936D02*
X8253515Y-18252460D01*
X8253515Y-18252460D02*
X8272562Y-18261984D01*
X8272562Y-18261984D02*
X8310658Y-18261984D01*
X8310658Y-18261984D02*
X8329705Y-18252460D01*
X8329705Y-18252460D02*
X8339229Y-18242936D01*
X8339229Y-18242936D02*
X8348753Y-18223889D01*
X8348753Y-18223889D02*
X8348753Y-18176270D01*
X8348753Y-18176270D02*
X8339229Y-18157222D01*
X8339229Y-18157222D02*
X8329705Y-18147698D01*
X8329705Y-18147698D02*
X8310658Y-18138174D01*
X8310658Y-18138174D02*
X8272562Y-18138174D01*
X8272562Y-18138174D02*
X8253515Y-18147698D01*
X8253515Y-18147698D02*
X8243991Y-18157222D01*
X8243991Y-18157222D02*
X8234467Y-18176270D01*
X8472563Y-18061984D02*
X8491610Y-18061984D01*
X8491610Y-18061984D02*
X8510658Y-18071508D01*
X8510658Y-18071508D02*
X8520182Y-18081031D01*
X8520182Y-18081031D02*
X8529705Y-18100079D01*
X8529705Y-18100079D02*
X8539229Y-18138174D01*
X8539229Y-18138174D02*
X8539229Y-18185793D01*
X8539229Y-18185793D02*
X8529705Y-18223889D01*
X8529705Y-18223889D02*
X8520182Y-18242936D01*
X8520182Y-18242936D02*
X8510658Y-18252460D01*
X8510658Y-18252460D02*
X8491610Y-18261984D01*
X8491610Y-18261984D02*
X8472563Y-18261984D01*
X8472563Y-18261984D02*
X8453515Y-18252460D01*
X8453515Y-18252460D02*
X8443991Y-18242936D01*
X8443991Y-18242936D02*
X8434467Y-18223889D01*
X8434467Y-18223889D02*
X8424944Y-18185793D01*
X8424944Y-18185793D02*
X8424944Y-18138174D01*
X8424944Y-18138174D02*
X8434467Y-18100079D01*
X8434467Y-18100079D02*
X8443991Y-18081031D01*
X8443991Y-18081031D02*
X8453515Y-18071508D01*
X8453515Y-18071508D02*
X8472563Y-18061984D01*
X8663039Y-18061984D02*
X8682086Y-18061984D01*
X8682086Y-18061984D02*
X8701134Y-18071508D01*
X8701134Y-18071508D02*
X8710658Y-18081031D01*
X8710658Y-18081031D02*
X8720182Y-18100079D01*
X8720182Y-18100079D02*
X8729705Y-18138174D01*
X8729705Y-18138174D02*
X8729705Y-18185793D01*
X8729705Y-18185793D02*
X8720182Y-18223889D01*
X8720182Y-18223889D02*
X8710658Y-18242936D01*
X8710658Y-18242936D02*
X8701134Y-18252460D01*
X8701134Y-18252460D02*
X8682086Y-18261984D01*
X8682086Y-18261984D02*
X8663039Y-18261984D01*
X8663039Y-18261984D02*
X8643991Y-18252460D01*
X8643991Y-18252460D02*
X8634467Y-18242936D01*
X8634467Y-18242936D02*
X8624944Y-18223889D01*
X8624944Y-18223889D02*
X8615420Y-18185793D01*
X8615420Y-18185793D02*
X8615420Y-18138174D01*
X8615420Y-18138174D02*
X8624944Y-18100079D01*
X8624944Y-18100079D02*
X8634467Y-18081031D01*
X8634467Y-18081031D02*
X8643991Y-18071508D01*
X8643991Y-18071508D02*
X8663039Y-18061984D01*
X8815420Y-18261984D02*
X8815420Y-18128650D01*
X8815420Y-18147698D02*
X8824944Y-18138174D01*
X8824944Y-18138174D02*
X8843991Y-18128650D01*
X8843991Y-18128650D02*
X8872563Y-18128650D01*
X8872563Y-18128650D02*
X8891610Y-18138174D01*
X8891610Y-18138174D02*
X8901134Y-18157222D01*
X8901134Y-18157222D02*
X8901134Y-18261984D01*
X8901134Y-18157222D02*
X8910658Y-18138174D01*
X8910658Y-18138174D02*
X8929705Y-18128650D01*
X8929705Y-18128650D02*
X8958277Y-18128650D01*
X8958277Y-18128650D02*
X8977325Y-18138174D01*
X8977325Y-18138174D02*
X8986848Y-18157222D01*
X8986848Y-18157222D02*
X8986848Y-18261984D01*
X9082086Y-18261984D02*
X9082086Y-18128650D01*
X9082086Y-18147698D02*
X9091610Y-18138174D01*
X9091610Y-18138174D02*
X9110658Y-18128650D01*
X9110658Y-18128650D02*
X9139229Y-18128650D01*
X9139229Y-18128650D02*
X9158277Y-18138174D01*
X9158277Y-18138174D02*
X9167801Y-18157222D01*
X9167801Y-18157222D02*
X9167801Y-18261984D01*
X9167801Y-18157222D02*
X9177325Y-18138174D01*
X9177325Y-18138174D02*
X9196372Y-18128650D01*
X9196372Y-18128650D02*
X9224944Y-18128650D01*
X9224944Y-18128650D02*
X9243991Y-18138174D01*
X9243991Y-18138174D02*
X9253515Y-18157222D01*
X9253515Y-18157222D02*
X9253515Y-18261984D01*
X9643991Y-18052460D02*
X9472563Y-18309603D01*
X9901134Y-18061984D02*
X9920182Y-18061984D01*
X9920182Y-18061984D02*
X9939229Y-18071508D01*
X9939229Y-18071508D02*
X9948753Y-18081031D01*
X9948753Y-18081031D02*
X9958277Y-18100079D01*
X9958277Y-18100079D02*
X9967801Y-18138174D01*
X9967801Y-18138174D02*
X9967801Y-18185793D01*
X9967801Y-18185793D02*
X9958277Y-18223889D01*
X9958277Y-18223889D02*
X9948753Y-18242936D01*
X9948753Y-18242936D02*
X9939229Y-18252460D01*
X9939229Y-18252460D02*
X9920182Y-18261984D01*
X9920182Y-18261984D02*
X9901134Y-18261984D01*
X9901134Y-18261984D02*
X9882087Y-18252460D01*
X9882087Y-18252460D02*
X9872563Y-18242936D01*
X9872563Y-18242936D02*
X9863039Y-18223889D01*
X9863039Y-18223889D02*
X9853515Y-18185793D01*
X9853515Y-18185793D02*
X9853515Y-18138174D01*
X9853515Y-18138174D02*
X9863039Y-18100079D01*
X9863039Y-18100079D02*
X9872563Y-18081031D01*
X9872563Y-18081031D02*
X9882087Y-18071508D01*
X9882087Y-18071508D02*
X9901134Y-18061984D01*
X10053515Y-18242936D02*
X10063039Y-18252460D01*
X10063039Y-18252460D02*
X10053515Y-18261984D01*
X10053515Y-18261984D02*
X10043991Y-18252460D01*
X10043991Y-18252460D02*
X10053515Y-18242936D01*
X10053515Y-18242936D02*
X10053515Y-18261984D01*
X10186848Y-18061984D02*
X10205896Y-18061984D01*
X10205896Y-18061984D02*
X10224944Y-18071508D01*
X10224944Y-18071508D02*
X10234468Y-18081031D01*
X10234468Y-18081031D02*
X10243991Y-18100079D01*
X10243991Y-18100079D02*
X10253515Y-18138174D01*
X10253515Y-18138174D02*
X10253515Y-18185793D01*
X10253515Y-18185793D02*
X10243991Y-18223889D01*
X10243991Y-18223889D02*
X10234468Y-18242936D01*
X10234468Y-18242936D02*
X10224944Y-18252460D01*
X10224944Y-18252460D02*
X10205896Y-18261984D01*
X10205896Y-18261984D02*
X10186848Y-18261984D01*
X10186848Y-18261984D02*
X10167801Y-18252460D01*
X10167801Y-18252460D02*
X10158277Y-18242936D01*
X10158277Y-18242936D02*
X10148753Y-18223889D01*
X10148753Y-18223889D02*
X10139229Y-18185793D01*
X10139229Y-18185793D02*
X10139229Y-18138174D01*
X10139229Y-18138174D02*
X10148753Y-18100079D01*
X10148753Y-18100079D02*
X10158277Y-18081031D01*
X10158277Y-18081031D02*
X10167801Y-18071508D01*
X10167801Y-18071508D02*
X10186848Y-18061984D01*
X10329706Y-18081031D02*
X10339229Y-18071508D01*
X10339229Y-18071508D02*
X10358277Y-18061984D01*
X10358277Y-18061984D02*
X10405896Y-18061984D01*
X10405896Y-18061984D02*
X10424944Y-18071508D01*
X10424944Y-18071508D02*
X10434468Y-18081031D01*
X10434468Y-18081031D02*
X10443991Y-18100079D01*
X10443991Y-18100079D02*
X10443991Y-18119127D01*
X10443991Y-18119127D02*
X10434468Y-18147698D01*
X10434468Y-18147698D02*
X10320182Y-18261984D01*
X10320182Y-18261984D02*
X10443991Y-18261984D01*
X10510658Y-18061984D02*
X10634468Y-18061984D01*
X10634468Y-18061984D02*
X10567801Y-18138174D01*
X10567801Y-18138174D02*
X10596372Y-18138174D01*
X10596372Y-18138174D02*
X10615420Y-18147698D01*
X10615420Y-18147698D02*
X10624944Y-18157222D01*
X10624944Y-18157222D02*
X10634468Y-18176270D01*
X10634468Y-18176270D02*
X10634468Y-18223889D01*
X10634468Y-18223889D02*
X10624944Y-18242936D01*
X10624944Y-18242936D02*
X10615420Y-18252460D01*
X10615420Y-18252460D02*
X10596372Y-18261984D01*
X10596372Y-18261984D02*
X10539229Y-18261984D01*
X10539229Y-18261984D02*
X10520182Y-18252460D01*
X10520182Y-18252460D02*
X10510658Y-18242936D01*
X10805896Y-18061984D02*
X10767801Y-18061984D01*
X10767801Y-18061984D02*
X10748753Y-18071508D01*
X10748753Y-18071508D02*
X10739229Y-18081031D01*
X10739229Y-18081031D02*
X10720182Y-18109603D01*
X10720182Y-18109603D02*
X10710658Y-18147698D01*
X10710658Y-18147698D02*
X10710658Y-18223889D01*
X10710658Y-18223889D02*
X10720182Y-18242936D01*
X10720182Y-18242936D02*
X10729706Y-18252460D01*
X10729706Y-18252460D02*
X10748753Y-18261984D01*
X10748753Y-18261984D02*
X10786849Y-18261984D01*
X10786849Y-18261984D02*
X10805896Y-18252460D01*
X10805896Y-18252460D02*
X10815420Y-18242936D01*
X10815420Y-18242936D02*
X10824944Y-18223889D01*
X10824944Y-18223889D02*
X10824944Y-18176270D01*
X10824944Y-18176270D02*
X10815420Y-18157222D01*
X10815420Y-18157222D02*
X10805896Y-18147698D01*
X10805896Y-18147698D02*
X10786849Y-18138174D01*
X10786849Y-18138174D02*
X10748753Y-18138174D01*
X10748753Y-18138174D02*
X10729706Y-18147698D01*
X10729706Y-18147698D02*
X10720182Y-18157222D01*
X10720182Y-18157222D02*
X10710658Y-18176270D01*
X10901134Y-18061984D02*
X10901134Y-18100079D01*
X10977325Y-18061984D02*
X10977325Y-18100079D01*
X11272563Y-18338174D02*
X11263039Y-18328650D01*
X11263039Y-18328650D02*
X11243991Y-18300079D01*
X11243991Y-18300079D02*
X11234468Y-18281031D01*
X11234468Y-18281031D02*
X11224944Y-18252460D01*
X11224944Y-18252460D02*
X11215420Y-18204841D01*
X11215420Y-18204841D02*
X11215420Y-18166746D01*
X11215420Y-18166746D02*
X11224944Y-18119127D01*
X11224944Y-18119127D02*
X11234468Y-18090555D01*
X11234468Y-18090555D02*
X11243991Y-18071508D01*
X11243991Y-18071508D02*
X11263039Y-18042936D01*
X11263039Y-18042936D02*
X11272563Y-18033412D01*
X11386848Y-18061984D02*
X11405896Y-18061984D01*
X11405896Y-18061984D02*
X11424944Y-18071508D01*
X11424944Y-18071508D02*
X11434468Y-18081031D01*
X11434468Y-18081031D02*
X11443991Y-18100079D01*
X11443991Y-18100079D02*
X11453515Y-18138174D01*
X11453515Y-18138174D02*
X11453515Y-18185793D01*
X11453515Y-18185793D02*
X11443991Y-18223889D01*
X11443991Y-18223889D02*
X11434468Y-18242936D01*
X11434468Y-18242936D02*
X11424944Y-18252460D01*
X11424944Y-18252460D02*
X11405896Y-18261984D01*
X11405896Y-18261984D02*
X11386848Y-18261984D01*
X11386848Y-18261984D02*
X11367801Y-18252460D01*
X11367801Y-18252460D02*
X11358277Y-18242936D01*
X11358277Y-18242936D02*
X11348753Y-18223889D01*
X11348753Y-18223889D02*
X11339229Y-18185793D01*
X11339229Y-18185793D02*
X11339229Y-18138174D01*
X11339229Y-18138174D02*
X11348753Y-18100079D01*
X11348753Y-18100079D02*
X11358277Y-18081031D01*
X11358277Y-18081031D02*
X11367801Y-18071508D01*
X11367801Y-18071508D02*
X11386848Y-18061984D01*
X11691610Y-18261984D02*
X11691610Y-18061984D01*
X11777325Y-18261984D02*
X11777325Y-18157222D01*
X11777325Y-18157222D02*
X11767801Y-18138174D01*
X11767801Y-18138174D02*
X11748753Y-18128650D01*
X11748753Y-18128650D02*
X11720182Y-18128650D01*
X11720182Y-18128650D02*
X11701134Y-18138174D01*
X11701134Y-18138174D02*
X11691610Y-18147698D01*
X11901134Y-18261984D02*
X11882087Y-18252460D01*
X11882087Y-18252460D02*
X11872563Y-18242936D01*
X11872563Y-18242936D02*
X11863039Y-18223889D01*
X11863039Y-18223889D02*
X11863039Y-18166746D01*
X11863039Y-18166746D02*
X11872563Y-18147698D01*
X11872563Y-18147698D02*
X11882087Y-18138174D01*
X11882087Y-18138174D02*
X11901134Y-18128650D01*
X11901134Y-18128650D02*
X11929706Y-18128650D01*
X11929706Y-18128650D02*
X11948753Y-18138174D01*
X11948753Y-18138174D02*
X11958277Y-18147698D01*
X11958277Y-18147698D02*
X11967801Y-18166746D01*
X11967801Y-18166746D02*
X11967801Y-18223889D01*
X11967801Y-18223889D02*
X11958277Y-18242936D01*
X11958277Y-18242936D02*
X11948753Y-18252460D01*
X11948753Y-18252460D02*
X11929706Y-18261984D01*
X11929706Y-18261984D02*
X11901134Y-18261984D01*
X12082087Y-18261984D02*
X12063039Y-18252460D01*
X12063039Y-18252460D02*
X12053515Y-18233412D01*
X12053515Y-18233412D02*
X12053515Y-18061984D01*
X12234468Y-18252460D02*
X12215420Y-18261984D01*
X12215420Y-18261984D02*
X12177325Y-18261984D01*
X12177325Y-18261984D02*
X12158277Y-18252460D01*
X12158277Y-18252460D02*
X12148753Y-18233412D01*
X12148753Y-18233412D02*
X12148753Y-18157222D01*
X12148753Y-18157222D02*
X12158277Y-18138174D01*
X12158277Y-18138174D02*
X12177325Y-18128650D01*
X12177325Y-18128650D02*
X12215420Y-18128650D01*
X12215420Y-18128650D02*
X12234468Y-18138174D01*
X12234468Y-18138174D02*
X12243991Y-18157222D01*
X12243991Y-18157222D02*
X12243991Y-18176270D01*
X12243991Y-18176270D02*
X12148753Y-18195317D01*
X12320182Y-18252460D02*
X12339230Y-18261984D01*
X12339230Y-18261984D02*
X12377325Y-18261984D01*
X12377325Y-18261984D02*
X12396372Y-18252460D01*
X12396372Y-18252460D02*
X12405896Y-18233412D01*
X12405896Y-18233412D02*
X12405896Y-18223889D01*
X12405896Y-18223889D02*
X12396372Y-18204841D01*
X12396372Y-18204841D02*
X12377325Y-18195317D01*
X12377325Y-18195317D02*
X12348753Y-18195317D01*
X12348753Y-18195317D02*
X12329706Y-18185793D01*
X12329706Y-18185793D02*
X12320182Y-18166746D01*
X12320182Y-18166746D02*
X12320182Y-18157222D01*
X12320182Y-18157222D02*
X12329706Y-18138174D01*
X12329706Y-18138174D02*
X12348753Y-18128650D01*
X12348753Y-18128650D02*
X12377325Y-18128650D01*
X12377325Y-18128650D02*
X12396372Y-18138174D01*
X12643992Y-18185793D02*
X12796373Y-18185793D01*
X12720182Y-18261984D02*
X12720182Y-18109603D01*
X13129706Y-18128650D02*
X13129706Y-18261984D01*
X13082087Y-18052460D02*
X13034468Y-18195317D01*
X13034468Y-18195317D02*
X13158277Y-18195317D01*
X13377325Y-18252460D02*
X13396373Y-18261984D01*
X13396373Y-18261984D02*
X13434468Y-18261984D01*
X13434468Y-18261984D02*
X13453515Y-18252460D01*
X13453515Y-18252460D02*
X13463039Y-18233412D01*
X13463039Y-18233412D02*
X13463039Y-18223889D01*
X13463039Y-18223889D02*
X13453515Y-18204841D01*
X13453515Y-18204841D02*
X13434468Y-18195317D01*
X13434468Y-18195317D02*
X13405896Y-18195317D01*
X13405896Y-18195317D02*
X13386849Y-18185793D01*
X13386849Y-18185793D02*
X13377325Y-18166746D01*
X13377325Y-18166746D02*
X13377325Y-18157222D01*
X13377325Y-18157222D02*
X13386849Y-18138174D01*
X13386849Y-18138174D02*
X13405896Y-18128650D01*
X13405896Y-18128650D02*
X13434468Y-18128650D01*
X13434468Y-18128650D02*
X13453515Y-18138174D01*
X13577325Y-18261984D02*
X13558277Y-18252460D01*
X13558277Y-18252460D02*
X13548754Y-18233412D01*
X13548754Y-18233412D02*
X13548754Y-18061984D01*
X13682087Y-18261984D02*
X13663039Y-18252460D01*
X13663039Y-18252460D02*
X13653515Y-18242936D01*
X13653515Y-18242936D02*
X13643992Y-18223889D01*
X13643992Y-18223889D02*
X13643992Y-18166746D01*
X13643992Y-18166746D02*
X13653515Y-18147698D01*
X13653515Y-18147698D02*
X13663039Y-18138174D01*
X13663039Y-18138174D02*
X13682087Y-18128650D01*
X13682087Y-18128650D02*
X13710658Y-18128650D01*
X13710658Y-18128650D02*
X13729706Y-18138174D01*
X13729706Y-18138174D02*
X13739230Y-18147698D01*
X13739230Y-18147698D02*
X13748754Y-18166746D01*
X13748754Y-18166746D02*
X13748754Y-18223889D01*
X13748754Y-18223889D02*
X13739230Y-18242936D01*
X13739230Y-18242936D02*
X13729706Y-18252460D01*
X13729706Y-18252460D02*
X13710658Y-18261984D01*
X13710658Y-18261984D02*
X13682087Y-18261984D01*
X13805896Y-18128650D02*
X13882087Y-18128650D01*
X13834468Y-18061984D02*
X13834468Y-18233412D01*
X13834468Y-18233412D02*
X13843992Y-18252460D01*
X13843992Y-18252460D02*
X13863039Y-18261984D01*
X13863039Y-18261984D02*
X13882087Y-18261984D01*
X13939230Y-18252460D02*
X13958277Y-18261984D01*
X13958277Y-18261984D02*
X13996373Y-18261984D01*
X13996373Y-18261984D02*
X14015420Y-18252460D01*
X14015420Y-18252460D02*
X14024944Y-18233412D01*
X14024944Y-18233412D02*
X14024944Y-18223889D01*
X14024944Y-18223889D02*
X14015420Y-18204841D01*
X14015420Y-18204841D02*
X13996373Y-18195317D01*
X13996373Y-18195317D02*
X13967801Y-18195317D01*
X13967801Y-18195317D02*
X13948754Y-18185793D01*
X13948754Y-18185793D02*
X13939230Y-18166746D01*
X13939230Y-18166746D02*
X13939230Y-18157222D01*
X13939230Y-18157222D02*
X13948754Y-18138174D01*
X13948754Y-18138174D02*
X13967801Y-18128650D01*
X13967801Y-18128650D02*
X13996373Y-18128650D01*
X13996373Y-18128650D02*
X14015420Y-18138174D01*
X14091611Y-18338174D02*
X14101135Y-18328650D01*
X14101135Y-18328650D02*
X14120182Y-18300079D01*
X14120182Y-18300079D02*
X14129706Y-18281031D01*
X14129706Y-18281031D02*
X14139230Y-18252460D01*
X14139230Y-18252460D02*
X14148754Y-18204841D01*
X14148754Y-18204841D02*
X14148754Y-18166746D01*
X14148754Y-18166746D02*
X14139230Y-18119127D01*
X14139230Y-18119127D02*
X14129706Y-18090555D01*
X14129706Y-18090555D02*
X14120182Y-18071508D01*
X14120182Y-18071508D02*
X14101135Y-18042936D01*
X14101135Y-18042936D02*
X14091611Y-18033412D01*
D12*
X7682856Y-18469856D02*
X7682856Y-18399144D01*
X7612144Y-18399144D01*
X7612144Y-18469856D01*
X7682856Y-18469856D01*
D11*
X8063039Y-18525984D02*
X7948753Y-18525984D01*
X8005896Y-18525984D02*
X8005896Y-18325984D01*
X8005896Y-18325984D02*
X7986848Y-18354555D01*
X7986848Y-18354555D02*
X7967801Y-18373603D01*
X7967801Y-18373603D02*
X7948753Y-18383127D01*
X8148753Y-18506936D02*
X8158277Y-18516460D01*
X8158277Y-18516460D02*
X8148753Y-18525984D01*
X8148753Y-18525984D02*
X8139229Y-18516460D01*
X8139229Y-18516460D02*
X8148753Y-18506936D01*
X8148753Y-18506936D02*
X8148753Y-18525984D01*
X8282086Y-18325984D02*
X8301134Y-18325984D01*
X8301134Y-18325984D02*
X8320182Y-18335508D01*
X8320182Y-18335508D02*
X8329705Y-18345031D01*
X8329705Y-18345031D02*
X8339229Y-18364079D01*
X8339229Y-18364079D02*
X8348753Y-18402174D01*
X8348753Y-18402174D02*
X8348753Y-18449793D01*
X8348753Y-18449793D02*
X8339229Y-18487889D01*
X8339229Y-18487889D02*
X8329705Y-18506936D01*
X8329705Y-18506936D02*
X8320182Y-18516460D01*
X8320182Y-18516460D02*
X8301134Y-18525984D01*
X8301134Y-18525984D02*
X8282086Y-18525984D01*
X8282086Y-18525984D02*
X8263039Y-18516460D01*
X8263039Y-18516460D02*
X8253515Y-18506936D01*
X8253515Y-18506936D02*
X8243991Y-18487889D01*
X8243991Y-18487889D02*
X8234467Y-18449793D01*
X8234467Y-18449793D02*
X8234467Y-18402174D01*
X8234467Y-18402174D02*
X8243991Y-18364079D01*
X8243991Y-18364079D02*
X8253515Y-18345031D01*
X8253515Y-18345031D02*
X8263039Y-18335508D01*
X8263039Y-18335508D02*
X8282086Y-18325984D01*
X8472563Y-18325984D02*
X8491610Y-18325984D01*
X8491610Y-18325984D02*
X8510658Y-18335508D01*
X8510658Y-18335508D02*
X8520182Y-18345031D01*
X8520182Y-18345031D02*
X8529705Y-18364079D01*
X8529705Y-18364079D02*
X8539229Y-18402174D01*
X8539229Y-18402174D02*
X8539229Y-18449793D01*
X8539229Y-18449793D02*
X8529705Y-18487889D01*
X8529705Y-18487889D02*
X8520182Y-18506936D01*
X8520182Y-18506936D02*
X8510658Y-18516460D01*
X8510658Y-18516460D02*
X8491610Y-18525984D01*
X8491610Y-18525984D02*
X8472563Y-18525984D01*
X8472563Y-18525984D02*
X8453515Y-18516460D01*
X8453515Y-18516460D02*
X8443991Y-18506936D01*
X8443991Y-18506936D02*
X8434467Y-18487889D01*
X8434467Y-18487889D02*
X8424944Y-18449793D01*
X8424944Y-18449793D02*
X8424944Y-18402174D01*
X8424944Y-18402174D02*
X8434467Y-18364079D01*
X8434467Y-18364079D02*
X8443991Y-18345031D01*
X8443991Y-18345031D02*
X8453515Y-18335508D01*
X8453515Y-18335508D02*
X8472563Y-18325984D01*
X8663039Y-18325984D02*
X8682086Y-18325984D01*
X8682086Y-18325984D02*
X8701134Y-18335508D01*
X8701134Y-18335508D02*
X8710658Y-18345031D01*
X8710658Y-18345031D02*
X8720182Y-18364079D01*
X8720182Y-18364079D02*
X8729705Y-18402174D01*
X8729705Y-18402174D02*
X8729705Y-18449793D01*
X8729705Y-18449793D02*
X8720182Y-18487889D01*
X8720182Y-18487889D02*
X8710658Y-18506936D01*
X8710658Y-18506936D02*
X8701134Y-18516460D01*
X8701134Y-18516460D02*
X8682086Y-18525984D01*
X8682086Y-18525984D02*
X8663039Y-18525984D01*
X8663039Y-18525984D02*
X8643991Y-18516460D01*
X8643991Y-18516460D02*
X8634467Y-18506936D01*
X8634467Y-18506936D02*
X8624944Y-18487889D01*
X8624944Y-18487889D02*
X8615420Y-18449793D01*
X8615420Y-18449793D02*
X8615420Y-18402174D01*
X8615420Y-18402174D02*
X8624944Y-18364079D01*
X8624944Y-18364079D02*
X8634467Y-18345031D01*
X8634467Y-18345031D02*
X8643991Y-18335508D01*
X8643991Y-18335508D02*
X8663039Y-18325984D01*
X8815420Y-18525984D02*
X8815420Y-18392650D01*
X8815420Y-18411698D02*
X8824944Y-18402174D01*
X8824944Y-18402174D02*
X8843991Y-18392650D01*
X8843991Y-18392650D02*
X8872563Y-18392650D01*
X8872563Y-18392650D02*
X8891610Y-18402174D01*
X8891610Y-18402174D02*
X8901134Y-18421222D01*
X8901134Y-18421222D02*
X8901134Y-18525984D01*
X8901134Y-18421222D02*
X8910658Y-18402174D01*
X8910658Y-18402174D02*
X8929705Y-18392650D01*
X8929705Y-18392650D02*
X8958277Y-18392650D01*
X8958277Y-18392650D02*
X8977325Y-18402174D01*
X8977325Y-18402174D02*
X8986848Y-18421222D01*
X8986848Y-18421222D02*
X8986848Y-18525984D01*
X9082086Y-18525984D02*
X9082086Y-18392650D01*
X9082086Y-18411698D02*
X9091610Y-18402174D01*
X9091610Y-18402174D02*
X9110658Y-18392650D01*
X9110658Y-18392650D02*
X9139229Y-18392650D01*
X9139229Y-18392650D02*
X9158277Y-18402174D01*
X9158277Y-18402174D02*
X9167801Y-18421222D01*
X9167801Y-18421222D02*
X9167801Y-18525984D01*
X9167801Y-18421222D02*
X9177325Y-18402174D01*
X9177325Y-18402174D02*
X9196372Y-18392650D01*
X9196372Y-18392650D02*
X9224944Y-18392650D01*
X9224944Y-18392650D02*
X9243991Y-18402174D01*
X9243991Y-18402174D02*
X9253515Y-18421222D01*
X9253515Y-18421222D02*
X9253515Y-18525984D01*
X9643991Y-18316460D02*
X9472563Y-18573603D01*
X9901134Y-18325984D02*
X9920182Y-18325984D01*
X9920182Y-18325984D02*
X9939229Y-18335508D01*
X9939229Y-18335508D02*
X9948753Y-18345031D01*
X9948753Y-18345031D02*
X9958277Y-18364079D01*
X9958277Y-18364079D02*
X9967801Y-18402174D01*
X9967801Y-18402174D02*
X9967801Y-18449793D01*
X9967801Y-18449793D02*
X9958277Y-18487889D01*
X9958277Y-18487889D02*
X9948753Y-18506936D01*
X9948753Y-18506936D02*
X9939229Y-18516460D01*
X9939229Y-18516460D02*
X9920182Y-18525984D01*
X9920182Y-18525984D02*
X9901134Y-18525984D01*
X9901134Y-18525984D02*
X9882087Y-18516460D01*
X9882087Y-18516460D02*
X9872563Y-18506936D01*
X9872563Y-18506936D02*
X9863039Y-18487889D01*
X9863039Y-18487889D02*
X9853515Y-18449793D01*
X9853515Y-18449793D02*
X9853515Y-18402174D01*
X9853515Y-18402174D02*
X9863039Y-18364079D01*
X9863039Y-18364079D02*
X9872563Y-18345031D01*
X9872563Y-18345031D02*
X9882087Y-18335508D01*
X9882087Y-18335508D02*
X9901134Y-18325984D01*
X10053515Y-18506936D02*
X10063039Y-18516460D01*
X10063039Y-18516460D02*
X10053515Y-18525984D01*
X10053515Y-18525984D02*
X10043991Y-18516460D01*
X10043991Y-18516460D02*
X10053515Y-18506936D01*
X10053515Y-18506936D02*
X10053515Y-18525984D01*
X10186848Y-18325984D02*
X10205896Y-18325984D01*
X10205896Y-18325984D02*
X10224944Y-18335508D01*
X10224944Y-18335508D02*
X10234468Y-18345031D01*
X10234468Y-18345031D02*
X10243991Y-18364079D01*
X10243991Y-18364079D02*
X10253515Y-18402174D01*
X10253515Y-18402174D02*
X10253515Y-18449793D01*
X10253515Y-18449793D02*
X10243991Y-18487889D01*
X10243991Y-18487889D02*
X10234468Y-18506936D01*
X10234468Y-18506936D02*
X10224944Y-18516460D01*
X10224944Y-18516460D02*
X10205896Y-18525984D01*
X10205896Y-18525984D02*
X10186848Y-18525984D01*
X10186848Y-18525984D02*
X10167801Y-18516460D01*
X10167801Y-18516460D02*
X10158277Y-18506936D01*
X10158277Y-18506936D02*
X10148753Y-18487889D01*
X10148753Y-18487889D02*
X10139229Y-18449793D01*
X10139229Y-18449793D02*
X10139229Y-18402174D01*
X10139229Y-18402174D02*
X10148753Y-18364079D01*
X10148753Y-18364079D02*
X10158277Y-18345031D01*
X10158277Y-18345031D02*
X10167801Y-18335508D01*
X10167801Y-18335508D02*
X10186848Y-18325984D01*
X10320182Y-18325984D02*
X10443991Y-18325984D01*
X10443991Y-18325984D02*
X10377325Y-18402174D01*
X10377325Y-18402174D02*
X10405896Y-18402174D01*
X10405896Y-18402174D02*
X10424944Y-18411698D01*
X10424944Y-18411698D02*
X10434468Y-18421222D01*
X10434468Y-18421222D02*
X10443991Y-18440270D01*
X10443991Y-18440270D02*
X10443991Y-18487889D01*
X10443991Y-18487889D02*
X10434468Y-18506936D01*
X10434468Y-18506936D02*
X10424944Y-18516460D01*
X10424944Y-18516460D02*
X10405896Y-18525984D01*
X10405896Y-18525984D02*
X10348753Y-18525984D01*
X10348753Y-18525984D02*
X10329706Y-18516460D01*
X10329706Y-18516460D02*
X10320182Y-18506936D01*
X10539229Y-18525984D02*
X10577325Y-18525984D01*
X10577325Y-18525984D02*
X10596372Y-18516460D01*
X10596372Y-18516460D02*
X10605896Y-18506936D01*
X10605896Y-18506936D02*
X10624944Y-18478365D01*
X10624944Y-18478365D02*
X10634468Y-18440270D01*
X10634468Y-18440270D02*
X10634468Y-18364079D01*
X10634468Y-18364079D02*
X10624944Y-18345031D01*
X10624944Y-18345031D02*
X10615420Y-18335508D01*
X10615420Y-18335508D02*
X10596372Y-18325984D01*
X10596372Y-18325984D02*
X10558277Y-18325984D01*
X10558277Y-18325984D02*
X10539229Y-18335508D01*
X10539229Y-18335508D02*
X10529706Y-18345031D01*
X10529706Y-18345031D02*
X10520182Y-18364079D01*
X10520182Y-18364079D02*
X10520182Y-18411698D01*
X10520182Y-18411698D02*
X10529706Y-18430746D01*
X10529706Y-18430746D02*
X10539229Y-18440270D01*
X10539229Y-18440270D02*
X10558277Y-18449793D01*
X10558277Y-18449793D02*
X10596372Y-18449793D01*
X10596372Y-18449793D02*
X10615420Y-18440270D01*
X10615420Y-18440270D02*
X10624944Y-18430746D01*
X10624944Y-18430746D02*
X10634468Y-18411698D01*
X10805896Y-18392650D02*
X10805896Y-18525984D01*
X10758277Y-18316460D02*
X10710658Y-18459317D01*
X10710658Y-18459317D02*
X10834468Y-18459317D01*
X10901134Y-18325984D02*
X10901134Y-18364079D01*
X10977325Y-18325984D02*
X10977325Y-18364079D01*
X11272563Y-18602174D02*
X11263039Y-18592650D01*
X11263039Y-18592650D02*
X11243991Y-18564079D01*
X11243991Y-18564079D02*
X11234468Y-18545031D01*
X11234468Y-18545031D02*
X11224944Y-18516460D01*
X11224944Y-18516460D02*
X11215420Y-18468841D01*
X11215420Y-18468841D02*
X11215420Y-18430746D01*
X11215420Y-18430746D02*
X11224944Y-18383127D01*
X11224944Y-18383127D02*
X11234468Y-18354555D01*
X11234468Y-18354555D02*
X11243991Y-18335508D01*
X11243991Y-18335508D02*
X11263039Y-18306936D01*
X11263039Y-18306936D02*
X11272563Y-18297412D01*
X11339229Y-18345031D02*
X11348753Y-18335508D01*
X11348753Y-18335508D02*
X11367801Y-18325984D01*
X11367801Y-18325984D02*
X11415420Y-18325984D01*
X11415420Y-18325984D02*
X11434468Y-18335508D01*
X11434468Y-18335508D02*
X11443991Y-18345031D01*
X11443991Y-18345031D02*
X11453515Y-18364079D01*
X11453515Y-18364079D02*
X11453515Y-18383127D01*
X11453515Y-18383127D02*
X11443991Y-18411698D01*
X11443991Y-18411698D02*
X11329706Y-18525984D01*
X11329706Y-18525984D02*
X11453515Y-18525984D01*
X11577325Y-18325984D02*
X11596372Y-18325984D01*
X11596372Y-18325984D02*
X11615420Y-18335508D01*
X11615420Y-18335508D02*
X11624944Y-18345031D01*
X11624944Y-18345031D02*
X11634468Y-18364079D01*
X11634468Y-18364079D02*
X11643991Y-18402174D01*
X11643991Y-18402174D02*
X11643991Y-18449793D01*
X11643991Y-18449793D02*
X11634468Y-18487889D01*
X11634468Y-18487889D02*
X11624944Y-18506936D01*
X11624944Y-18506936D02*
X11615420Y-18516460D01*
X11615420Y-18516460D02*
X11596372Y-18525984D01*
X11596372Y-18525984D02*
X11577325Y-18525984D01*
X11577325Y-18525984D02*
X11558277Y-18516460D01*
X11558277Y-18516460D02*
X11548753Y-18506936D01*
X11548753Y-18506936D02*
X11539229Y-18487889D01*
X11539229Y-18487889D02*
X11529706Y-18449793D01*
X11529706Y-18449793D02*
X11529706Y-18402174D01*
X11529706Y-18402174D02*
X11539229Y-18364079D01*
X11539229Y-18364079D02*
X11548753Y-18345031D01*
X11548753Y-18345031D02*
X11558277Y-18335508D01*
X11558277Y-18335508D02*
X11577325Y-18325984D01*
X11882087Y-18525984D02*
X11882087Y-18325984D01*
X11967801Y-18525984D02*
X11967801Y-18421222D01*
X11967801Y-18421222D02*
X11958277Y-18402174D01*
X11958277Y-18402174D02*
X11939230Y-18392650D01*
X11939230Y-18392650D02*
X11910658Y-18392650D01*
X11910658Y-18392650D02*
X11891610Y-18402174D01*
X11891610Y-18402174D02*
X11882087Y-18411698D01*
X12091610Y-18525984D02*
X12072563Y-18516460D01*
X12072563Y-18516460D02*
X12063039Y-18506936D01*
X12063039Y-18506936D02*
X12053515Y-18487889D01*
X12053515Y-18487889D02*
X12053515Y-18430746D01*
X12053515Y-18430746D02*
X12063039Y-18411698D01*
X12063039Y-18411698D02*
X12072563Y-18402174D01*
X12072563Y-18402174D02*
X12091610Y-18392650D01*
X12091610Y-18392650D02*
X12120182Y-18392650D01*
X12120182Y-18392650D02*
X12139230Y-18402174D01*
X12139230Y-18402174D02*
X12148753Y-18411698D01*
X12148753Y-18411698D02*
X12158277Y-18430746D01*
X12158277Y-18430746D02*
X12158277Y-18487889D01*
X12158277Y-18487889D02*
X12148753Y-18506936D01*
X12148753Y-18506936D02*
X12139230Y-18516460D01*
X12139230Y-18516460D02*
X12120182Y-18525984D01*
X12120182Y-18525984D02*
X12091610Y-18525984D01*
X12272563Y-18525984D02*
X12253515Y-18516460D01*
X12253515Y-18516460D02*
X12243991Y-18497412D01*
X12243991Y-18497412D02*
X12243991Y-18325984D01*
X12424944Y-18516460D02*
X12405896Y-18525984D01*
X12405896Y-18525984D02*
X12367801Y-18525984D01*
X12367801Y-18525984D02*
X12348753Y-18516460D01*
X12348753Y-18516460D02*
X12339230Y-18497412D01*
X12339230Y-18497412D02*
X12339230Y-18421222D01*
X12339230Y-18421222D02*
X12348753Y-18402174D01*
X12348753Y-18402174D02*
X12367801Y-18392650D01*
X12367801Y-18392650D02*
X12405896Y-18392650D01*
X12405896Y-18392650D02*
X12424944Y-18402174D01*
X12424944Y-18402174D02*
X12434468Y-18421222D01*
X12434468Y-18421222D02*
X12434468Y-18440270D01*
X12434468Y-18440270D02*
X12339230Y-18459317D01*
X12510658Y-18516460D02*
X12529706Y-18525984D01*
X12529706Y-18525984D02*
X12567801Y-18525984D01*
X12567801Y-18525984D02*
X12586849Y-18516460D01*
X12586849Y-18516460D02*
X12596372Y-18497412D01*
X12596372Y-18497412D02*
X12596372Y-18487889D01*
X12596372Y-18487889D02*
X12586849Y-18468841D01*
X12586849Y-18468841D02*
X12567801Y-18459317D01*
X12567801Y-18459317D02*
X12539230Y-18459317D01*
X12539230Y-18459317D02*
X12520182Y-18449793D01*
X12520182Y-18449793D02*
X12510658Y-18430746D01*
X12510658Y-18430746D02*
X12510658Y-18421222D01*
X12510658Y-18421222D02*
X12520182Y-18402174D01*
X12520182Y-18402174D02*
X12539230Y-18392650D01*
X12539230Y-18392650D02*
X12567801Y-18392650D01*
X12567801Y-18392650D02*
X12586849Y-18402174D01*
X12663039Y-18602174D02*
X12672563Y-18592650D01*
X12672563Y-18592650D02*
X12691611Y-18564079D01*
X12691611Y-18564079D02*
X12701134Y-18545031D01*
X12701134Y-18545031D02*
X12710658Y-18516460D01*
X12710658Y-18516460D02*
X12720182Y-18468841D01*
X12720182Y-18468841D02*
X12720182Y-18430746D01*
X12720182Y-18430746D02*
X12710658Y-18383127D01*
X12710658Y-18383127D02*
X12701134Y-18354555D01*
X12701134Y-18354555D02*
X12691611Y-18335508D01*
X12691611Y-18335508D02*
X12672563Y-18306936D01*
X12672563Y-18306936D02*
X12663039Y-18297412D01*
M02*
