%TF.GenerationSoftware,KiCad,Pcbnew,10.0.2*%
%TF.CreationDate,2026-05-31T18:57:10-07:00*%
%TF.ProjectId,nes-dev-cart,6e65732d-6465-4762-9d63-6172742e6b69,4.0*%
%TF.SameCoordinates,Original*%
%TF.FileFunction,Legend,Top*%
%TF.FilePolarity,Positive*%
%FSLAX46Y46*%
G04 Gerber Fmt 4.6, Leading zero omitted, Abs format (unit mm)*
G04 Created by KiCad (PCBNEW 10.0.2) date 2026-05-31 18:57:10*
%MOMM*%
%LPD*%
G01*
G04 APERTURE LIST*
G04 Aperture macros list*
%AMRoundRect*
0 Rectangle with rounded corners*
0 $1 Rounding radius*
0 $2 $3 $4 $5 $6 $7 $8 $9 X,Y pos of 4 corners*
0 Add a 4 corners polygon primitive as box body*
4,1,4,$2,$3,$4,$5,$6,$7,$8,$9,$2,$3,0*
0 Add four circle primitives for the rounded corners*
1,1,$1+$1,$2,$3*
1,1,$1+$1,$4,$5*
1,1,$1+$1,$6,$7*
1,1,$1+$1,$8,$9*
0 Add four rect primitives between the rounded corners*
20,1,$1+$1,$2,$3,$4,$5,0*
20,1,$1+$1,$4,$5,$6,$7,0*
20,1,$1+$1,$6,$7,$8,$9,0*
20,1,$1+$1,$8,$9,$2,$3,0*%
G04 Aperture macros list end*
%ADD10C,0.150000*%
%ADD11C,0.120000*%
%ADD12RoundRect,0.275500X-0.275500X-0.500500X0.275500X-0.500500X0.275500X0.500500X-0.275500X0.500500X0*%
%ADD13RoundRect,0.051000X-0.850000X-0.850000X0.850000X-0.850000X0.850000X0.850000X-0.850000X0.850000X0*%
%ADD14C,1.802000*%
%ADD15RoundRect,0.274878X-0.288622X-0.476122X0.288622X-0.476122X0.288622X0.476122X-0.288622X0.476122X0*%
%ADD16RoundRect,0.244250X-0.406750X-0.244250X0.406750X-0.244250X0.406750X0.244250X-0.406750X0.244250X0*%
%ADD17RoundRect,0.269250X-0.269250X-0.481750X0.269250X-0.481750X0.269250X0.481750X-0.269250X0.481750X0*%
%ADD18RoundRect,0.275500X-0.500500X-0.275500X0.500500X-0.275500X0.500500X0.275500X-0.500500X0.275500X0*%
%ADD19RoundRect,0.269615X-0.556385X-0.431385X0.556385X-0.431385X0.556385X0.431385X-0.556385X0.431385X0*%
%ADD20RoundRect,0.100500X-0.100500X-0.688000X0.100500X-0.688000X0.100500X0.688000X-0.100500X0.688000X0*%
%ADD21C,0.752000*%
%ADD22RoundRect,0.175500X-0.175500X-0.600500X0.175500X-0.600500X0.175500X0.600500X-0.175500X0.600500X0*%
%ADD23RoundRect,0.100500X-0.100500X-0.675500X0.100500X-0.675500X0.100500X0.675500X-0.100500X0.675500X0*%
%ADD24O,1.102000X2.202000*%
%ADD25O,1.102000X1.702000*%
%ADD26RoundRect,0.250500X-0.250500X-0.400500X0.250500X-0.400500X0.250500X0.400500X-0.250500X0.400500X0*%
%ADD27RoundRect,0.271250X-0.479750X-0.379750X0.479750X-0.379750X0.479750X0.379750X-0.479750X0.379750X0*%
%ADD28RoundRect,0.100500X-0.725500X-0.100500X0.725500X-0.100500X0.725500X0.100500X-0.725500X0.100500X0*%
%ADD29RoundRect,0.100500X-0.100500X-0.725500X0.100500X-0.725500X0.100500X0.725500X-0.100500X0.725500X0*%
G04 APERTURE END LIST*
D10*
X115607143Y-64686128D02*
X115607143Y-63186128D01*
X115607143Y-63186128D02*
X116464286Y-64686128D01*
X116464286Y-64686128D02*
X116464286Y-63186128D01*
X117178572Y-63900414D02*
X117678572Y-63900414D01*
X117892858Y-64686128D02*
X117178572Y-64686128D01*
X117178572Y-64686128D02*
X117178572Y-63186128D01*
X117178572Y-63186128D02*
X117892858Y-63186128D01*
X118464287Y-64614700D02*
X118678573Y-64686128D01*
X118678573Y-64686128D02*
X119035715Y-64686128D01*
X119035715Y-64686128D02*
X119178573Y-64614700D01*
X119178573Y-64614700D02*
X119250001Y-64543271D01*
X119250001Y-64543271D02*
X119321430Y-64400414D01*
X119321430Y-64400414D02*
X119321430Y-64257557D01*
X119321430Y-64257557D02*
X119250001Y-64114700D01*
X119250001Y-64114700D02*
X119178573Y-64043271D01*
X119178573Y-64043271D02*
X119035715Y-63971842D01*
X119035715Y-63971842D02*
X118750001Y-63900414D01*
X118750001Y-63900414D02*
X118607144Y-63828985D01*
X118607144Y-63828985D02*
X118535715Y-63757557D01*
X118535715Y-63757557D02*
X118464287Y-63614700D01*
X118464287Y-63614700D02*
X118464287Y-63471842D01*
X118464287Y-63471842D02*
X118535715Y-63328985D01*
X118535715Y-63328985D02*
X118607144Y-63257557D01*
X118607144Y-63257557D02*
X118750001Y-63186128D01*
X118750001Y-63186128D02*
X119107144Y-63186128D01*
X119107144Y-63186128D02*
X119321430Y-63257557D01*
X119964286Y-64114700D02*
X121107144Y-64114700D01*
X121821429Y-64686128D02*
X121821429Y-63186128D01*
X121821429Y-63186128D02*
X122178572Y-63186128D01*
X122178572Y-63186128D02*
X122392858Y-63257557D01*
X122392858Y-63257557D02*
X122535715Y-63400414D01*
X122535715Y-63400414D02*
X122607144Y-63543271D01*
X122607144Y-63543271D02*
X122678572Y-63828985D01*
X122678572Y-63828985D02*
X122678572Y-64043271D01*
X122678572Y-64043271D02*
X122607144Y-64328985D01*
X122607144Y-64328985D02*
X122535715Y-64471842D01*
X122535715Y-64471842D02*
X122392858Y-64614700D01*
X122392858Y-64614700D02*
X122178572Y-64686128D01*
X122178572Y-64686128D02*
X121821429Y-64686128D01*
X123321429Y-63900414D02*
X123821429Y-63900414D01*
X124035715Y-64686128D02*
X123321429Y-64686128D01*
X123321429Y-64686128D02*
X123321429Y-63186128D01*
X123321429Y-63186128D02*
X124035715Y-63186128D01*
X124464287Y-63186128D02*
X124964287Y-64686128D01*
X124964287Y-64686128D02*
X125464287Y-63186128D01*
X125964286Y-64114700D02*
X127107144Y-64114700D01*
X128678572Y-64543271D02*
X128607144Y-64614700D01*
X128607144Y-64614700D02*
X128392858Y-64686128D01*
X128392858Y-64686128D02*
X128250001Y-64686128D01*
X128250001Y-64686128D02*
X128035715Y-64614700D01*
X128035715Y-64614700D02*
X127892858Y-64471842D01*
X127892858Y-64471842D02*
X127821429Y-64328985D01*
X127821429Y-64328985D02*
X127750001Y-64043271D01*
X127750001Y-64043271D02*
X127750001Y-63828985D01*
X127750001Y-63828985D02*
X127821429Y-63543271D01*
X127821429Y-63543271D02*
X127892858Y-63400414D01*
X127892858Y-63400414D02*
X128035715Y-63257557D01*
X128035715Y-63257557D02*
X128250001Y-63186128D01*
X128250001Y-63186128D02*
X128392858Y-63186128D01*
X128392858Y-63186128D02*
X128607144Y-63257557D01*
X128607144Y-63257557D02*
X128678572Y-63328985D01*
X129250001Y-64257557D02*
X129964287Y-64257557D01*
X129107144Y-64686128D02*
X129607144Y-63186128D01*
X129607144Y-63186128D02*
X130107144Y-64686128D01*
X131464286Y-64686128D02*
X130964286Y-63971842D01*
X130607143Y-64686128D02*
X130607143Y-63186128D01*
X130607143Y-63186128D02*
X131178572Y-63186128D01*
X131178572Y-63186128D02*
X131321429Y-63257557D01*
X131321429Y-63257557D02*
X131392858Y-63328985D01*
X131392858Y-63328985D02*
X131464286Y-63471842D01*
X131464286Y-63471842D02*
X131464286Y-63686128D01*
X131464286Y-63686128D02*
X131392858Y-63828985D01*
X131392858Y-63828985D02*
X131321429Y-63900414D01*
X131321429Y-63900414D02*
X131178572Y-63971842D01*
X131178572Y-63971842D02*
X130607143Y-63971842D01*
X131892858Y-63186128D02*
X132750001Y-63186128D01*
X132321429Y-64686128D02*
X132321429Y-63186128D01*
X134250000Y-63686128D02*
X134607143Y-64686128D01*
X134607143Y-64686128D02*
X134964286Y-63686128D01*
X136178572Y-63686128D02*
X136178572Y-64686128D01*
X135821429Y-63114700D02*
X135464286Y-64186128D01*
X135464286Y-64186128D02*
X136392857Y-64186128D01*
X136964285Y-64543271D02*
X137035714Y-64614700D01*
X137035714Y-64614700D02*
X136964285Y-64686128D01*
X136964285Y-64686128D02*
X136892857Y-64614700D01*
X136892857Y-64614700D02*
X136964285Y-64543271D01*
X136964285Y-64543271D02*
X136964285Y-64686128D01*
X137964286Y-63186128D02*
X138107143Y-63186128D01*
X138107143Y-63186128D02*
X138250000Y-63257557D01*
X138250000Y-63257557D02*
X138321429Y-63328985D01*
X138321429Y-63328985D02*
X138392857Y-63471842D01*
X138392857Y-63471842D02*
X138464286Y-63757557D01*
X138464286Y-63757557D02*
X138464286Y-64114700D01*
X138464286Y-64114700D02*
X138392857Y-64400414D01*
X138392857Y-64400414D02*
X138321429Y-64543271D01*
X138321429Y-64543271D02*
X138250000Y-64614700D01*
X138250000Y-64614700D02*
X138107143Y-64686128D01*
X138107143Y-64686128D02*
X137964286Y-64686128D01*
X137964286Y-64686128D02*
X137821429Y-64614700D01*
X137821429Y-64614700D02*
X137750000Y-64543271D01*
X137750000Y-64543271D02*
X137678571Y-64400414D01*
X137678571Y-64400414D02*
X137607143Y-64114700D01*
X137607143Y-64114700D02*
X137607143Y-63757557D01*
X137607143Y-63757557D02*
X137678571Y-63471842D01*
X137678571Y-63471842D02*
X137750000Y-63328985D01*
X137750000Y-63328985D02*
X137821429Y-63257557D01*
X137821429Y-63257557D02*
X137964286Y-63186128D01*
X121249999Y-67686128D02*
X121249999Y-66186128D01*
X121249999Y-66186128D02*
X122107142Y-67686128D01*
X122107142Y-67686128D02*
X122107142Y-66186128D01*
X122821428Y-66900414D02*
X123321428Y-66900414D01*
X123535714Y-67686128D02*
X122821428Y-67686128D01*
X122821428Y-67686128D02*
X122821428Y-66186128D01*
X122821428Y-66186128D02*
X123535714Y-66186128D01*
X124107143Y-67614700D02*
X124321429Y-67686128D01*
X124321429Y-67686128D02*
X124678571Y-67686128D01*
X124678571Y-67686128D02*
X124821429Y-67614700D01*
X124821429Y-67614700D02*
X124892857Y-67543271D01*
X124892857Y-67543271D02*
X124964286Y-67400414D01*
X124964286Y-67400414D02*
X124964286Y-67257557D01*
X124964286Y-67257557D02*
X124892857Y-67114700D01*
X124892857Y-67114700D02*
X124821429Y-67043271D01*
X124821429Y-67043271D02*
X124678571Y-66971842D01*
X124678571Y-66971842D02*
X124392857Y-66900414D01*
X124392857Y-66900414D02*
X124250000Y-66828985D01*
X124250000Y-66828985D02*
X124178571Y-66757557D01*
X124178571Y-66757557D02*
X124107143Y-66614700D01*
X124107143Y-66614700D02*
X124107143Y-66471842D01*
X124107143Y-66471842D02*
X124178571Y-66328985D01*
X124178571Y-66328985D02*
X124250000Y-66257557D01*
X124250000Y-66257557D02*
X124392857Y-66186128D01*
X124392857Y-66186128D02*
X124750000Y-66186128D01*
X124750000Y-66186128D02*
X124964286Y-66257557D01*
X125892857Y-66186128D02*
X126178571Y-66186128D01*
X126178571Y-66186128D02*
X126321428Y-66257557D01*
X126321428Y-66257557D02*
X126464285Y-66400414D01*
X126464285Y-66400414D02*
X126535714Y-66686128D01*
X126535714Y-66686128D02*
X126535714Y-67186128D01*
X126535714Y-67186128D02*
X126464285Y-67471842D01*
X126464285Y-67471842D02*
X126321428Y-67614700D01*
X126321428Y-67614700D02*
X126178571Y-67686128D01*
X126178571Y-67686128D02*
X125892857Y-67686128D01*
X125892857Y-67686128D02*
X125750000Y-67614700D01*
X125750000Y-67614700D02*
X125607142Y-67471842D01*
X125607142Y-67471842D02*
X125535714Y-67186128D01*
X125535714Y-67186128D02*
X125535714Y-66686128D01*
X125535714Y-66686128D02*
X125607142Y-66400414D01*
X125607142Y-66400414D02*
X125750000Y-66257557D01*
X125750000Y-66257557D02*
X125892857Y-66186128D01*
X127107143Y-67614700D02*
X127321429Y-67686128D01*
X127321429Y-67686128D02*
X127678571Y-67686128D01*
X127678571Y-67686128D02*
X127821429Y-67614700D01*
X127821429Y-67614700D02*
X127892857Y-67543271D01*
X127892857Y-67543271D02*
X127964286Y-67400414D01*
X127964286Y-67400414D02*
X127964286Y-67257557D01*
X127964286Y-67257557D02*
X127892857Y-67114700D01*
X127892857Y-67114700D02*
X127821429Y-67043271D01*
X127821429Y-67043271D02*
X127678571Y-66971842D01*
X127678571Y-66971842D02*
X127392857Y-66900414D01*
X127392857Y-66900414D02*
X127250000Y-66828985D01*
X127250000Y-66828985D02*
X127178571Y-66757557D01*
X127178571Y-66757557D02*
X127107143Y-66614700D01*
X127107143Y-66614700D02*
X127107143Y-66471842D01*
X127107143Y-66471842D02*
X127178571Y-66328985D01*
X127178571Y-66328985D02*
X127250000Y-66257557D01*
X127250000Y-66257557D02*
X127392857Y-66186128D01*
X127392857Y-66186128D02*
X127750000Y-66186128D01*
X127750000Y-66186128D02*
X127964286Y-66257557D01*
X128607142Y-67543271D02*
X128678571Y-67614700D01*
X128678571Y-67614700D02*
X128607142Y-67686128D01*
X128607142Y-67686128D02*
X128535714Y-67614700D01*
X128535714Y-67614700D02*
X128607142Y-67543271D01*
X128607142Y-67543271D02*
X128607142Y-67686128D01*
X129321428Y-67686128D02*
X129321428Y-66186128D01*
X129321428Y-66186128D02*
X129678571Y-66186128D01*
X129678571Y-66186128D02*
X129892857Y-66257557D01*
X129892857Y-66257557D02*
X130035714Y-66400414D01*
X130035714Y-66400414D02*
X130107143Y-66543271D01*
X130107143Y-66543271D02*
X130178571Y-66828985D01*
X130178571Y-66828985D02*
X130178571Y-67043271D01*
X130178571Y-67043271D02*
X130107143Y-67328985D01*
X130107143Y-67328985D02*
X130035714Y-67471842D01*
X130035714Y-67471842D02*
X129892857Y-67614700D01*
X129892857Y-67614700D02*
X129678571Y-67686128D01*
X129678571Y-67686128D02*
X129321428Y-67686128D01*
X130821428Y-66900414D02*
X131321428Y-66900414D01*
X131535714Y-67686128D02*
X130821428Y-67686128D01*
X130821428Y-67686128D02*
X130821428Y-66186128D01*
X130821428Y-66186128D02*
X131535714Y-66186128D01*
X131964286Y-66186128D02*
X132464286Y-67686128D01*
X132464286Y-67686128D02*
X132964286Y-66186128D01*
X162833333Y-133679580D02*
X162785714Y-133727200D01*
X162785714Y-133727200D02*
X162642857Y-133774819D01*
X162642857Y-133774819D02*
X162547619Y-133774819D01*
X162547619Y-133774819D02*
X162404762Y-133727200D01*
X162404762Y-133727200D02*
X162309524Y-133631961D01*
X162309524Y-133631961D02*
X162261905Y-133536723D01*
X162261905Y-133536723D02*
X162214286Y-133346247D01*
X162214286Y-133346247D02*
X162214286Y-133203390D01*
X162214286Y-133203390D02*
X162261905Y-133012914D01*
X162261905Y-133012914D02*
X162309524Y-132917676D01*
X162309524Y-132917676D02*
X162404762Y-132822438D01*
X162404762Y-132822438D02*
X162547619Y-132774819D01*
X162547619Y-132774819D02*
X162642857Y-132774819D01*
X162642857Y-132774819D02*
X162785714Y-132822438D01*
X162785714Y-132822438D02*
X162833333Y-132870057D01*
X163214286Y-132870057D02*
X163261905Y-132822438D01*
X163261905Y-132822438D02*
X163357143Y-132774819D01*
X163357143Y-132774819D02*
X163595238Y-132774819D01*
X163595238Y-132774819D02*
X163690476Y-132822438D01*
X163690476Y-132822438D02*
X163738095Y-132870057D01*
X163738095Y-132870057D02*
X163785714Y-132965295D01*
X163785714Y-132965295D02*
X163785714Y-133060533D01*
X163785714Y-133060533D02*
X163738095Y-133203390D01*
X163738095Y-133203390D02*
X163166667Y-133774819D01*
X163166667Y-133774819D02*
X163785714Y-133774819D01*
X90833333Y-151679580D02*
X90785714Y-151727200D01*
X90785714Y-151727200D02*
X90642857Y-151774819D01*
X90642857Y-151774819D02*
X90547619Y-151774819D01*
X90547619Y-151774819D02*
X90404762Y-151727200D01*
X90404762Y-151727200D02*
X90309524Y-151631961D01*
X90309524Y-151631961D02*
X90261905Y-151536723D01*
X90261905Y-151536723D02*
X90214286Y-151346247D01*
X90214286Y-151346247D02*
X90214286Y-151203390D01*
X90214286Y-151203390D02*
X90261905Y-151012914D01*
X90261905Y-151012914D02*
X90309524Y-150917676D01*
X90309524Y-150917676D02*
X90404762Y-150822438D01*
X90404762Y-150822438D02*
X90547619Y-150774819D01*
X90547619Y-150774819D02*
X90642857Y-150774819D01*
X90642857Y-150774819D02*
X90785714Y-150822438D01*
X90785714Y-150822438D02*
X90833333Y-150870057D01*
X91738095Y-150774819D02*
X91261905Y-150774819D01*
X91261905Y-150774819D02*
X91214286Y-151251009D01*
X91214286Y-151251009D02*
X91261905Y-151203390D01*
X91261905Y-151203390D02*
X91357143Y-151155771D01*
X91357143Y-151155771D02*
X91595238Y-151155771D01*
X91595238Y-151155771D02*
X91690476Y-151203390D01*
X91690476Y-151203390D02*
X91738095Y-151251009D01*
X91738095Y-151251009D02*
X91785714Y-151346247D01*
X91785714Y-151346247D02*
X91785714Y-151584342D01*
X91785714Y-151584342D02*
X91738095Y-151679580D01*
X91738095Y-151679580D02*
X91690476Y-151727200D01*
X91690476Y-151727200D02*
X91595238Y-151774819D01*
X91595238Y-151774819D02*
X91357143Y-151774819D01*
X91357143Y-151774819D02*
X91261905Y-151727200D01*
X91261905Y-151727200D02*
X91214286Y-151679580D01*
X82936666Y-78074819D02*
X82936666Y-78789104D01*
X82936666Y-78789104D02*
X82889047Y-78931961D01*
X82889047Y-78931961D02*
X82793809Y-79027200D01*
X82793809Y-79027200D02*
X82650952Y-79074819D01*
X82650952Y-79074819D02*
X82555714Y-79074819D01*
X83841428Y-78074819D02*
X83650952Y-78074819D01*
X83650952Y-78074819D02*
X83555714Y-78122438D01*
X83555714Y-78122438D02*
X83508095Y-78170057D01*
X83508095Y-78170057D02*
X83412857Y-78312914D01*
X83412857Y-78312914D02*
X83365238Y-78503390D01*
X83365238Y-78503390D02*
X83365238Y-78884342D01*
X83365238Y-78884342D02*
X83412857Y-78979580D01*
X83412857Y-78979580D02*
X83460476Y-79027200D01*
X83460476Y-79027200D02*
X83555714Y-79074819D01*
X83555714Y-79074819D02*
X83746190Y-79074819D01*
X83746190Y-79074819D02*
X83841428Y-79027200D01*
X83841428Y-79027200D02*
X83889047Y-78979580D01*
X83889047Y-78979580D02*
X83936666Y-78884342D01*
X83936666Y-78884342D02*
X83936666Y-78646247D01*
X83936666Y-78646247D02*
X83889047Y-78551009D01*
X83889047Y-78551009D02*
X83841428Y-78503390D01*
X83841428Y-78503390D02*
X83746190Y-78455771D01*
X83746190Y-78455771D02*
X83555714Y-78455771D01*
X83555714Y-78455771D02*
X83460476Y-78503390D01*
X83460476Y-78503390D02*
X83412857Y-78551009D01*
X83412857Y-78551009D02*
X83365238Y-78646247D01*
X114833333Y-133679580D02*
X114785714Y-133727200D01*
X114785714Y-133727200D02*
X114642857Y-133774819D01*
X114642857Y-133774819D02*
X114547619Y-133774819D01*
X114547619Y-133774819D02*
X114404762Y-133727200D01*
X114404762Y-133727200D02*
X114309524Y-133631961D01*
X114309524Y-133631961D02*
X114261905Y-133536723D01*
X114261905Y-133536723D02*
X114214286Y-133346247D01*
X114214286Y-133346247D02*
X114214286Y-133203390D01*
X114214286Y-133203390D02*
X114261905Y-133012914D01*
X114261905Y-133012914D02*
X114309524Y-132917676D01*
X114309524Y-132917676D02*
X114404762Y-132822438D01*
X114404762Y-132822438D02*
X114547619Y-132774819D01*
X114547619Y-132774819D02*
X114642857Y-132774819D01*
X114642857Y-132774819D02*
X114785714Y-132822438D01*
X114785714Y-132822438D02*
X114833333Y-132870057D01*
X115404762Y-133203390D02*
X115309524Y-133155771D01*
X115309524Y-133155771D02*
X115261905Y-133108152D01*
X115261905Y-133108152D02*
X115214286Y-133012914D01*
X115214286Y-133012914D02*
X115214286Y-132965295D01*
X115214286Y-132965295D02*
X115261905Y-132870057D01*
X115261905Y-132870057D02*
X115309524Y-132822438D01*
X115309524Y-132822438D02*
X115404762Y-132774819D01*
X115404762Y-132774819D02*
X115595238Y-132774819D01*
X115595238Y-132774819D02*
X115690476Y-132822438D01*
X115690476Y-132822438D02*
X115738095Y-132870057D01*
X115738095Y-132870057D02*
X115785714Y-132965295D01*
X115785714Y-132965295D02*
X115785714Y-133012914D01*
X115785714Y-133012914D02*
X115738095Y-133108152D01*
X115738095Y-133108152D02*
X115690476Y-133155771D01*
X115690476Y-133155771D02*
X115595238Y-133203390D01*
X115595238Y-133203390D02*
X115404762Y-133203390D01*
X115404762Y-133203390D02*
X115309524Y-133251009D01*
X115309524Y-133251009D02*
X115261905Y-133298628D01*
X115261905Y-133298628D02*
X115214286Y-133393866D01*
X115214286Y-133393866D02*
X115214286Y-133584342D01*
X115214286Y-133584342D02*
X115261905Y-133679580D01*
X115261905Y-133679580D02*
X115309524Y-133727200D01*
X115309524Y-133727200D02*
X115404762Y-133774819D01*
X115404762Y-133774819D02*
X115595238Y-133774819D01*
X115595238Y-133774819D02*
X115690476Y-133727200D01*
X115690476Y-133727200D02*
X115738095Y-133679580D01*
X115738095Y-133679580D02*
X115785714Y-133584342D01*
X115785714Y-133584342D02*
X115785714Y-133393866D01*
X115785714Y-133393866D02*
X115738095Y-133298628D01*
X115738095Y-133298628D02*
X115690476Y-133251009D01*
X115690476Y-133251009D02*
X115595238Y-133203390D01*
X171833333Y-95804819D02*
X171500000Y-95328628D01*
X171261905Y-95804819D02*
X171261905Y-94804819D01*
X171261905Y-94804819D02*
X171642857Y-94804819D01*
X171642857Y-94804819D02*
X171738095Y-94852438D01*
X171738095Y-94852438D02*
X171785714Y-94900057D01*
X171785714Y-94900057D02*
X171833333Y-94995295D01*
X171833333Y-94995295D02*
X171833333Y-95138152D01*
X171833333Y-95138152D02*
X171785714Y-95233390D01*
X171785714Y-95233390D02*
X171738095Y-95281009D01*
X171738095Y-95281009D02*
X171642857Y-95328628D01*
X171642857Y-95328628D02*
X171261905Y-95328628D01*
X172738095Y-94804819D02*
X172261905Y-94804819D01*
X172261905Y-94804819D02*
X172214286Y-95281009D01*
X172214286Y-95281009D02*
X172261905Y-95233390D01*
X172261905Y-95233390D02*
X172357143Y-95185771D01*
X172357143Y-95185771D02*
X172595238Y-95185771D01*
X172595238Y-95185771D02*
X172690476Y-95233390D01*
X172690476Y-95233390D02*
X172738095Y-95281009D01*
X172738095Y-95281009D02*
X172785714Y-95376247D01*
X172785714Y-95376247D02*
X172785714Y-95614342D01*
X172785714Y-95614342D02*
X172738095Y-95709580D01*
X172738095Y-95709580D02*
X172690476Y-95757200D01*
X172690476Y-95757200D02*
X172595238Y-95804819D01*
X172595238Y-95804819D02*
X172357143Y-95804819D01*
X172357143Y-95804819D02*
X172261905Y-95757200D01*
X172261905Y-95757200D02*
X172214286Y-95709580D01*
X94357142Y-96679580D02*
X94309523Y-96727200D01*
X94309523Y-96727200D02*
X94166666Y-96774819D01*
X94166666Y-96774819D02*
X94071428Y-96774819D01*
X94071428Y-96774819D02*
X93928571Y-96727200D01*
X93928571Y-96727200D02*
X93833333Y-96631961D01*
X93833333Y-96631961D02*
X93785714Y-96536723D01*
X93785714Y-96536723D02*
X93738095Y-96346247D01*
X93738095Y-96346247D02*
X93738095Y-96203390D01*
X93738095Y-96203390D02*
X93785714Y-96012914D01*
X93785714Y-96012914D02*
X93833333Y-95917676D01*
X93833333Y-95917676D02*
X93928571Y-95822438D01*
X93928571Y-95822438D02*
X94071428Y-95774819D01*
X94071428Y-95774819D02*
X94166666Y-95774819D01*
X94166666Y-95774819D02*
X94309523Y-95822438D01*
X94309523Y-95822438D02*
X94357142Y-95870057D01*
X95309523Y-96774819D02*
X94738095Y-96774819D01*
X95023809Y-96774819D02*
X95023809Y-95774819D01*
X95023809Y-95774819D02*
X94928571Y-95917676D01*
X94928571Y-95917676D02*
X94833333Y-96012914D01*
X94833333Y-96012914D02*
X94738095Y-96060533D01*
X96261904Y-96774819D02*
X95690476Y-96774819D01*
X95976190Y-96774819D02*
X95976190Y-95774819D01*
X95976190Y-95774819D02*
X95880952Y-95917676D01*
X95880952Y-95917676D02*
X95785714Y-96012914D01*
X95785714Y-96012914D02*
X95690476Y-96060533D01*
X95616666Y-64931009D02*
X95283333Y-64931009D01*
X95283333Y-65454819D02*
X95283333Y-64454819D01*
X95283333Y-64454819D02*
X95759523Y-64454819D01*
X96473809Y-64931009D02*
X96616666Y-64978628D01*
X96616666Y-64978628D02*
X96664285Y-65026247D01*
X96664285Y-65026247D02*
X96711904Y-65121485D01*
X96711904Y-65121485D02*
X96711904Y-65264342D01*
X96711904Y-65264342D02*
X96664285Y-65359580D01*
X96664285Y-65359580D02*
X96616666Y-65407200D01*
X96616666Y-65407200D02*
X96521428Y-65454819D01*
X96521428Y-65454819D02*
X96140476Y-65454819D01*
X96140476Y-65454819D02*
X96140476Y-64454819D01*
X96140476Y-64454819D02*
X96473809Y-64454819D01*
X96473809Y-64454819D02*
X96569047Y-64502438D01*
X96569047Y-64502438D02*
X96616666Y-64550057D01*
X96616666Y-64550057D02*
X96664285Y-64645295D01*
X96664285Y-64645295D02*
X96664285Y-64740533D01*
X96664285Y-64740533D02*
X96616666Y-64835771D01*
X96616666Y-64835771D02*
X96569047Y-64883390D01*
X96569047Y-64883390D02*
X96473809Y-64931009D01*
X96473809Y-64931009D02*
X96140476Y-64931009D01*
X97664285Y-65454819D02*
X97092857Y-65454819D01*
X97378571Y-65454819D02*
X97378571Y-64454819D01*
X97378571Y-64454819D02*
X97283333Y-64597676D01*
X97283333Y-64597676D02*
X97188095Y-64692914D01*
X97188095Y-64692914D02*
X97092857Y-64740533D01*
X94357142Y-120679580D02*
X94309523Y-120727200D01*
X94309523Y-120727200D02*
X94166666Y-120774819D01*
X94166666Y-120774819D02*
X94071428Y-120774819D01*
X94071428Y-120774819D02*
X93928571Y-120727200D01*
X93928571Y-120727200D02*
X93833333Y-120631961D01*
X93833333Y-120631961D02*
X93785714Y-120536723D01*
X93785714Y-120536723D02*
X93738095Y-120346247D01*
X93738095Y-120346247D02*
X93738095Y-120203390D01*
X93738095Y-120203390D02*
X93785714Y-120012914D01*
X93785714Y-120012914D02*
X93833333Y-119917676D01*
X93833333Y-119917676D02*
X93928571Y-119822438D01*
X93928571Y-119822438D02*
X94071428Y-119774819D01*
X94071428Y-119774819D02*
X94166666Y-119774819D01*
X94166666Y-119774819D02*
X94309523Y-119822438D01*
X94309523Y-119822438D02*
X94357142Y-119870057D01*
X95309523Y-120774819D02*
X94738095Y-120774819D01*
X95023809Y-120774819D02*
X95023809Y-119774819D01*
X95023809Y-119774819D02*
X94928571Y-119917676D01*
X94928571Y-119917676D02*
X94833333Y-120012914D01*
X94833333Y-120012914D02*
X94738095Y-120060533D01*
X96166666Y-119774819D02*
X95976190Y-119774819D01*
X95976190Y-119774819D02*
X95880952Y-119822438D01*
X95880952Y-119822438D02*
X95833333Y-119870057D01*
X95833333Y-119870057D02*
X95738095Y-120012914D01*
X95738095Y-120012914D02*
X95690476Y-120203390D01*
X95690476Y-120203390D02*
X95690476Y-120584342D01*
X95690476Y-120584342D02*
X95738095Y-120679580D01*
X95738095Y-120679580D02*
X95785714Y-120727200D01*
X95785714Y-120727200D02*
X95880952Y-120774819D01*
X95880952Y-120774819D02*
X96071428Y-120774819D01*
X96071428Y-120774819D02*
X96166666Y-120727200D01*
X96166666Y-120727200D02*
X96214285Y-120679580D01*
X96214285Y-120679580D02*
X96261904Y-120584342D01*
X96261904Y-120584342D02*
X96261904Y-120346247D01*
X96261904Y-120346247D02*
X96214285Y-120251009D01*
X96214285Y-120251009D02*
X96166666Y-120203390D01*
X96166666Y-120203390D02*
X96071428Y-120155771D01*
X96071428Y-120155771D02*
X95880952Y-120155771D01*
X95880952Y-120155771D02*
X95785714Y-120203390D01*
X95785714Y-120203390D02*
X95738095Y-120251009D01*
X95738095Y-120251009D02*
X95690476Y-120346247D01*
X171261905Y-90804819D02*
X171261905Y-89804819D01*
X171261905Y-89804819D02*
X171500000Y-89804819D01*
X171500000Y-89804819D02*
X171642857Y-89852438D01*
X171642857Y-89852438D02*
X171738095Y-89947676D01*
X171738095Y-89947676D02*
X171785714Y-90042914D01*
X171785714Y-90042914D02*
X171833333Y-90233390D01*
X171833333Y-90233390D02*
X171833333Y-90376247D01*
X171833333Y-90376247D02*
X171785714Y-90566723D01*
X171785714Y-90566723D02*
X171738095Y-90661961D01*
X171738095Y-90661961D02*
X171642857Y-90757200D01*
X171642857Y-90757200D02*
X171500000Y-90804819D01*
X171500000Y-90804819D02*
X171261905Y-90804819D01*
X172785714Y-90804819D02*
X172214286Y-90804819D01*
X172500000Y-90804819D02*
X172500000Y-89804819D01*
X172500000Y-89804819D02*
X172404762Y-89947676D01*
X172404762Y-89947676D02*
X172309524Y-90042914D01*
X172309524Y-90042914D02*
X172214286Y-90090533D01*
X162833333Y-151679580D02*
X162785714Y-151727200D01*
X162785714Y-151727200D02*
X162642857Y-151774819D01*
X162642857Y-151774819D02*
X162547619Y-151774819D01*
X162547619Y-151774819D02*
X162404762Y-151727200D01*
X162404762Y-151727200D02*
X162309524Y-151631961D01*
X162309524Y-151631961D02*
X162261905Y-151536723D01*
X162261905Y-151536723D02*
X162214286Y-151346247D01*
X162214286Y-151346247D02*
X162214286Y-151203390D01*
X162214286Y-151203390D02*
X162261905Y-151012914D01*
X162261905Y-151012914D02*
X162309524Y-150917676D01*
X162309524Y-150917676D02*
X162404762Y-150822438D01*
X162404762Y-150822438D02*
X162547619Y-150774819D01*
X162547619Y-150774819D02*
X162642857Y-150774819D01*
X162642857Y-150774819D02*
X162785714Y-150822438D01*
X162785714Y-150822438D02*
X162833333Y-150870057D01*
X163785714Y-151774819D02*
X163214286Y-151774819D01*
X163500000Y-151774819D02*
X163500000Y-150774819D01*
X163500000Y-150774819D02*
X163404762Y-150917676D01*
X163404762Y-150917676D02*
X163309524Y-151012914D01*
X163309524Y-151012914D02*
X163214286Y-151060533D01*
X109677142Y-107359580D02*
X109629523Y-107407200D01*
X109629523Y-107407200D02*
X109486666Y-107454819D01*
X109486666Y-107454819D02*
X109391428Y-107454819D01*
X109391428Y-107454819D02*
X109248571Y-107407200D01*
X109248571Y-107407200D02*
X109153333Y-107311961D01*
X109153333Y-107311961D02*
X109105714Y-107216723D01*
X109105714Y-107216723D02*
X109058095Y-107026247D01*
X109058095Y-107026247D02*
X109058095Y-106883390D01*
X109058095Y-106883390D02*
X109105714Y-106692914D01*
X109105714Y-106692914D02*
X109153333Y-106597676D01*
X109153333Y-106597676D02*
X109248571Y-106502438D01*
X109248571Y-106502438D02*
X109391428Y-106454819D01*
X109391428Y-106454819D02*
X109486666Y-106454819D01*
X109486666Y-106454819D02*
X109629523Y-106502438D01*
X109629523Y-106502438D02*
X109677142Y-106550057D01*
X110629523Y-107454819D02*
X110058095Y-107454819D01*
X110343809Y-107454819D02*
X110343809Y-106454819D01*
X110343809Y-106454819D02*
X110248571Y-106597676D01*
X110248571Y-106597676D02*
X110153333Y-106692914D01*
X110153333Y-106692914D02*
X110058095Y-106740533D01*
X111486666Y-106788152D02*
X111486666Y-107454819D01*
X111248571Y-106407200D02*
X111010476Y-107121485D01*
X111010476Y-107121485D02*
X111629523Y-107121485D01*
X111666667Y-124357200D02*
X111809524Y-124404819D01*
X111809524Y-124404819D02*
X112047619Y-124404819D01*
X112047619Y-124404819D02*
X112142857Y-124357200D01*
X112142857Y-124357200D02*
X112190476Y-124309580D01*
X112190476Y-124309580D02*
X112238095Y-124214342D01*
X112238095Y-124214342D02*
X112238095Y-124119104D01*
X112238095Y-124119104D02*
X112190476Y-124023866D01*
X112190476Y-124023866D02*
X112142857Y-123976247D01*
X112142857Y-123976247D02*
X112047619Y-123928628D01*
X112047619Y-123928628D02*
X111857143Y-123881009D01*
X111857143Y-123881009D02*
X111761905Y-123833390D01*
X111761905Y-123833390D02*
X111714286Y-123785771D01*
X111714286Y-123785771D02*
X111666667Y-123690533D01*
X111666667Y-123690533D02*
X111666667Y-123595295D01*
X111666667Y-123595295D02*
X111714286Y-123500057D01*
X111714286Y-123500057D02*
X111761905Y-123452438D01*
X111761905Y-123452438D02*
X111857143Y-123404819D01*
X111857143Y-123404819D02*
X112095238Y-123404819D01*
X112095238Y-123404819D02*
X112238095Y-123452438D01*
X112571429Y-123404819D02*
X112809524Y-124404819D01*
X112809524Y-124404819D02*
X113000000Y-123690533D01*
X113000000Y-123690533D02*
X113190476Y-124404819D01*
X113190476Y-124404819D02*
X113428572Y-123404819D01*
X114333333Y-124404819D02*
X113761905Y-124404819D01*
X114047619Y-124404819D02*
X114047619Y-123404819D01*
X114047619Y-123404819D02*
X113952381Y-123547676D01*
X113952381Y-123547676D02*
X113857143Y-123642914D01*
X113857143Y-123642914D02*
X113761905Y-123690533D01*
X99357142Y-96679580D02*
X99309523Y-96727200D01*
X99309523Y-96727200D02*
X99166666Y-96774819D01*
X99166666Y-96774819D02*
X99071428Y-96774819D01*
X99071428Y-96774819D02*
X98928571Y-96727200D01*
X98928571Y-96727200D02*
X98833333Y-96631961D01*
X98833333Y-96631961D02*
X98785714Y-96536723D01*
X98785714Y-96536723D02*
X98738095Y-96346247D01*
X98738095Y-96346247D02*
X98738095Y-96203390D01*
X98738095Y-96203390D02*
X98785714Y-96012914D01*
X98785714Y-96012914D02*
X98833333Y-95917676D01*
X98833333Y-95917676D02*
X98928571Y-95822438D01*
X98928571Y-95822438D02*
X99071428Y-95774819D01*
X99071428Y-95774819D02*
X99166666Y-95774819D01*
X99166666Y-95774819D02*
X99309523Y-95822438D01*
X99309523Y-95822438D02*
X99357142Y-95870057D01*
X100309523Y-96774819D02*
X99738095Y-96774819D01*
X100023809Y-96774819D02*
X100023809Y-95774819D01*
X100023809Y-95774819D02*
X99928571Y-95917676D01*
X99928571Y-95917676D02*
X99833333Y-96012914D01*
X99833333Y-96012914D02*
X99738095Y-96060533D01*
X100690476Y-95870057D02*
X100738095Y-95822438D01*
X100738095Y-95822438D02*
X100833333Y-95774819D01*
X100833333Y-95774819D02*
X101071428Y-95774819D01*
X101071428Y-95774819D02*
X101166666Y-95822438D01*
X101166666Y-95822438D02*
X101214285Y-95870057D01*
X101214285Y-95870057D02*
X101261904Y-95965295D01*
X101261904Y-95965295D02*
X101261904Y-96060533D01*
X101261904Y-96060533D02*
X101214285Y-96203390D01*
X101214285Y-96203390D02*
X100642857Y-96774819D01*
X100642857Y-96774819D02*
X101261904Y-96774819D01*
X82833333Y-104679580D02*
X82785714Y-104727200D01*
X82785714Y-104727200D02*
X82642857Y-104774819D01*
X82642857Y-104774819D02*
X82547619Y-104774819D01*
X82547619Y-104774819D02*
X82404762Y-104727200D01*
X82404762Y-104727200D02*
X82309524Y-104631961D01*
X82309524Y-104631961D02*
X82261905Y-104536723D01*
X82261905Y-104536723D02*
X82214286Y-104346247D01*
X82214286Y-104346247D02*
X82214286Y-104203390D01*
X82214286Y-104203390D02*
X82261905Y-104012914D01*
X82261905Y-104012914D02*
X82309524Y-103917676D01*
X82309524Y-103917676D02*
X82404762Y-103822438D01*
X82404762Y-103822438D02*
X82547619Y-103774819D01*
X82547619Y-103774819D02*
X82642857Y-103774819D01*
X82642857Y-103774819D02*
X82785714Y-103822438D01*
X82785714Y-103822438D02*
X82833333Y-103870057D01*
X83309524Y-104774819D02*
X83500000Y-104774819D01*
X83500000Y-104774819D02*
X83595238Y-104727200D01*
X83595238Y-104727200D02*
X83642857Y-104679580D01*
X83642857Y-104679580D02*
X83738095Y-104536723D01*
X83738095Y-104536723D02*
X83785714Y-104346247D01*
X83785714Y-104346247D02*
X83785714Y-103965295D01*
X83785714Y-103965295D02*
X83738095Y-103870057D01*
X83738095Y-103870057D02*
X83690476Y-103822438D01*
X83690476Y-103822438D02*
X83595238Y-103774819D01*
X83595238Y-103774819D02*
X83404762Y-103774819D01*
X83404762Y-103774819D02*
X83309524Y-103822438D01*
X83309524Y-103822438D02*
X83261905Y-103870057D01*
X83261905Y-103870057D02*
X83214286Y-103965295D01*
X83214286Y-103965295D02*
X83214286Y-104203390D01*
X83214286Y-104203390D02*
X83261905Y-104298628D01*
X83261905Y-104298628D02*
X83309524Y-104346247D01*
X83309524Y-104346247D02*
X83404762Y-104393866D01*
X83404762Y-104393866D02*
X83595238Y-104393866D01*
X83595238Y-104393866D02*
X83690476Y-104346247D01*
X83690476Y-104346247D02*
X83738095Y-104298628D01*
X83738095Y-104298628D02*
X83785714Y-104203390D01*
X155038095Y-144454819D02*
X155038095Y-145264342D01*
X155038095Y-145264342D02*
X155085714Y-145359580D01*
X155085714Y-145359580D02*
X155133333Y-145407200D01*
X155133333Y-145407200D02*
X155228571Y-145454819D01*
X155228571Y-145454819D02*
X155419047Y-145454819D01*
X155419047Y-145454819D02*
X155514285Y-145407200D01*
X155514285Y-145407200D02*
X155561904Y-145359580D01*
X155561904Y-145359580D02*
X155609523Y-145264342D01*
X155609523Y-145264342D02*
X155609523Y-144454819D01*
X156609523Y-145454819D02*
X156038095Y-145454819D01*
X156323809Y-145454819D02*
X156323809Y-144454819D01*
X156323809Y-144454819D02*
X156228571Y-144597676D01*
X156228571Y-144597676D02*
X156133333Y-144692914D01*
X156133333Y-144692914D02*
X156038095Y-144740533D01*
X162666666Y-92599819D02*
X162666666Y-93314104D01*
X162666666Y-93314104D02*
X162619047Y-93456961D01*
X162619047Y-93456961D02*
X162523809Y-93552200D01*
X162523809Y-93552200D02*
X162380952Y-93599819D01*
X162380952Y-93599819D02*
X162285714Y-93599819D01*
X163571428Y-92933152D02*
X163571428Y-93599819D01*
X163333333Y-92552200D02*
X163095238Y-93266485D01*
X163095238Y-93266485D02*
X163714285Y-93266485D01*
X138833333Y-133679580D02*
X138785714Y-133727200D01*
X138785714Y-133727200D02*
X138642857Y-133774819D01*
X138642857Y-133774819D02*
X138547619Y-133774819D01*
X138547619Y-133774819D02*
X138404762Y-133727200D01*
X138404762Y-133727200D02*
X138309524Y-133631961D01*
X138309524Y-133631961D02*
X138261905Y-133536723D01*
X138261905Y-133536723D02*
X138214286Y-133346247D01*
X138214286Y-133346247D02*
X138214286Y-133203390D01*
X138214286Y-133203390D02*
X138261905Y-133012914D01*
X138261905Y-133012914D02*
X138309524Y-132917676D01*
X138309524Y-132917676D02*
X138404762Y-132822438D01*
X138404762Y-132822438D02*
X138547619Y-132774819D01*
X138547619Y-132774819D02*
X138642857Y-132774819D01*
X138642857Y-132774819D02*
X138785714Y-132822438D01*
X138785714Y-132822438D02*
X138833333Y-132870057D01*
X139690476Y-133108152D02*
X139690476Y-133774819D01*
X139452381Y-132727200D02*
X139214286Y-133441485D01*
X139214286Y-133441485D02*
X139833333Y-133441485D01*
X92261905Y-63454819D02*
X92261905Y-62454819D01*
X92261905Y-62454819D02*
X92500000Y-62454819D01*
X92500000Y-62454819D02*
X92642857Y-62502438D01*
X92642857Y-62502438D02*
X92738095Y-62597676D01*
X92738095Y-62597676D02*
X92785714Y-62692914D01*
X92785714Y-62692914D02*
X92833333Y-62883390D01*
X92833333Y-62883390D02*
X92833333Y-63026247D01*
X92833333Y-63026247D02*
X92785714Y-63216723D01*
X92785714Y-63216723D02*
X92738095Y-63311961D01*
X92738095Y-63311961D02*
X92642857Y-63407200D01*
X92642857Y-63407200D02*
X92500000Y-63454819D01*
X92500000Y-63454819D02*
X92261905Y-63454819D01*
X93214286Y-62550057D02*
X93261905Y-62502438D01*
X93261905Y-62502438D02*
X93357143Y-62454819D01*
X93357143Y-62454819D02*
X93595238Y-62454819D01*
X93595238Y-62454819D02*
X93690476Y-62502438D01*
X93690476Y-62502438D02*
X93738095Y-62550057D01*
X93738095Y-62550057D02*
X93785714Y-62645295D01*
X93785714Y-62645295D02*
X93785714Y-62740533D01*
X93785714Y-62740533D02*
X93738095Y-62883390D01*
X93738095Y-62883390D02*
X93166667Y-63454819D01*
X93166667Y-63454819D02*
X93785714Y-63454819D01*
X85833333Y-118804819D02*
X85500000Y-118328628D01*
X85261905Y-118804819D02*
X85261905Y-117804819D01*
X85261905Y-117804819D02*
X85642857Y-117804819D01*
X85642857Y-117804819D02*
X85738095Y-117852438D01*
X85738095Y-117852438D02*
X85785714Y-117900057D01*
X85785714Y-117900057D02*
X85833333Y-117995295D01*
X85833333Y-117995295D02*
X85833333Y-118138152D01*
X85833333Y-118138152D02*
X85785714Y-118233390D01*
X85785714Y-118233390D02*
X85738095Y-118281009D01*
X85738095Y-118281009D02*
X85642857Y-118328628D01*
X85642857Y-118328628D02*
X85261905Y-118328628D01*
X86785714Y-118804819D02*
X86214286Y-118804819D01*
X86500000Y-118804819D02*
X86500000Y-117804819D01*
X86500000Y-117804819D02*
X86404762Y-117947676D01*
X86404762Y-117947676D02*
X86309524Y-118042914D01*
X86309524Y-118042914D02*
X86214286Y-118090533D01*
X104357142Y-96679580D02*
X104309523Y-96727200D01*
X104309523Y-96727200D02*
X104166666Y-96774819D01*
X104166666Y-96774819D02*
X104071428Y-96774819D01*
X104071428Y-96774819D02*
X103928571Y-96727200D01*
X103928571Y-96727200D02*
X103833333Y-96631961D01*
X103833333Y-96631961D02*
X103785714Y-96536723D01*
X103785714Y-96536723D02*
X103738095Y-96346247D01*
X103738095Y-96346247D02*
X103738095Y-96203390D01*
X103738095Y-96203390D02*
X103785714Y-96012914D01*
X103785714Y-96012914D02*
X103833333Y-95917676D01*
X103833333Y-95917676D02*
X103928571Y-95822438D01*
X103928571Y-95822438D02*
X104071428Y-95774819D01*
X104071428Y-95774819D02*
X104166666Y-95774819D01*
X104166666Y-95774819D02*
X104309523Y-95822438D01*
X104309523Y-95822438D02*
X104357142Y-95870057D01*
X105309523Y-96774819D02*
X104738095Y-96774819D01*
X105023809Y-96774819D02*
X105023809Y-95774819D01*
X105023809Y-95774819D02*
X104928571Y-95917676D01*
X104928571Y-95917676D02*
X104833333Y-96012914D01*
X104833333Y-96012914D02*
X104738095Y-96060533D01*
X105642857Y-95774819D02*
X106261904Y-95774819D01*
X106261904Y-95774819D02*
X105928571Y-96155771D01*
X105928571Y-96155771D02*
X106071428Y-96155771D01*
X106071428Y-96155771D02*
X106166666Y-96203390D01*
X106166666Y-96203390D02*
X106214285Y-96251009D01*
X106214285Y-96251009D02*
X106261904Y-96346247D01*
X106261904Y-96346247D02*
X106261904Y-96584342D01*
X106261904Y-96584342D02*
X106214285Y-96679580D01*
X106214285Y-96679580D02*
X106166666Y-96727200D01*
X106166666Y-96727200D02*
X106071428Y-96774819D01*
X106071428Y-96774819D02*
X105785714Y-96774819D01*
X105785714Y-96774819D02*
X105690476Y-96727200D01*
X105690476Y-96727200D02*
X105642857Y-96679580D01*
X138833333Y-151679580D02*
X138785714Y-151727200D01*
X138785714Y-151727200D02*
X138642857Y-151774819D01*
X138642857Y-151774819D02*
X138547619Y-151774819D01*
X138547619Y-151774819D02*
X138404762Y-151727200D01*
X138404762Y-151727200D02*
X138309524Y-151631961D01*
X138309524Y-151631961D02*
X138261905Y-151536723D01*
X138261905Y-151536723D02*
X138214286Y-151346247D01*
X138214286Y-151346247D02*
X138214286Y-151203390D01*
X138214286Y-151203390D02*
X138261905Y-151012914D01*
X138261905Y-151012914D02*
X138309524Y-150917676D01*
X138309524Y-150917676D02*
X138404762Y-150822438D01*
X138404762Y-150822438D02*
X138547619Y-150774819D01*
X138547619Y-150774819D02*
X138642857Y-150774819D01*
X138642857Y-150774819D02*
X138785714Y-150822438D01*
X138785714Y-150822438D02*
X138833333Y-150870057D01*
X139166667Y-150774819D02*
X139785714Y-150774819D01*
X139785714Y-150774819D02*
X139452381Y-151155771D01*
X139452381Y-151155771D02*
X139595238Y-151155771D01*
X139595238Y-151155771D02*
X139690476Y-151203390D01*
X139690476Y-151203390D02*
X139738095Y-151251009D01*
X139738095Y-151251009D02*
X139785714Y-151346247D01*
X139785714Y-151346247D02*
X139785714Y-151584342D01*
X139785714Y-151584342D02*
X139738095Y-151679580D01*
X139738095Y-151679580D02*
X139690476Y-151727200D01*
X139690476Y-151727200D02*
X139595238Y-151774819D01*
X139595238Y-151774819D02*
X139309524Y-151774819D01*
X139309524Y-151774819D02*
X139214286Y-151727200D01*
X139214286Y-151727200D02*
X139166667Y-151679580D01*
X156833333Y-97804819D02*
X156500000Y-97328628D01*
X156261905Y-97804819D02*
X156261905Y-96804819D01*
X156261905Y-96804819D02*
X156642857Y-96804819D01*
X156642857Y-96804819D02*
X156738095Y-96852438D01*
X156738095Y-96852438D02*
X156785714Y-96900057D01*
X156785714Y-96900057D02*
X156833333Y-96995295D01*
X156833333Y-96995295D02*
X156833333Y-97138152D01*
X156833333Y-97138152D02*
X156785714Y-97233390D01*
X156785714Y-97233390D02*
X156738095Y-97281009D01*
X156738095Y-97281009D02*
X156642857Y-97328628D01*
X156642857Y-97328628D02*
X156261905Y-97328628D01*
X157690476Y-97138152D02*
X157690476Y-97804819D01*
X157452381Y-96757200D02*
X157214286Y-97471485D01*
X157214286Y-97471485D02*
X157833333Y-97471485D01*
X156833333Y-93804819D02*
X156500000Y-93328628D01*
X156261905Y-93804819D02*
X156261905Y-92804819D01*
X156261905Y-92804819D02*
X156642857Y-92804819D01*
X156642857Y-92804819D02*
X156738095Y-92852438D01*
X156738095Y-92852438D02*
X156785714Y-92900057D01*
X156785714Y-92900057D02*
X156833333Y-92995295D01*
X156833333Y-92995295D02*
X156833333Y-93138152D01*
X156833333Y-93138152D02*
X156785714Y-93233390D01*
X156785714Y-93233390D02*
X156738095Y-93281009D01*
X156738095Y-93281009D02*
X156642857Y-93328628D01*
X156642857Y-93328628D02*
X156261905Y-93328628D01*
X157166667Y-92804819D02*
X157785714Y-92804819D01*
X157785714Y-92804819D02*
X157452381Y-93185771D01*
X157452381Y-93185771D02*
X157595238Y-93185771D01*
X157595238Y-93185771D02*
X157690476Y-93233390D01*
X157690476Y-93233390D02*
X157738095Y-93281009D01*
X157738095Y-93281009D02*
X157785714Y-93376247D01*
X157785714Y-93376247D02*
X157785714Y-93614342D01*
X157785714Y-93614342D02*
X157738095Y-93709580D01*
X157738095Y-93709580D02*
X157690476Y-93757200D01*
X157690476Y-93757200D02*
X157595238Y-93804819D01*
X157595238Y-93804819D02*
X157309524Y-93804819D01*
X157309524Y-93804819D02*
X157214286Y-93757200D01*
X157214286Y-93757200D02*
X157166667Y-93709580D01*
X90833333Y-133679580D02*
X90785714Y-133727200D01*
X90785714Y-133727200D02*
X90642857Y-133774819D01*
X90642857Y-133774819D02*
X90547619Y-133774819D01*
X90547619Y-133774819D02*
X90404762Y-133727200D01*
X90404762Y-133727200D02*
X90309524Y-133631961D01*
X90309524Y-133631961D02*
X90261905Y-133536723D01*
X90261905Y-133536723D02*
X90214286Y-133346247D01*
X90214286Y-133346247D02*
X90214286Y-133203390D01*
X90214286Y-133203390D02*
X90261905Y-133012914D01*
X90261905Y-133012914D02*
X90309524Y-132917676D01*
X90309524Y-132917676D02*
X90404762Y-132822438D01*
X90404762Y-132822438D02*
X90547619Y-132774819D01*
X90547619Y-132774819D02*
X90642857Y-132774819D01*
X90642857Y-132774819D02*
X90785714Y-132822438D01*
X90785714Y-132822438D02*
X90833333Y-132870057D01*
X91690476Y-132774819D02*
X91500000Y-132774819D01*
X91500000Y-132774819D02*
X91404762Y-132822438D01*
X91404762Y-132822438D02*
X91357143Y-132870057D01*
X91357143Y-132870057D02*
X91261905Y-133012914D01*
X91261905Y-133012914D02*
X91214286Y-133203390D01*
X91214286Y-133203390D02*
X91214286Y-133584342D01*
X91214286Y-133584342D02*
X91261905Y-133679580D01*
X91261905Y-133679580D02*
X91309524Y-133727200D01*
X91309524Y-133727200D02*
X91404762Y-133774819D01*
X91404762Y-133774819D02*
X91595238Y-133774819D01*
X91595238Y-133774819D02*
X91690476Y-133727200D01*
X91690476Y-133727200D02*
X91738095Y-133679580D01*
X91738095Y-133679580D02*
X91785714Y-133584342D01*
X91785714Y-133584342D02*
X91785714Y-133346247D01*
X91785714Y-133346247D02*
X91738095Y-133251009D01*
X91738095Y-133251009D02*
X91690476Y-133203390D01*
X91690476Y-133203390D02*
X91595238Y-133155771D01*
X91595238Y-133155771D02*
X91404762Y-133155771D01*
X91404762Y-133155771D02*
X91309524Y-133203390D01*
X91309524Y-133203390D02*
X91261905Y-133251009D01*
X91261905Y-133251009D02*
X91214286Y-133346247D01*
X109677142Y-113359580D02*
X109629523Y-113407200D01*
X109629523Y-113407200D02*
X109486666Y-113454819D01*
X109486666Y-113454819D02*
X109391428Y-113454819D01*
X109391428Y-113454819D02*
X109248571Y-113407200D01*
X109248571Y-113407200D02*
X109153333Y-113311961D01*
X109153333Y-113311961D02*
X109105714Y-113216723D01*
X109105714Y-113216723D02*
X109058095Y-113026247D01*
X109058095Y-113026247D02*
X109058095Y-112883390D01*
X109058095Y-112883390D02*
X109105714Y-112692914D01*
X109105714Y-112692914D02*
X109153333Y-112597676D01*
X109153333Y-112597676D02*
X109248571Y-112502438D01*
X109248571Y-112502438D02*
X109391428Y-112454819D01*
X109391428Y-112454819D02*
X109486666Y-112454819D01*
X109486666Y-112454819D02*
X109629523Y-112502438D01*
X109629523Y-112502438D02*
X109677142Y-112550057D01*
X110629523Y-113454819D02*
X110058095Y-113454819D01*
X110343809Y-113454819D02*
X110343809Y-112454819D01*
X110343809Y-112454819D02*
X110248571Y-112597676D01*
X110248571Y-112597676D02*
X110153333Y-112692914D01*
X110153333Y-112692914D02*
X110058095Y-112740533D01*
X111534285Y-112454819D02*
X111058095Y-112454819D01*
X111058095Y-112454819D02*
X111010476Y-112931009D01*
X111010476Y-112931009D02*
X111058095Y-112883390D01*
X111058095Y-112883390D02*
X111153333Y-112835771D01*
X111153333Y-112835771D02*
X111391428Y-112835771D01*
X111391428Y-112835771D02*
X111486666Y-112883390D01*
X111486666Y-112883390D02*
X111534285Y-112931009D01*
X111534285Y-112931009D02*
X111581904Y-113026247D01*
X111581904Y-113026247D02*
X111581904Y-113264342D01*
X111581904Y-113264342D02*
X111534285Y-113359580D01*
X111534285Y-113359580D02*
X111486666Y-113407200D01*
X111486666Y-113407200D02*
X111391428Y-113454819D01*
X111391428Y-113454819D02*
X111153333Y-113454819D01*
X111153333Y-113454819D02*
X111058095Y-113407200D01*
X111058095Y-113407200D02*
X111010476Y-113359580D01*
X131038095Y-144454819D02*
X131038095Y-145264342D01*
X131038095Y-145264342D02*
X131085714Y-145359580D01*
X131085714Y-145359580D02*
X131133333Y-145407200D01*
X131133333Y-145407200D02*
X131228571Y-145454819D01*
X131228571Y-145454819D02*
X131419047Y-145454819D01*
X131419047Y-145454819D02*
X131514285Y-145407200D01*
X131514285Y-145407200D02*
X131561904Y-145359580D01*
X131561904Y-145359580D02*
X131609523Y-145264342D01*
X131609523Y-145264342D02*
X131609523Y-144454819D01*
X132038095Y-144550057D02*
X132085714Y-144502438D01*
X132085714Y-144502438D02*
X132180952Y-144454819D01*
X132180952Y-144454819D02*
X132419047Y-144454819D01*
X132419047Y-144454819D02*
X132514285Y-144502438D01*
X132514285Y-144502438D02*
X132561904Y-144550057D01*
X132561904Y-144550057D02*
X132609523Y-144645295D01*
X132609523Y-144645295D02*
X132609523Y-144740533D01*
X132609523Y-144740533D02*
X132561904Y-144883390D01*
X132561904Y-144883390D02*
X131990476Y-145454819D01*
X131990476Y-145454819D02*
X132609523Y-145454819D01*
X114833333Y-151679580D02*
X114785714Y-151727200D01*
X114785714Y-151727200D02*
X114642857Y-151774819D01*
X114642857Y-151774819D02*
X114547619Y-151774819D01*
X114547619Y-151774819D02*
X114404762Y-151727200D01*
X114404762Y-151727200D02*
X114309524Y-151631961D01*
X114309524Y-151631961D02*
X114261905Y-151536723D01*
X114261905Y-151536723D02*
X114214286Y-151346247D01*
X114214286Y-151346247D02*
X114214286Y-151203390D01*
X114214286Y-151203390D02*
X114261905Y-151012914D01*
X114261905Y-151012914D02*
X114309524Y-150917676D01*
X114309524Y-150917676D02*
X114404762Y-150822438D01*
X114404762Y-150822438D02*
X114547619Y-150774819D01*
X114547619Y-150774819D02*
X114642857Y-150774819D01*
X114642857Y-150774819D02*
X114785714Y-150822438D01*
X114785714Y-150822438D02*
X114833333Y-150870057D01*
X115166667Y-150774819D02*
X115833333Y-150774819D01*
X115833333Y-150774819D02*
X115404762Y-151774819D01*
X99357142Y-120679580D02*
X99309523Y-120727200D01*
X99309523Y-120727200D02*
X99166666Y-120774819D01*
X99166666Y-120774819D02*
X99071428Y-120774819D01*
X99071428Y-120774819D02*
X98928571Y-120727200D01*
X98928571Y-120727200D02*
X98833333Y-120631961D01*
X98833333Y-120631961D02*
X98785714Y-120536723D01*
X98785714Y-120536723D02*
X98738095Y-120346247D01*
X98738095Y-120346247D02*
X98738095Y-120203390D01*
X98738095Y-120203390D02*
X98785714Y-120012914D01*
X98785714Y-120012914D02*
X98833333Y-119917676D01*
X98833333Y-119917676D02*
X98928571Y-119822438D01*
X98928571Y-119822438D02*
X99071428Y-119774819D01*
X99071428Y-119774819D02*
X99166666Y-119774819D01*
X99166666Y-119774819D02*
X99309523Y-119822438D01*
X99309523Y-119822438D02*
X99357142Y-119870057D01*
X100309523Y-120774819D02*
X99738095Y-120774819D01*
X100023809Y-120774819D02*
X100023809Y-119774819D01*
X100023809Y-119774819D02*
X99928571Y-119917676D01*
X99928571Y-119917676D02*
X99833333Y-120012914D01*
X99833333Y-120012914D02*
X99738095Y-120060533D01*
X100642857Y-119774819D02*
X101309523Y-119774819D01*
X101309523Y-119774819D02*
X100880952Y-120774819D01*
X126666666Y-147454819D02*
X126666666Y-148169104D01*
X126666666Y-148169104D02*
X126619047Y-148311961D01*
X126619047Y-148311961D02*
X126523809Y-148407200D01*
X126523809Y-148407200D02*
X126380952Y-148454819D01*
X126380952Y-148454819D02*
X126285714Y-148454819D01*
X127666666Y-148454819D02*
X127095238Y-148454819D01*
X127380952Y-148454819D02*
X127380952Y-147454819D01*
X127380952Y-147454819D02*
X127285714Y-147597676D01*
X127285714Y-147597676D02*
X127190476Y-147692914D01*
X127190476Y-147692914D02*
X127095238Y-147740533D01*
X104357142Y-120679580D02*
X104309523Y-120727200D01*
X104309523Y-120727200D02*
X104166666Y-120774819D01*
X104166666Y-120774819D02*
X104071428Y-120774819D01*
X104071428Y-120774819D02*
X103928571Y-120727200D01*
X103928571Y-120727200D02*
X103833333Y-120631961D01*
X103833333Y-120631961D02*
X103785714Y-120536723D01*
X103785714Y-120536723D02*
X103738095Y-120346247D01*
X103738095Y-120346247D02*
X103738095Y-120203390D01*
X103738095Y-120203390D02*
X103785714Y-120012914D01*
X103785714Y-120012914D02*
X103833333Y-119917676D01*
X103833333Y-119917676D02*
X103928571Y-119822438D01*
X103928571Y-119822438D02*
X104071428Y-119774819D01*
X104071428Y-119774819D02*
X104166666Y-119774819D01*
X104166666Y-119774819D02*
X104309523Y-119822438D01*
X104309523Y-119822438D02*
X104357142Y-119870057D01*
X105309523Y-120774819D02*
X104738095Y-120774819D01*
X105023809Y-120774819D02*
X105023809Y-119774819D01*
X105023809Y-119774819D02*
X104928571Y-119917676D01*
X104928571Y-119917676D02*
X104833333Y-120012914D01*
X104833333Y-120012914D02*
X104738095Y-120060533D01*
X105880952Y-120203390D02*
X105785714Y-120155771D01*
X105785714Y-120155771D02*
X105738095Y-120108152D01*
X105738095Y-120108152D02*
X105690476Y-120012914D01*
X105690476Y-120012914D02*
X105690476Y-119965295D01*
X105690476Y-119965295D02*
X105738095Y-119870057D01*
X105738095Y-119870057D02*
X105785714Y-119822438D01*
X105785714Y-119822438D02*
X105880952Y-119774819D01*
X105880952Y-119774819D02*
X106071428Y-119774819D01*
X106071428Y-119774819D02*
X106166666Y-119822438D01*
X106166666Y-119822438D02*
X106214285Y-119870057D01*
X106214285Y-119870057D02*
X106261904Y-119965295D01*
X106261904Y-119965295D02*
X106261904Y-120012914D01*
X106261904Y-120012914D02*
X106214285Y-120108152D01*
X106214285Y-120108152D02*
X106166666Y-120155771D01*
X106166666Y-120155771D02*
X106071428Y-120203390D01*
X106071428Y-120203390D02*
X105880952Y-120203390D01*
X105880952Y-120203390D02*
X105785714Y-120251009D01*
X105785714Y-120251009D02*
X105738095Y-120298628D01*
X105738095Y-120298628D02*
X105690476Y-120393866D01*
X105690476Y-120393866D02*
X105690476Y-120584342D01*
X105690476Y-120584342D02*
X105738095Y-120679580D01*
X105738095Y-120679580D02*
X105785714Y-120727200D01*
X105785714Y-120727200D02*
X105880952Y-120774819D01*
X105880952Y-120774819D02*
X106071428Y-120774819D01*
X106071428Y-120774819D02*
X106166666Y-120727200D01*
X106166666Y-120727200D02*
X106214285Y-120679580D01*
X106214285Y-120679580D02*
X106261904Y-120584342D01*
X106261904Y-120584342D02*
X106261904Y-120393866D01*
X106261904Y-120393866D02*
X106214285Y-120298628D01*
X106214285Y-120298628D02*
X106166666Y-120251009D01*
X106166666Y-120251009D02*
X106071428Y-120203390D01*
X83038095Y-144454819D02*
X83038095Y-145264342D01*
X83038095Y-145264342D02*
X83085714Y-145359580D01*
X83085714Y-145359580D02*
X83133333Y-145407200D01*
X83133333Y-145407200D02*
X83228571Y-145454819D01*
X83228571Y-145454819D02*
X83419047Y-145454819D01*
X83419047Y-145454819D02*
X83514285Y-145407200D01*
X83514285Y-145407200D02*
X83561904Y-145359580D01*
X83561904Y-145359580D02*
X83609523Y-145264342D01*
X83609523Y-145264342D02*
X83609523Y-144454819D01*
X83990476Y-144454819D02*
X84609523Y-144454819D01*
X84609523Y-144454819D02*
X84276190Y-144835771D01*
X84276190Y-144835771D02*
X84419047Y-144835771D01*
X84419047Y-144835771D02*
X84514285Y-144883390D01*
X84514285Y-144883390D02*
X84561904Y-144931009D01*
X84561904Y-144931009D02*
X84609523Y-145026247D01*
X84609523Y-145026247D02*
X84609523Y-145264342D01*
X84609523Y-145264342D02*
X84561904Y-145359580D01*
X84561904Y-145359580D02*
X84514285Y-145407200D01*
X84514285Y-145407200D02*
X84419047Y-145454819D01*
X84419047Y-145454819D02*
X84133333Y-145454819D01*
X84133333Y-145454819D02*
X84038095Y-145407200D01*
X84038095Y-145407200D02*
X83990476Y-145359580D01*
X85523809Y-107528628D02*
X85523809Y-108004819D01*
X85190476Y-107004819D02*
X85523809Y-107528628D01*
X85523809Y-107528628D02*
X85857142Y-107004819D01*
X86714285Y-108004819D02*
X86142857Y-108004819D01*
X86428571Y-108004819D02*
X86428571Y-107004819D01*
X86428571Y-107004819D02*
X86333333Y-107147676D01*
X86333333Y-107147676D02*
X86238095Y-107242914D01*
X86238095Y-107242914D02*
X86142857Y-107290533D01*
X99238095Y-102054819D02*
X99238095Y-102864342D01*
X99238095Y-102864342D02*
X99285714Y-102959580D01*
X99285714Y-102959580D02*
X99333333Y-103007200D01*
X99333333Y-103007200D02*
X99428571Y-103054819D01*
X99428571Y-103054819D02*
X99619047Y-103054819D01*
X99619047Y-103054819D02*
X99714285Y-103007200D01*
X99714285Y-103007200D02*
X99761904Y-102959580D01*
X99761904Y-102959580D02*
X99809523Y-102864342D01*
X99809523Y-102864342D02*
X99809523Y-102054819D01*
X100761904Y-102054819D02*
X100285714Y-102054819D01*
X100285714Y-102054819D02*
X100238095Y-102531009D01*
X100238095Y-102531009D02*
X100285714Y-102483390D01*
X100285714Y-102483390D02*
X100380952Y-102435771D01*
X100380952Y-102435771D02*
X100619047Y-102435771D01*
X100619047Y-102435771D02*
X100714285Y-102483390D01*
X100714285Y-102483390D02*
X100761904Y-102531009D01*
X100761904Y-102531009D02*
X100809523Y-102626247D01*
X100809523Y-102626247D02*
X100809523Y-102864342D01*
X100809523Y-102864342D02*
X100761904Y-102959580D01*
X100761904Y-102959580D02*
X100714285Y-103007200D01*
X100714285Y-103007200D02*
X100619047Y-103054819D01*
X100619047Y-103054819D02*
X100380952Y-103054819D01*
X100380952Y-103054819D02*
X100285714Y-103007200D01*
X100285714Y-103007200D02*
X100238095Y-102959580D01*
X82936666Y-62074819D02*
X82936666Y-62789104D01*
X82936666Y-62789104D02*
X82889047Y-62931961D01*
X82889047Y-62931961D02*
X82793809Y-63027200D01*
X82793809Y-63027200D02*
X82650952Y-63074819D01*
X82650952Y-63074819D02*
X82555714Y-63074819D01*
X83889047Y-62074819D02*
X83412857Y-62074819D01*
X83412857Y-62074819D02*
X83365238Y-62551009D01*
X83365238Y-62551009D02*
X83412857Y-62503390D01*
X83412857Y-62503390D02*
X83508095Y-62455771D01*
X83508095Y-62455771D02*
X83746190Y-62455771D01*
X83746190Y-62455771D02*
X83841428Y-62503390D01*
X83841428Y-62503390D02*
X83889047Y-62551009D01*
X83889047Y-62551009D02*
X83936666Y-62646247D01*
X83936666Y-62646247D02*
X83936666Y-62884342D01*
X83936666Y-62884342D02*
X83889047Y-62979580D01*
X83889047Y-62979580D02*
X83841428Y-63027200D01*
X83841428Y-63027200D02*
X83746190Y-63074819D01*
X83746190Y-63074819D02*
X83508095Y-63074819D01*
X83508095Y-63074819D02*
X83412857Y-63027200D01*
X83412857Y-63027200D02*
X83365238Y-62979580D01*
X85833333Y-123804819D02*
X85500000Y-123328628D01*
X85261905Y-123804819D02*
X85261905Y-122804819D01*
X85261905Y-122804819D02*
X85642857Y-122804819D01*
X85642857Y-122804819D02*
X85738095Y-122852438D01*
X85738095Y-122852438D02*
X85785714Y-122900057D01*
X85785714Y-122900057D02*
X85833333Y-122995295D01*
X85833333Y-122995295D02*
X85833333Y-123138152D01*
X85833333Y-123138152D02*
X85785714Y-123233390D01*
X85785714Y-123233390D02*
X85738095Y-123281009D01*
X85738095Y-123281009D02*
X85642857Y-123328628D01*
X85642857Y-123328628D02*
X85261905Y-123328628D01*
X86214286Y-122900057D02*
X86261905Y-122852438D01*
X86261905Y-122852438D02*
X86357143Y-122804819D01*
X86357143Y-122804819D02*
X86595238Y-122804819D01*
X86595238Y-122804819D02*
X86690476Y-122852438D01*
X86690476Y-122852438D02*
X86738095Y-122900057D01*
X86738095Y-122900057D02*
X86785714Y-122995295D01*
X86785714Y-122995295D02*
X86785714Y-123090533D01*
X86785714Y-123090533D02*
X86738095Y-123233390D01*
X86738095Y-123233390D02*
X86166667Y-123804819D01*
X86166667Y-123804819D02*
X86785714Y-123804819D01*
X107038095Y-144454819D02*
X107038095Y-145264342D01*
X107038095Y-145264342D02*
X107085714Y-145359580D01*
X107085714Y-145359580D02*
X107133333Y-145407200D01*
X107133333Y-145407200D02*
X107228571Y-145454819D01*
X107228571Y-145454819D02*
X107419047Y-145454819D01*
X107419047Y-145454819D02*
X107514285Y-145407200D01*
X107514285Y-145407200D02*
X107561904Y-145359580D01*
X107561904Y-145359580D02*
X107609523Y-145264342D01*
X107609523Y-145264342D02*
X107609523Y-144454819D01*
X108514285Y-144788152D02*
X108514285Y-145454819D01*
X108276190Y-144407200D02*
X108038095Y-145121485D01*
X108038095Y-145121485D02*
X108657142Y-145121485D01*
X82357142Y-112679580D02*
X82309523Y-112727200D01*
X82309523Y-112727200D02*
X82166666Y-112774819D01*
X82166666Y-112774819D02*
X82071428Y-112774819D01*
X82071428Y-112774819D02*
X81928571Y-112727200D01*
X81928571Y-112727200D02*
X81833333Y-112631961D01*
X81833333Y-112631961D02*
X81785714Y-112536723D01*
X81785714Y-112536723D02*
X81738095Y-112346247D01*
X81738095Y-112346247D02*
X81738095Y-112203390D01*
X81738095Y-112203390D02*
X81785714Y-112012914D01*
X81785714Y-112012914D02*
X81833333Y-111917676D01*
X81833333Y-111917676D02*
X81928571Y-111822438D01*
X81928571Y-111822438D02*
X82071428Y-111774819D01*
X82071428Y-111774819D02*
X82166666Y-111774819D01*
X82166666Y-111774819D02*
X82309523Y-111822438D01*
X82309523Y-111822438D02*
X82357142Y-111870057D01*
X83309523Y-112774819D02*
X82738095Y-112774819D01*
X83023809Y-112774819D02*
X83023809Y-111774819D01*
X83023809Y-111774819D02*
X82928571Y-111917676D01*
X82928571Y-111917676D02*
X82833333Y-112012914D01*
X82833333Y-112012914D02*
X82738095Y-112060533D01*
X83928571Y-111774819D02*
X84023809Y-111774819D01*
X84023809Y-111774819D02*
X84119047Y-111822438D01*
X84119047Y-111822438D02*
X84166666Y-111870057D01*
X84166666Y-111870057D02*
X84214285Y-111965295D01*
X84214285Y-111965295D02*
X84261904Y-112155771D01*
X84261904Y-112155771D02*
X84261904Y-112393866D01*
X84261904Y-112393866D02*
X84214285Y-112584342D01*
X84214285Y-112584342D02*
X84166666Y-112679580D01*
X84166666Y-112679580D02*
X84119047Y-112727200D01*
X84119047Y-112727200D02*
X84023809Y-112774819D01*
X84023809Y-112774819D02*
X83928571Y-112774819D01*
X83928571Y-112774819D02*
X83833333Y-112727200D01*
X83833333Y-112727200D02*
X83785714Y-112679580D01*
X83785714Y-112679580D02*
X83738095Y-112584342D01*
X83738095Y-112584342D02*
X83690476Y-112393866D01*
X83690476Y-112393866D02*
X83690476Y-112155771D01*
X83690476Y-112155771D02*
X83738095Y-111965295D01*
X83738095Y-111965295D02*
X83785714Y-111870057D01*
X83785714Y-111870057D02*
X83833333Y-111822438D01*
X83833333Y-111822438D02*
X83928571Y-111774819D01*
%TO.C,C2*%
D11*
X162738748Y-134265000D02*
X163261252Y-134265000D01*
X162738748Y-135735000D02*
X163261252Y-135735000D01*
%TO.C,C5*%
X90738748Y-152265000D02*
X91261252Y-152265000D01*
X90738748Y-153735000D02*
X91261252Y-153735000D01*
%TO.C,J6*%
X80620000Y-79620000D02*
X82000000Y-79620000D01*
X80620000Y-81000000D02*
X80620000Y-79620000D01*
X80620000Y-82270000D02*
X80620000Y-92540000D01*
X80620000Y-82270000D02*
X83270000Y-82270000D01*
X80620000Y-92540000D02*
X85920000Y-92540000D01*
X83270000Y-79620000D02*
X85920000Y-79620000D01*
X83270000Y-82270000D02*
X83270000Y-79620000D01*
X85920000Y-79620000D02*
X85920000Y-92540000D01*
%TO.C,C8*%
X114738748Y-134265000D02*
X115261252Y-134265000D01*
X114738748Y-135735000D02*
X115261252Y-135735000D01*
%TO.C,R5*%
X171772936Y-96265000D02*
X172227064Y-96265000D01*
X171772936Y-97735000D02*
X172227064Y-97735000D01*
%TO.C,C11*%
X94738748Y-97265000D02*
X95261252Y-97265000D01*
X94738748Y-98735000D02*
X95261252Y-98735000D01*
%TO.C,FB1*%
X97440000Y-65399622D02*
X97440000Y-64600378D01*
X98560000Y-65399622D02*
X98560000Y-64600378D01*
%TO.C,C16*%
X94738748Y-121265000D02*
X95261252Y-121265000D01*
X94738748Y-122735000D02*
X95261252Y-122735000D01*
%TO.C,D1*%
X170315000Y-91040000D02*
X170315000Y-92960000D01*
X170315000Y-92960000D02*
X173000000Y-92960000D01*
X173000000Y-91040000D02*
X170315000Y-91040000D01*
%TO.C,C1*%
X162738748Y-152265000D02*
X163261252Y-152265000D01*
X162738748Y-153735000D02*
X163261252Y-153735000D01*
%TO.C,C14*%
X111265000Y-107261252D02*
X111265000Y-106738748D01*
X112735000Y-107261252D02*
X112735000Y-106738748D01*
%TO.C,SW1*%
X109770000Y-124770000D02*
X116230000Y-124770000D01*
X109770000Y-124800000D02*
X109770000Y-124770000D01*
X109770000Y-126700000D02*
X109770000Y-129300000D01*
X109770000Y-131230000D02*
X109770000Y-131200000D01*
X109770000Y-131230000D02*
X116230000Y-131230000D01*
X116230000Y-124770000D02*
X116230000Y-124800000D01*
X116230000Y-126700000D02*
X116230000Y-129300000D01*
X116230000Y-131230000D02*
X116230000Y-131200000D01*
%TO.C,C12*%
X99738748Y-97265000D02*
X100261252Y-97265000D01*
X99738748Y-98735000D02*
X100261252Y-98735000D01*
%TO.C,C9*%
X82738748Y-105265000D02*
X83261252Y-105265000D01*
X82738748Y-106735000D02*
X83261252Y-106735000D01*
%TO.C,U1*%
X156640000Y-141840000D02*
X156840000Y-141840000D01*
X156640000Y-148160000D02*
X156640000Y-141840000D01*
X156840000Y-148160000D02*
X156640000Y-148160000D01*
X169160000Y-141840000D02*
X169360000Y-141840000D01*
X169360000Y-141840000D02*
X169360000Y-148160000D01*
X169360000Y-148160000D02*
X169160000Y-148160000D01*
X156840000Y-148800000D02*
X156370000Y-149140000D01*
X156370000Y-148460000D01*
X156840000Y-148800000D01*
G36*
X156840000Y-148800000D02*
G01*
X156370000Y-149140000D01*
X156370000Y-148460000D01*
X156840000Y-148800000D01*
G37*
%TO.C,J4*%
X158300000Y-85500000D02*
X158300000Y-83600000D01*
X158300000Y-89400000D02*
X158300000Y-87400000D01*
X167700000Y-83600000D02*
X158300000Y-83600000D01*
X167700000Y-85500000D02*
X167700000Y-83600000D01*
X167700000Y-89400000D02*
X167700000Y-87400000D01*
%TO.C,C4*%
X138738748Y-134265000D02*
X139261252Y-134265000D01*
X138738748Y-135735000D02*
X139261252Y-135735000D01*
%TO.C,D2*%
X90640000Y-64000000D02*
X90640000Y-66000000D01*
X90640000Y-64000000D02*
X94650000Y-64000000D01*
X90640000Y-66000000D02*
X94650000Y-66000000D01*
%TO.C,R1*%
X85772936Y-119265000D02*
X86227064Y-119265000D01*
X85772936Y-120735000D02*
X86227064Y-120735000D01*
%TO.C,C13*%
X104738748Y-97265000D02*
X105261252Y-97265000D01*
X104738748Y-98735000D02*
X105261252Y-98735000D01*
%TO.C,C3*%
X138738748Y-152265000D02*
X139261252Y-152265000D01*
X138738748Y-153735000D02*
X139261252Y-153735000D01*
%TO.C,R4*%
X156772936Y-98265000D02*
X157227064Y-98265000D01*
X156772936Y-99735000D02*
X157227064Y-99735000D01*
%TO.C,R3*%
X156772936Y-94265000D02*
X157227064Y-94265000D01*
X156772936Y-95735000D02*
X157227064Y-95735000D01*
%TO.C,C6*%
X90738748Y-134265000D02*
X91261252Y-134265000D01*
X90738748Y-135735000D02*
X91261252Y-135735000D01*
%TO.C,C15*%
X111265000Y-113261252D02*
X111265000Y-112738748D01*
X112735000Y-113261252D02*
X112735000Y-112738748D01*
%TO.C,U2*%
X132640000Y-141840000D02*
X132840000Y-141840000D01*
X132640000Y-148160000D02*
X132640000Y-141840000D01*
X132840000Y-148160000D02*
X132640000Y-148160000D01*
X145160000Y-141840000D02*
X145360000Y-141840000D01*
X145360000Y-141840000D02*
X145360000Y-148160000D01*
X145360000Y-148160000D02*
X145160000Y-148160000D01*
X132840000Y-148800000D02*
X132370000Y-149140000D01*
X132370000Y-148460000D01*
X132840000Y-148800000D01*
G36*
X132840000Y-148800000D02*
G01*
X132370000Y-149140000D01*
X132370000Y-148460000D01*
X132840000Y-148800000D01*
G37*
%TO.C,C7*%
X114738748Y-152265000D02*
X115261252Y-152265000D01*
X114738748Y-153735000D02*
X115261252Y-153735000D01*
%TO.C,C17*%
X99738748Y-121265000D02*
X100261252Y-121265000D01*
X99738748Y-122735000D02*
X100261252Y-122735000D01*
%TO.C,C18*%
X104738748Y-121265000D02*
X105261252Y-121265000D01*
X104738748Y-122735000D02*
X105261252Y-122735000D01*
%TO.C,U3*%
X84640000Y-141840000D02*
X84840000Y-141840000D01*
X84640000Y-148160000D02*
X84640000Y-141840000D01*
X84840000Y-148160000D02*
X84640000Y-148160000D01*
X97160000Y-141840000D02*
X97360000Y-141840000D01*
X97360000Y-141840000D02*
X97360000Y-148160000D01*
X97360000Y-148160000D02*
X97160000Y-148160000D01*
X84840000Y-148800000D02*
X84370000Y-149140000D01*
X84370000Y-148460000D01*
X84840000Y-148800000D01*
G36*
X84840000Y-148800000D02*
G01*
X84370000Y-149140000D01*
X84370000Y-148460000D01*
X84840000Y-148800000D01*
G37*
%TO.C,Y1*%
X83940000Y-108290000D02*
X83940000Y-111710000D01*
X83940000Y-111710000D02*
X88060000Y-111710000D01*
%TO.C,U5*%
X94890000Y-104890000D02*
X95840000Y-104890000D01*
X94890000Y-105840000D02*
X94890000Y-104890000D01*
X94890000Y-115110000D02*
X94890000Y-114160000D01*
X95840000Y-115110000D02*
X94890000Y-115110000D01*
X104160000Y-104890000D02*
X105110000Y-104890000D01*
X105110000Y-104890000D02*
X105110000Y-105840000D01*
X105110000Y-114160000D02*
X105110000Y-115110000D01*
X105110000Y-115110000D02*
X104160000Y-115110000D01*
X94250000Y-105840000D02*
X93910000Y-105370000D01*
X94590000Y-105370000D01*
X94250000Y-105840000D01*
G36*
X94250000Y-105840000D02*
G01*
X93910000Y-105370000D01*
X94590000Y-105370000D01*
X94250000Y-105840000D01*
G37*
%TO.C,J5*%
X80620000Y-63620000D02*
X82000000Y-63620000D01*
X80620000Y-65000000D02*
X80620000Y-63620000D01*
X80620000Y-66270000D02*
X80620000Y-76540000D01*
X80620000Y-66270000D02*
X83270000Y-66270000D01*
X80620000Y-76540000D02*
X85920000Y-76540000D01*
X83270000Y-63620000D02*
X85920000Y-63620000D01*
X83270000Y-66270000D02*
X83270000Y-63620000D01*
X85920000Y-63620000D02*
X85920000Y-76540000D01*
%TO.C,R2*%
X85772936Y-124265000D02*
X86227064Y-124265000D01*
X85772936Y-125735000D02*
X86227064Y-125735000D01*
%TO.C,U4*%
X108640000Y-141840000D02*
X108840000Y-141840000D01*
X108640000Y-148160000D02*
X108640000Y-141840000D01*
X108840000Y-148160000D02*
X108640000Y-148160000D01*
X121160000Y-141840000D02*
X121360000Y-141840000D01*
X121360000Y-141840000D02*
X121360000Y-148160000D01*
X121360000Y-148160000D02*
X121160000Y-148160000D01*
X108840000Y-148800000D02*
X108370000Y-149140000D01*
X108370000Y-148460000D01*
X108840000Y-148800000D01*
G36*
X108840000Y-148800000D02*
G01*
X108370000Y-149140000D01*
X108370000Y-148460000D01*
X108840000Y-148800000D01*
G37*
%TO.C,C10*%
X82738748Y-113265000D02*
X83261252Y-113265000D01*
X82738748Y-114735000D02*
X83261252Y-114735000D01*
%TD*%
%LPC*%
G36*
X80250000Y-162500000D02*
G01*
X173750000Y-162500000D01*
X173750000Y-170000000D01*
X80250000Y-170000000D01*
X80250000Y-162500000D01*
G37*
D12*
%TO.C,C2*%
X162050000Y-135000000D03*
X163950000Y-135000000D03*
%TD*%
%TO.C,C5*%
X90050000Y-153000000D03*
X91950000Y-153000000D03*
%TD*%
D13*
%TO.C,J6*%
X82000000Y-81000000D03*
D14*
X84540000Y-81000000D03*
X82000000Y-83540000D03*
X84540000Y-83540000D03*
X82000000Y-86080000D03*
X84540000Y-86080000D03*
X82000000Y-88620000D03*
X84540000Y-88620000D03*
X82000000Y-91160000D03*
X84540000Y-91160000D03*
%TD*%
D12*
%TO.C,C8*%
X114050000Y-135000000D03*
X115950000Y-135000000D03*
%TD*%
D15*
%TO.C,R5*%
X171087500Y-97000000D03*
X172912500Y-97000000D03*
%TD*%
D12*
%TO.C,C11*%
X94050000Y-98000000D03*
X95950000Y-98000000D03*
%TD*%
D16*
%TO.C,FB1*%
X98000000Y-66062500D03*
X98000000Y-63937500D03*
%TD*%
D12*
%TO.C,C16*%
X94050000Y-122000000D03*
X95950000Y-122000000D03*
%TD*%
D17*
%TO.C,D1*%
X171062500Y-92000000D03*
X172937500Y-92000000D03*
%TD*%
D12*
%TO.C,C1*%
X162050000Y-153000000D03*
X163950000Y-153000000D03*
%TD*%
D18*
%TO.C,C14*%
X112000000Y-107950000D03*
X112000000Y-106050000D03*
%TD*%
D19*
%TO.C,SW1*%
X109020000Y-125750000D03*
X116980000Y-125750000D03*
X109020000Y-130250000D03*
X116980000Y-130250000D03*
%TD*%
D12*
%TO.C,C12*%
X99050000Y-98000000D03*
X100950000Y-98000000D03*
%TD*%
%TO.C,C9*%
X82050000Y-106000000D03*
X83950000Y-106000000D03*
%TD*%
D20*
%TO.C,U1*%
X157250000Y-148712500D03*
X157750000Y-148712500D03*
X158250000Y-148712500D03*
X158750000Y-148712500D03*
X159250000Y-148712500D03*
X159750000Y-148712500D03*
X160250000Y-148712500D03*
X160750000Y-148712500D03*
X161250000Y-148712500D03*
X161750000Y-148712500D03*
X162250000Y-148712500D03*
X162750000Y-148712500D03*
X163250000Y-148712500D03*
X163750000Y-148712500D03*
X164250000Y-148712500D03*
X164750000Y-148712500D03*
X165250000Y-148712500D03*
X165750000Y-148712500D03*
X166250000Y-148712500D03*
X166750000Y-148712500D03*
X167250000Y-148712500D03*
X167750000Y-148712500D03*
X168250000Y-148712500D03*
X168750000Y-148712500D03*
X168750000Y-141287500D03*
X168250000Y-141287500D03*
X167750000Y-141287500D03*
X167250000Y-141287500D03*
X166750000Y-141287500D03*
X166250000Y-141287500D03*
X165750000Y-141287500D03*
X165250000Y-141287500D03*
X164750000Y-141287500D03*
X164250000Y-141287500D03*
X163750000Y-141287500D03*
X163250000Y-141287500D03*
X162750000Y-141287500D03*
X162250000Y-141287500D03*
X161750000Y-141287500D03*
X161250000Y-141287500D03*
X160750000Y-141287500D03*
X160250000Y-141287500D03*
X159750000Y-141287500D03*
X159250000Y-141287500D03*
X158750000Y-141287500D03*
X158250000Y-141287500D03*
X157750000Y-141287500D03*
X157250000Y-141287500D03*
%TD*%
D21*
%TO.C,J4*%
X165890000Y-90100000D03*
X160110000Y-90100000D03*
D22*
X166250000Y-91545000D03*
X165450000Y-91545000D03*
D23*
X164250000Y-91545000D03*
X163250000Y-91545000D03*
X162750000Y-91545000D03*
X161750000Y-91545000D03*
D22*
X160550000Y-91545000D03*
X159750000Y-91545000D03*
X159750000Y-91545000D03*
X160550000Y-91545000D03*
D23*
X161250000Y-91545000D03*
X162250000Y-91545000D03*
X163750000Y-91545000D03*
X164750000Y-91545000D03*
D22*
X165450000Y-91545000D03*
X166250000Y-91545000D03*
D24*
X167320000Y-90630000D03*
D25*
X167320000Y-86450000D03*
D24*
X158680000Y-90630000D03*
D25*
X158680000Y-86450000D03*
%TD*%
D12*
%TO.C,C4*%
X138050000Y-135000000D03*
X139950000Y-135000000D03*
%TD*%
D26*
%TO.C,D2*%
X91350000Y-65000000D03*
X94650000Y-65000000D03*
%TD*%
D15*
%TO.C,R1*%
X85087500Y-120000000D03*
X86912500Y-120000000D03*
%TD*%
D12*
%TO.C,C13*%
X104050000Y-98000000D03*
X105950000Y-98000000D03*
%TD*%
%TO.C,C3*%
X138050000Y-153000000D03*
X139950000Y-153000000D03*
%TD*%
D15*
%TO.C,R4*%
X156087500Y-99000000D03*
X157912500Y-99000000D03*
%TD*%
%TO.C,R3*%
X156087500Y-95000000D03*
X157912500Y-95000000D03*
%TD*%
D12*
%TO.C,C6*%
X90050000Y-135000000D03*
X91950000Y-135000000D03*
%TD*%
D18*
%TO.C,C15*%
X112000000Y-113950000D03*
X112000000Y-112050000D03*
%TD*%
D20*
%TO.C,U2*%
X133250000Y-148712500D03*
X133750000Y-148712500D03*
X134250000Y-148712500D03*
X134750000Y-148712500D03*
X135250000Y-148712500D03*
X135750000Y-148712500D03*
X136250000Y-148712500D03*
X136750000Y-148712500D03*
X137250000Y-148712500D03*
X137750000Y-148712500D03*
X138250000Y-148712500D03*
X138750000Y-148712500D03*
X139250000Y-148712500D03*
X139750000Y-148712500D03*
X140250000Y-148712500D03*
X140750000Y-148712500D03*
X141250000Y-148712500D03*
X141750000Y-148712500D03*
X142250000Y-148712500D03*
X142750000Y-148712500D03*
X143250000Y-148712500D03*
X143750000Y-148712500D03*
X144250000Y-148712500D03*
X144750000Y-148712500D03*
X144750000Y-141287500D03*
X144250000Y-141287500D03*
X143750000Y-141287500D03*
X143250000Y-141287500D03*
X142750000Y-141287500D03*
X142250000Y-141287500D03*
X141750000Y-141287500D03*
X141250000Y-141287500D03*
X140750000Y-141287500D03*
X140250000Y-141287500D03*
X139750000Y-141287500D03*
X139250000Y-141287500D03*
X138750000Y-141287500D03*
X138250000Y-141287500D03*
X137750000Y-141287500D03*
X137250000Y-141287500D03*
X136750000Y-141287500D03*
X136250000Y-141287500D03*
X135750000Y-141287500D03*
X135250000Y-141287500D03*
X134750000Y-141287500D03*
X134250000Y-141287500D03*
X133750000Y-141287500D03*
X133250000Y-141287500D03*
%TD*%
D12*
%TO.C,C7*%
X114050000Y-153000000D03*
X115950000Y-153000000D03*
%TD*%
%TO.C,C17*%
X99050000Y-122000000D03*
X100950000Y-122000000D03*
%TD*%
%TO.C,C18*%
X104050000Y-122000000D03*
X105950000Y-122000000D03*
%TD*%
D20*
%TO.C,U3*%
X85250000Y-148712500D03*
X85750000Y-148712500D03*
X86250000Y-148712500D03*
X86750000Y-148712500D03*
X87250000Y-148712500D03*
X87750000Y-148712500D03*
X88250000Y-148712500D03*
X88750000Y-148712500D03*
X89250000Y-148712500D03*
X89750000Y-148712500D03*
X90250000Y-148712500D03*
X90750000Y-148712500D03*
X91250000Y-148712500D03*
X91750000Y-148712500D03*
X92250000Y-148712500D03*
X92750000Y-148712500D03*
X93250000Y-148712500D03*
X93750000Y-148712500D03*
X94250000Y-148712500D03*
X94750000Y-148712500D03*
X95250000Y-148712500D03*
X95750000Y-148712500D03*
X96250000Y-148712500D03*
X96750000Y-148712500D03*
X96750000Y-141287500D03*
X96250000Y-141287500D03*
X95750000Y-141287500D03*
X95250000Y-141287500D03*
X94750000Y-141287500D03*
X94250000Y-141287500D03*
X93750000Y-141287500D03*
X93250000Y-141287500D03*
X92750000Y-141287500D03*
X92250000Y-141287500D03*
X91750000Y-141287500D03*
X91250000Y-141287500D03*
X90750000Y-141287500D03*
X90250000Y-141287500D03*
X89750000Y-141287500D03*
X89250000Y-141287500D03*
X88750000Y-141287500D03*
X88250000Y-141287500D03*
X87750000Y-141287500D03*
X87250000Y-141287500D03*
X86750000Y-141287500D03*
X86250000Y-141287500D03*
X85750000Y-141287500D03*
X85250000Y-141287500D03*
%TD*%
D27*
%TO.C,Y1*%
X84900000Y-110850000D03*
X87100000Y-110850000D03*
X87100000Y-109150000D03*
X84900000Y-109150000D03*
%TD*%
D28*
%TO.C,U5*%
X94325000Y-106250000D03*
X94325000Y-106750000D03*
X94325000Y-107250000D03*
X94325000Y-107750000D03*
X94325000Y-108250000D03*
X94325000Y-108750000D03*
X94325000Y-109250000D03*
X94325000Y-109750000D03*
X94325000Y-110250000D03*
X94325000Y-110750000D03*
X94325000Y-111250000D03*
X94325000Y-111750000D03*
X94325000Y-112250000D03*
X94325000Y-112750000D03*
X94325000Y-113250000D03*
X94325000Y-113750000D03*
D29*
X96250000Y-115675000D03*
X96750000Y-115675000D03*
X97250000Y-115675000D03*
X97750000Y-115675000D03*
X98250000Y-115675000D03*
X98750000Y-115675000D03*
X99250000Y-115675000D03*
X99750000Y-115675000D03*
X100250000Y-115675000D03*
X100750000Y-115675000D03*
X101250000Y-115675000D03*
X101750000Y-115675000D03*
X102250000Y-115675000D03*
X102750000Y-115675000D03*
X103250000Y-115675000D03*
X103750000Y-115675000D03*
D28*
X105675000Y-113750000D03*
X105675000Y-113250000D03*
X105675000Y-112750000D03*
X105675000Y-112250000D03*
X105675000Y-111750000D03*
X105675000Y-111250000D03*
X105675000Y-110750000D03*
X105675000Y-110250000D03*
X105675000Y-109750000D03*
X105675000Y-109250000D03*
X105675000Y-108750000D03*
X105675000Y-108250000D03*
X105675000Y-107750000D03*
X105675000Y-107250000D03*
X105675000Y-106750000D03*
X105675000Y-106250000D03*
D29*
X103750000Y-104325000D03*
X103250000Y-104325000D03*
X102750000Y-104325000D03*
X102250000Y-104325000D03*
X101750000Y-104325000D03*
X101250000Y-104325000D03*
X100750000Y-104325000D03*
X100250000Y-104325000D03*
X99750000Y-104325000D03*
X99250000Y-104325000D03*
X98750000Y-104325000D03*
X98250000Y-104325000D03*
X97750000Y-104325000D03*
X97250000Y-104325000D03*
X96750000Y-104325000D03*
X96250000Y-104325000D03*
%TD*%
D13*
%TO.C,J5*%
X82000000Y-65000000D03*
D14*
X84540000Y-65000000D03*
X82000000Y-67540000D03*
X84540000Y-67540000D03*
X82000000Y-70080000D03*
X84540000Y-70080000D03*
X82000000Y-72620000D03*
X84540000Y-72620000D03*
X82000000Y-75160000D03*
X84540000Y-75160000D03*
%TD*%
D15*
%TO.C,R2*%
X85087500Y-125000000D03*
X86912500Y-125000000D03*
%TD*%
D20*
%TO.C,U4*%
X109250000Y-148712500D03*
X109750000Y-148712500D03*
X110250000Y-148712500D03*
X110750000Y-148712500D03*
X111250000Y-148712500D03*
X111750000Y-148712500D03*
X112250000Y-148712500D03*
X112750000Y-148712500D03*
X113250000Y-148712500D03*
X113750000Y-148712500D03*
X114250000Y-148712500D03*
X114750000Y-148712500D03*
X115250000Y-148712500D03*
X115750000Y-148712500D03*
X116250000Y-148712500D03*
X116750000Y-148712500D03*
X117250000Y-148712500D03*
X117750000Y-148712500D03*
X118250000Y-148712500D03*
X118750000Y-148712500D03*
X119250000Y-148712500D03*
X119750000Y-148712500D03*
X120250000Y-148712500D03*
X120750000Y-148712500D03*
X120750000Y-141287500D03*
X120250000Y-141287500D03*
X119750000Y-141287500D03*
X119250000Y-141287500D03*
X118750000Y-141287500D03*
X118250000Y-141287500D03*
X117750000Y-141287500D03*
X117250000Y-141287500D03*
X116750000Y-141287500D03*
X116250000Y-141287500D03*
X115750000Y-141287500D03*
X115250000Y-141287500D03*
X114750000Y-141287500D03*
X114250000Y-141287500D03*
X113750000Y-141287500D03*
X113250000Y-141287500D03*
X112750000Y-141287500D03*
X112250000Y-141287500D03*
X111750000Y-141287500D03*
X111250000Y-141287500D03*
X110750000Y-141287500D03*
X110250000Y-141287500D03*
X109750000Y-141287500D03*
X109250000Y-141287500D03*
%TD*%
D12*
%TO.C,C10*%
X82050000Y-114000000D03*
X83950000Y-114000000D03*
%TD*%
%LPD*%
M02*
